M48
; DRILL file {KiCad 8.0.4} date 2024-09-08T09:34:44+0200
; FORMAT={-:-/ absolute / inch / decimal}
; #@! TF.CreationDate,2024-09-08T09:34:44+02:00
; #@! TF.GenerationSoftware,Kicad,Pcbnew,8.0.4
; #@! TF.FileFunction,Plated,1,2,PTH
FMAT,2
INCH
; #@! TA.AperFunction,Plated,PTH,ComponentDrill
T1C0.0236
; #@! TA.AperFunction,Plated,PTH,ComponentDrill
T2C0.0315
; #@! TA.AperFunction,Plated,PTH,ComponentDrill
T3C0.0394
; #@! TA.AperFunction,Plated,PTH,ComponentDrill
T4C0.0472
%
G90
G05
T1
X6.0835Y-3.4539
X6.1622Y-3.4539
T2
X5.4421Y-3.0091
X5.4421Y-3.1091
X5.4421Y-3.2091
X5.4421Y-3.3091
X5.5669Y-2.185
X5.5669Y-2.2953
X5.6496Y-2.185
X5.7421Y-3.0091
X5.7421Y-3.1091
X5.7421Y-3.2091
X5.7421Y-3.3091
X5.752Y-2.185
X5.8346Y-2.185
X5.8346Y-2.2953
X5.9854Y-2.8012
X5.9854Y-3.2012
X6.261Y-2.8012
X6.261Y-3.2012
T3
G00X5.4311Y-2.1024
M15
G01X5.4311Y-2.0433
M16
G05
G00X5.7402Y-2.0413
M15
G01X5.6614Y-2.0413
M16
G05
G00X5.9705Y-2.1024
M15
G01X5.9705Y-2.0433
M16
G05
T4
G00X5.1969Y-2.8543
M15
G01X5.1969Y-2.6969
M16
G05
G00X5.1969Y-3.6024
M15
G01X5.1969Y-3.4449
M16
G05
G00X5.613Y-4.1752
M15
G01X5.613Y-4.0177
M16
G05
G00X6.2283Y-4.1693
M15
G01X6.2283Y-4.0118
M16
G05
M30
