%TF.GenerationSoftware,KiCad,Pcbnew,8.0.4*%
%TF.CreationDate,2024-09-08T09:34:43+02:00*%
%TF.ProjectId,Lichtschranke-M,4c696368-7473-4636-9872-616e6b652d4d,rev?*%
%TF.SameCoordinates,Original*%
%TF.FileFunction,Copper,L1,Top*%
%TF.FilePolarity,Positive*%
%FSLAX46Y46*%
G04 Gerber Fmt 4.6, Leading zero omitted, Abs format (unit mm)*
G04 Created by KiCad (PCBNEW 8.0.4) date 2024-09-08 09:34:43*
%MOMM*%
%LPD*%
G01*
G04 APERTURE LIST*
G04 Aperture macros list*
%AMRoundRect*
0 Rectangle with rounded corners*
0 $1 Rounding radius*
0 $2 $3 $4 $5 $6 $7 $8 $9 X,Y pos of 4 corners*
0 Add a 4 corners polygon primitive as box body*
4,1,4,$2,$3,$4,$5,$6,$7,$8,$9,$2,$3,0*
0 Add four circle primitives for the rounded corners*
1,1,$1+$1,$2,$3*
1,1,$1+$1,$4,$5*
1,1,$1+$1,$6,$7*
1,1,$1+$1,$8,$9*
0 Add four rect primitives between the rounded corners*
20,1,$1+$1,$2,$3,$4,$5,0*
20,1,$1+$1,$4,$5,$6,$7,0*
20,1,$1+$1,$6,$7,$8,$9,0*
20,1,$1+$1,$8,$9,$2,$3,0*%
G04 Aperture macros list end*
%TA.AperFunction,ComponentPad*%
%ADD10O,3.500000X9.000000*%
%TD*%
%TA.AperFunction,ComponentPad*%
%ADD11R,1.600000X1.600000*%
%TD*%
%TA.AperFunction,ComponentPad*%
%ADD12C,1.600000*%
%TD*%
%TA.AperFunction,ComponentPad*%
%ADD13O,2.000000X3.500000*%
%TD*%
%TA.AperFunction,ComponentPad*%
%ADD14O,4.000000X2.000000*%
%TD*%
%TA.AperFunction,SMDPad,CuDef*%
%ADD15RoundRect,0.150000X0.150000X-0.450000X0.150000X0.450000X-0.150000X0.450000X-0.150000X-0.450000X0*%
%TD*%
%TA.AperFunction,ComponentPad*%
%ADD16O,1.600000X1.600000*%
%TD*%
%TA.AperFunction,ComponentPad*%
%ADD17R,1.200000X1.200000*%
%TD*%
%TA.AperFunction,ComponentPad*%
%ADD18C,1.200000*%
%TD*%
%TA.AperFunction,SMDPad,CuDef*%
%ADD19RoundRect,0.250000X-0.325000X-0.650000X0.325000X-0.650000X0.325000X0.650000X-0.325000X0.650000X0*%
%TD*%
%TA.AperFunction,SMDPad,CuDef*%
%ADD20RoundRect,0.250000X-0.650000X0.325000X-0.650000X-0.325000X0.650000X-0.325000X0.650000X0.325000X0*%
%TD*%
%TA.AperFunction,Conductor*%
%ADD21C,0.200000*%
%TD*%
G04 APERTURE END LIST*
D10*
%TO.P,J3,1,Pin_1*%
%TO.N,F*%
X132000000Y-89500000D03*
%TD*%
%TO.P,J5,1,Pin_1*%
%TO.N,+5V*%
X158200000Y-103900000D03*
%TD*%
%TO.P,J2,1,Pin_1*%
%TO.N,E*%
X132000000Y-70500000D03*
%TD*%
%TO.P,J4,1,Pin_1*%
%TO.N,GND*%
X142570000Y-104050000D03*
%TD*%
D11*
%TO.P,J1,1*%
%TO.N,SDA*%
X143500000Y-55500000D03*
D12*
%TO.P,J1,2*%
%TO.N,E*%
X146100000Y-55500000D03*
%TO.P,J1,3*%
%TO.N,GND*%
X141400000Y-55500000D03*
%TO.P,J1,4*%
%TO.N,+5V*%
X148200000Y-55500000D03*
%TO.P,J1,5*%
%TO.N,SCK*%
X141400000Y-58300000D03*
%TO.P,J1,6*%
%TO.N,F*%
X148200000Y-58300000D03*
D13*
%TO.P,J1,7*%
%TO.N,N/C*%
X151650000Y-52650000D03*
D14*
X144800000Y-51850000D03*
D13*
X137950000Y-52650000D03*
%TD*%
D15*
%TO.P,U2,1,I/O1*%
%TO.N,Net-(U1-PB2)*%
X143650000Y-66150000D03*
%TO.P,U2,2,GND*%
%TO.N,GND*%
X144600000Y-66150000D03*
%TO.P,U2,3,I/O2*%
%TO.N,Net-(U1-AREF{slash}PB0)*%
X145550000Y-66150000D03*
%TO.P,U2,4,I/O2*%
%TO.N,SDA*%
X145550000Y-63850000D03*
%TO.P,U2,5,VBus*%
%TO.N,+5V*%
X144600000Y-63850000D03*
%TO.P,U2,6,I/O1*%
%TO.N,SCK*%
X143650000Y-63850000D03*
%TD*%
D12*
%TO.P,R1,1*%
%TO.N,+5V*%
X152030000Y-81310000D03*
D16*
%TO.P,R1,2*%
%TO.N,Net-(U1-PB2)*%
X152030000Y-71150000D03*
%TD*%
D17*
%TO.P,C2,1*%
%TO.N,+5V*%
X156520000Y-87730000D03*
D18*
%TO.P,C2,2*%
%TO.N,GND*%
X154520000Y-87730000D03*
%TD*%
D19*
%TO.P,C3,1*%
%TO.N,GND*%
X140580000Y-79730000D03*
%TO.P,C3,2*%
%TO.N,+5V*%
X143530000Y-79730000D03*
%TD*%
D12*
%TO.P,R2,1*%
%TO.N,+5V*%
X159030000Y-81310000D03*
D16*
%TO.P,R2,2*%
%TO.N,Net-(U1-AREF{slash}PB0)*%
X159030000Y-71150000D03*
%TD*%
D20*
%TO.P,C1,1*%
%TO.N,+5V*%
X140300000Y-63525000D03*
%TO.P,C1,2*%
%TO.N,GND*%
X140300000Y-66475000D03*
%TD*%
D11*
%TO.P,U1,1,~{RESET}/PB5*%
%TO.N,unconnected-(U1-~{RESET}{slash}PB5-Pad1)*%
X138230000Y-76430000D03*
D16*
%TO.P,U1,2,XTAL1/PB3*%
%TO.N,unconnected-(U1-XTAL1{slash}PB3-Pad2)*%
X138230000Y-78970000D03*
%TO.P,U1,3,XTAL2/PB4*%
%TO.N,unconnected-(U1-XTAL2{slash}PB4-Pad3)*%
X138230000Y-81510000D03*
%TO.P,U1,4,GND*%
%TO.N,GND*%
X138230000Y-84050000D03*
%TO.P,U1,5,AREF/PB0*%
%TO.N,Net-(U1-AREF{slash}PB0)*%
X145850000Y-84050000D03*
%TO.P,U1,6,PB1*%
%TO.N,unconnected-(U1-PB1-Pad6)*%
X145850000Y-81510000D03*
%TO.P,U1,7,PB2*%
%TO.N,Net-(U1-PB2)*%
X145850000Y-78970000D03*
%TO.P,U1,8,VCC*%
%TO.N,+5V*%
X145850000Y-76430000D03*
%TD*%
D21*
%TO.N,GND*%
X138100000Y-57200000D02*
X139800000Y-55500000D01*
X140300000Y-66475000D02*
X139275000Y-66475000D01*
X140300000Y-66475000D02*
X141575000Y-65200000D01*
X138230000Y-84050000D02*
X140580000Y-81700000D01*
X144600000Y-66150000D02*
X144250000Y-66500000D01*
X144600000Y-65200000D02*
X144600000Y-66150000D01*
X139800000Y-55500000D02*
X141400000Y-55500000D01*
X140580000Y-81700000D02*
X140580000Y-79730000D01*
X141575000Y-65200000D02*
X144600000Y-65200000D01*
X140690000Y-79619900D02*
X140800000Y-79509800D01*
X140580000Y-79730000D02*
X140690000Y-79619900D01*
X138100000Y-65300000D02*
X138100000Y-57200000D01*
X139275000Y-66475000D02*
X138100000Y-65300000D01*
%TO.N,+5V*%
X149346000Y-63525000D02*
X149346000Y-63754700D01*
X144600000Y-63850000D02*
X144600000Y-64680800D01*
X141555800Y-64780800D02*
X140300000Y-63525000D01*
X145240000Y-64780800D02*
X144500000Y-64780800D01*
X145850000Y-76430000D02*
X143530000Y-78750000D01*
X143530000Y-78750000D02*
X143530000Y-79730000D01*
X149346000Y-63754700D02*
X148320000Y-64780800D01*
X144600000Y-64680800D02*
X144500000Y-64780800D01*
X148200000Y-55500000D02*
X149346000Y-56646100D01*
X148320000Y-64780800D02*
X145240000Y-64780800D01*
X149346000Y-56646100D02*
X149346000Y-63525000D01*
X144500000Y-64780800D02*
X141555800Y-64780800D01*
X143530000Y-79730000D02*
X143886000Y-80085800D01*
%TO.N,SCK*%
X141400000Y-61600000D02*
X143650000Y-63850000D01*
X141400000Y-58300000D02*
X141400000Y-61600000D01*
%TO.N,SDA*%
X145550000Y-58651700D02*
X145550000Y-63850000D01*
X143500000Y-55500000D02*
X143500000Y-56601700D01*
X143500000Y-56601700D02*
X145550000Y-58651700D01*
%TO.N,Net-(U1-PB2)*%
X143650000Y-66150000D02*
X143650000Y-68350000D01*
X148200000Y-76620000D02*
X148200000Y-71150000D01*
X143650000Y-68350000D02*
X146450000Y-71150000D01*
X146450000Y-71150000D02*
X148200000Y-71150000D01*
X145850000Y-78970000D02*
X148200000Y-76620000D01*
X148200000Y-71150000D02*
X152030000Y-71150000D01*
%TO.N,Net-(U1-AREF{slash}PB0)*%
X159030000Y-71150000D02*
X159030000Y-77870000D01*
X152850000Y-84050000D02*
X145850000Y-84050000D01*
X159030000Y-77870000D02*
X152850000Y-84050000D01*
X154030000Y-66150000D02*
X145550000Y-66150000D01*
X159030000Y-71150000D02*
X154030000Y-66150000D01*
%TD*%
%TA.AperFunction,NonConductor*%
G36*
X137608935Y-50220185D02*
G01*
X137654690Y-50272989D01*
X137664634Y-50342147D01*
X137635609Y-50405703D01*
X137580215Y-50442431D01*
X137374003Y-50509433D01*
X137163566Y-50616657D01*
X137054550Y-50695862D01*
X136972490Y-50755483D01*
X136972488Y-50755485D01*
X136972487Y-50755485D01*
X136805485Y-50922487D01*
X136805485Y-50922488D01*
X136805483Y-50922490D01*
X136745862Y-51004550D01*
X136666657Y-51113566D01*
X136559433Y-51324003D01*
X136486446Y-51548631D01*
X136449500Y-51781902D01*
X136449500Y-53518097D01*
X136486446Y-53751368D01*
X136559433Y-53975996D01*
X136666657Y-54186433D01*
X136805483Y-54377510D01*
X136972490Y-54544517D01*
X137163567Y-54683343D01*
X137246185Y-54725439D01*
X137374003Y-54790566D01*
X137374005Y-54790566D01*
X137374008Y-54790568D01*
X137455945Y-54817191D01*
X137598631Y-54863553D01*
X137831903Y-54900500D01*
X137831908Y-54900500D01*
X138068097Y-54900500D01*
X138301368Y-54863553D01*
X138353473Y-54846623D01*
X138525992Y-54790568D01*
X138736433Y-54683343D01*
X138927510Y-54544517D01*
X139094517Y-54377510D01*
X139233343Y-54186433D01*
X139340568Y-53975992D01*
X139413553Y-53751368D01*
X139450500Y-53518097D01*
X139450500Y-51781902D01*
X139413553Y-51548631D01*
X139340566Y-51324003D01*
X139233342Y-51113566D01*
X139094517Y-50922490D01*
X138927510Y-50755483D01*
X138736433Y-50616657D01*
X138525996Y-50509433D01*
X138319785Y-50442431D01*
X138262110Y-50402993D01*
X138234912Y-50338634D01*
X138246827Y-50269788D01*
X138294071Y-50218312D01*
X138358104Y-50200500D01*
X143238014Y-50200500D01*
X143305053Y-50220185D01*
X143350808Y-50272989D01*
X143360752Y-50342147D01*
X143331727Y-50405703D01*
X143276334Y-50442430D01*
X143253631Y-50449806D01*
X143224003Y-50459433D01*
X143013566Y-50566657D01*
X142944748Y-50616657D01*
X142822490Y-50705483D01*
X142822488Y-50705485D01*
X142822487Y-50705485D01*
X142655485Y-50872487D01*
X142655485Y-50872488D01*
X142655483Y-50872490D01*
X142619158Y-50922487D01*
X142516657Y-51063566D01*
X142409433Y-51274003D01*
X142336446Y-51498631D01*
X142299500Y-51731902D01*
X142299500Y-51968097D01*
X142336446Y-52201368D01*
X142409433Y-52425996D01*
X142516657Y-52636433D01*
X142655483Y-52827510D01*
X142822490Y-52994517D01*
X143013567Y-53133343D01*
X143112991Y-53184002D01*
X143224003Y-53240566D01*
X143224005Y-53240566D01*
X143224008Y-53240568D01*
X143344412Y-53279689D01*
X143448631Y-53313553D01*
X143681903Y-53350500D01*
X143681908Y-53350500D01*
X145918097Y-53350500D01*
X146151368Y-53313553D01*
X146375992Y-53240568D01*
X146586433Y-53133343D01*
X146777510Y-52994517D01*
X146944517Y-52827510D01*
X147083343Y-52636433D01*
X147190568Y-52425992D01*
X147263553Y-52201368D01*
X147300500Y-51968097D01*
X147300500Y-51731902D01*
X147263553Y-51498631D01*
X147190566Y-51274003D01*
X147083342Y-51063566D01*
X146944517Y-50872490D01*
X146777510Y-50705483D01*
X146586433Y-50566657D01*
X146375996Y-50459433D01*
X146355845Y-50452886D01*
X146323665Y-50442430D01*
X146265992Y-50402993D01*
X146238794Y-50338634D01*
X146250709Y-50269788D01*
X146297953Y-50218312D01*
X146361986Y-50200500D01*
X151241896Y-50200500D01*
X151308935Y-50220185D01*
X151354690Y-50272989D01*
X151364634Y-50342147D01*
X151335609Y-50405703D01*
X151280215Y-50442431D01*
X151074003Y-50509433D01*
X150863566Y-50616657D01*
X150754550Y-50695862D01*
X150672490Y-50755483D01*
X150672488Y-50755485D01*
X150672487Y-50755485D01*
X150505485Y-50922487D01*
X150505485Y-50922488D01*
X150505483Y-50922490D01*
X150445862Y-51004550D01*
X150366657Y-51113566D01*
X150259433Y-51324003D01*
X150186446Y-51548631D01*
X150149500Y-51781902D01*
X150149500Y-53518097D01*
X150186446Y-53751368D01*
X150259433Y-53975996D01*
X150366657Y-54186433D01*
X150505483Y-54377510D01*
X150672490Y-54544517D01*
X150863567Y-54683343D01*
X150946185Y-54725439D01*
X151074003Y-54790566D01*
X151074005Y-54790566D01*
X151074008Y-54790568D01*
X151155945Y-54817191D01*
X151298631Y-54863553D01*
X151531903Y-54900500D01*
X151531908Y-54900500D01*
X151768097Y-54900500D01*
X152001368Y-54863553D01*
X152053473Y-54846623D01*
X152225992Y-54790568D01*
X152436433Y-54683343D01*
X152627510Y-54544517D01*
X152794517Y-54377510D01*
X152933343Y-54186433D01*
X153040568Y-53975992D01*
X153113553Y-53751368D01*
X153150500Y-53518097D01*
X153150500Y-51781902D01*
X153113553Y-51548631D01*
X153040566Y-51324003D01*
X152933342Y-51113566D01*
X152794517Y-50922490D01*
X152627510Y-50755483D01*
X152436433Y-50616657D01*
X152225996Y-50509433D01*
X152019785Y-50442431D01*
X151962110Y-50402993D01*
X151934912Y-50338634D01*
X151946827Y-50269788D01*
X151994071Y-50218312D01*
X152058104Y-50200500D01*
X164425500Y-50200500D01*
X164492539Y-50220185D01*
X164538294Y-50272989D01*
X164549500Y-50324500D01*
X164549500Y-109075500D01*
X164529815Y-109142539D01*
X164477011Y-109188294D01*
X164425500Y-109199500D01*
X143252081Y-109199500D01*
X143185042Y-109179815D01*
X143139287Y-109127011D01*
X143129343Y-109057853D01*
X143158368Y-108994297D01*
X143217146Y-108956523D01*
X143219956Y-108955733D01*
X143294952Y-108935639D01*
X143567507Y-108822743D01*
X143822994Y-108675238D01*
X144057042Y-108495646D01*
X144265646Y-108287042D01*
X144445238Y-108052994D01*
X144592743Y-107797507D01*
X144705639Y-107524952D01*
X144781993Y-107239993D01*
X144820500Y-106947506D01*
X144820500Y-101152494D01*
X144800751Y-101002486D01*
X155949500Y-101002486D01*
X155949500Y-106797513D01*
X155969247Y-106947499D01*
X155988007Y-107089993D01*
X155988008Y-107089995D01*
X156064361Y-107374951D01*
X156064364Y-107374961D01*
X156177254Y-107647500D01*
X156177258Y-107647510D01*
X156324761Y-107902993D01*
X156504352Y-108137040D01*
X156504358Y-108137047D01*
X156712952Y-108345641D01*
X156712959Y-108345647D01*
X156947006Y-108525238D01*
X157202489Y-108672741D01*
X157202490Y-108672741D01*
X157202493Y-108672743D01*
X157475048Y-108785639D01*
X157760007Y-108861993D01*
X158052494Y-108900500D01*
X158052501Y-108900500D01*
X158347499Y-108900500D01*
X158347506Y-108900500D01*
X158639993Y-108861993D01*
X158924952Y-108785639D01*
X159197507Y-108672743D01*
X159452994Y-108525238D01*
X159687042Y-108345646D01*
X159895646Y-108137042D01*
X160075238Y-107902994D01*
X160222743Y-107647507D01*
X160335639Y-107374952D01*
X160411993Y-107089993D01*
X160450500Y-106797506D01*
X160450500Y-101002494D01*
X160411993Y-100710007D01*
X160335639Y-100425048D01*
X160222743Y-100152493D01*
X160075238Y-99897006D01*
X160010746Y-99812959D01*
X159895647Y-99662959D01*
X159895641Y-99662952D01*
X159687047Y-99454358D01*
X159687040Y-99454352D01*
X159452993Y-99274761D01*
X159197510Y-99127258D01*
X159197500Y-99127254D01*
X158924961Y-99014364D01*
X158924954Y-99014362D01*
X158924952Y-99014361D01*
X158639993Y-98938007D01*
X158591113Y-98931571D01*
X158347513Y-98899500D01*
X158347506Y-98899500D01*
X158052494Y-98899500D01*
X158052486Y-98899500D01*
X157774085Y-98936153D01*
X157760007Y-98938007D01*
X157475048Y-99014361D01*
X157475038Y-99014364D01*
X157202499Y-99127254D01*
X157202489Y-99127258D01*
X156947006Y-99274761D01*
X156712959Y-99454352D01*
X156712952Y-99454358D01*
X156504358Y-99662952D01*
X156504352Y-99662959D01*
X156324761Y-99897006D01*
X156177258Y-100152489D01*
X156177254Y-100152499D01*
X156064364Y-100425038D01*
X156064361Y-100425048D01*
X155988008Y-100710004D01*
X155988006Y-100710015D01*
X155949500Y-101002486D01*
X144800751Y-101002486D01*
X144781993Y-100860007D01*
X144705639Y-100575048D01*
X144592743Y-100302493D01*
X144506138Y-100152489D01*
X144445238Y-100047006D01*
X144265647Y-99812959D01*
X144265641Y-99812952D01*
X144057047Y-99604358D01*
X144057040Y-99604352D01*
X143822993Y-99424761D01*
X143567510Y-99277258D01*
X143567500Y-99277254D01*
X143294961Y-99164364D01*
X143294954Y-99164362D01*
X143294952Y-99164361D01*
X143009993Y-99088007D01*
X142961113Y-99081571D01*
X142717513Y-99049500D01*
X142717506Y-99049500D01*
X142422494Y-99049500D01*
X142422486Y-99049500D01*
X142144085Y-99086153D01*
X142130007Y-99088007D01*
X141845048Y-99164361D01*
X141845038Y-99164364D01*
X141572499Y-99277254D01*
X141572489Y-99277258D01*
X141317006Y-99424761D01*
X141082959Y-99604352D01*
X141082952Y-99604358D01*
X140874358Y-99812952D01*
X140874352Y-99812959D01*
X140694761Y-100047006D01*
X140547258Y-100302489D01*
X140547254Y-100302499D01*
X140434364Y-100575038D01*
X140434361Y-100575048D01*
X140358008Y-100860004D01*
X140358006Y-100860015D01*
X140319500Y-101152486D01*
X140319500Y-106947513D01*
X140338259Y-107089993D01*
X140358007Y-107239993D01*
X140434361Y-107524951D01*
X140434364Y-107524961D01*
X140547254Y-107797500D01*
X140547258Y-107797510D01*
X140694761Y-108052993D01*
X140874352Y-108287040D01*
X140874358Y-108287047D01*
X141082952Y-108495641D01*
X141082959Y-108495647D01*
X141317006Y-108675238D01*
X141572489Y-108822741D01*
X141572490Y-108822741D01*
X141572493Y-108822743D01*
X141845048Y-108935639D01*
X141920013Y-108955725D01*
X141979673Y-108992090D01*
X142010202Y-109054937D01*
X142001907Y-109124312D01*
X141957422Y-109178190D01*
X141890870Y-109199465D01*
X141887919Y-109199500D01*
X125674500Y-109199500D01*
X125607461Y-109179815D01*
X125561706Y-109127011D01*
X125550500Y-109075500D01*
X125550500Y-86602486D01*
X129749500Y-86602486D01*
X129749500Y-92397513D01*
X129781571Y-92641113D01*
X129788007Y-92689993D01*
X129788008Y-92689995D01*
X129864361Y-92974951D01*
X129864364Y-92974961D01*
X129977254Y-93247500D01*
X129977258Y-93247510D01*
X130124761Y-93502993D01*
X130304352Y-93737040D01*
X130304358Y-93737047D01*
X130512952Y-93945641D01*
X130512959Y-93945647D01*
X130747006Y-94125238D01*
X131002489Y-94272741D01*
X131002490Y-94272741D01*
X131002493Y-94272743D01*
X131275048Y-94385639D01*
X131560007Y-94461993D01*
X131852494Y-94500500D01*
X131852501Y-94500500D01*
X132147499Y-94500500D01*
X132147506Y-94500500D01*
X132439993Y-94461993D01*
X132724952Y-94385639D01*
X132997507Y-94272743D01*
X133252994Y-94125238D01*
X133487042Y-93945646D01*
X133695646Y-93737042D01*
X133875238Y-93502994D01*
X134022743Y-93247507D01*
X134135639Y-92974952D01*
X134211993Y-92689993D01*
X134250500Y-92397506D01*
X134250500Y-87729999D01*
X153414785Y-87729999D01*
X153414785Y-87730000D01*
X153433602Y-87933082D01*
X153489417Y-88129247D01*
X153489422Y-88129260D01*
X153580327Y-88311821D01*
X153703237Y-88474581D01*
X153853958Y-88611980D01*
X153853960Y-88611982D01*
X153853962Y-88611983D01*
X154027363Y-88719348D01*
X154217544Y-88793024D01*
X154418024Y-88830500D01*
X154418026Y-88830500D01*
X154621974Y-88830500D01*
X154621976Y-88830500D01*
X154822456Y-88793024D01*
X155012637Y-88719348D01*
X155186041Y-88611981D01*
X155278017Y-88528133D01*
X155340818Y-88497518D01*
X155410205Y-88505715D01*
X155464146Y-88550125D01*
X155471673Y-88564698D01*
X155471953Y-88564546D01*
X155476206Y-88572335D01*
X155562452Y-88687544D01*
X155562455Y-88687547D01*
X155677664Y-88773793D01*
X155677671Y-88773797D01*
X155812517Y-88824091D01*
X155812516Y-88824091D01*
X155819444Y-88824835D01*
X155872127Y-88830500D01*
X157167872Y-88830499D01*
X157227483Y-88824091D01*
X157362331Y-88773796D01*
X157477546Y-88687546D01*
X157563796Y-88572331D01*
X157614091Y-88437483D01*
X157620500Y-88377873D01*
X157620499Y-87082128D01*
X157614091Y-87022517D01*
X157563796Y-86887669D01*
X157563795Y-86887668D01*
X157563793Y-86887664D01*
X157477547Y-86772455D01*
X157477544Y-86772452D01*
X157362335Y-86686206D01*
X157362328Y-86686202D01*
X157227482Y-86635908D01*
X157227483Y-86635908D01*
X157167883Y-86629501D01*
X157167881Y-86629500D01*
X157167873Y-86629500D01*
X157167864Y-86629500D01*
X155872129Y-86629500D01*
X155872123Y-86629501D01*
X155812516Y-86635908D01*
X155677671Y-86686202D01*
X155677664Y-86686206D01*
X155562455Y-86772452D01*
X155562452Y-86772455D01*
X155476206Y-86887664D01*
X155471953Y-86895454D01*
X155469741Y-86894246D01*
X155435840Y-86939511D01*
X155370370Y-86963913D01*
X155302101Y-86949045D01*
X155278015Y-86931864D01*
X155186041Y-86848019D01*
X155186039Y-86848017D01*
X155012642Y-86740655D01*
X155012635Y-86740651D01*
X154917546Y-86703814D01*
X154822456Y-86666976D01*
X154621976Y-86629500D01*
X154418024Y-86629500D01*
X154217544Y-86666976D01*
X154217541Y-86666976D01*
X154217541Y-86666977D01*
X154027364Y-86740651D01*
X154027357Y-86740655D01*
X153853960Y-86848017D01*
X153853958Y-86848019D01*
X153703237Y-86985418D01*
X153580327Y-87148178D01*
X153489422Y-87330739D01*
X153489417Y-87330752D01*
X153433602Y-87526917D01*
X153414785Y-87729999D01*
X134250500Y-87729999D01*
X134250500Y-86602494D01*
X134211993Y-86310007D01*
X134135639Y-86025048D01*
X134022743Y-85752493D01*
X133875238Y-85497006D01*
X133695646Y-85262958D01*
X133695641Y-85262952D01*
X133487047Y-85054358D01*
X133487040Y-85054352D01*
X133252993Y-84874761D01*
X132997510Y-84727258D01*
X132997500Y-84727254D01*
X132724961Y-84614364D01*
X132724954Y-84614362D01*
X132724952Y-84614361D01*
X132439993Y-84538007D01*
X132383117Y-84530519D01*
X132147513Y-84499500D01*
X132147506Y-84499500D01*
X131852494Y-84499500D01*
X131852486Y-84499500D01*
X131574085Y-84536153D01*
X131560007Y-84538007D01*
X131400901Y-84580639D01*
X131275048Y-84614361D01*
X131275038Y-84614364D01*
X131002499Y-84727254D01*
X131002489Y-84727258D01*
X130747006Y-84874761D01*
X130512959Y-85054352D01*
X130512952Y-85054358D01*
X130304358Y-85262952D01*
X130304352Y-85262959D01*
X130124761Y-85497006D01*
X129977258Y-85752489D01*
X129977254Y-85752499D01*
X129864364Y-86025038D01*
X129864361Y-86025048D01*
X129788008Y-86310004D01*
X129788006Y-86310015D01*
X129749500Y-86602486D01*
X125550500Y-86602486D01*
X125550500Y-78969998D01*
X136924532Y-78969998D01*
X136924532Y-78970001D01*
X136944364Y-79196686D01*
X136944366Y-79196697D01*
X137003258Y-79416488D01*
X137003261Y-79416497D01*
X137099431Y-79622732D01*
X137099432Y-79622734D01*
X137229954Y-79809141D01*
X137390858Y-79970045D01*
X137390861Y-79970047D01*
X137577266Y-80100568D01*
X137635275Y-80127618D01*
X137687714Y-80173791D01*
X137706866Y-80240984D01*
X137686650Y-80307865D01*
X137635275Y-80352382D01*
X137577267Y-80379431D01*
X137577265Y-80379432D01*
X137390858Y-80509954D01*
X137229954Y-80670858D01*
X137099432Y-80857265D01*
X137099431Y-80857267D01*
X137003261Y-81063502D01*
X137003258Y-81063511D01*
X136944366Y-81283302D01*
X136944364Y-81283313D01*
X136924532Y-81509998D01*
X136924532Y-81510001D01*
X136944364Y-81736686D01*
X136944366Y-81736697D01*
X137003258Y-81956488D01*
X137003261Y-81956496D01*
X137099431Y-82162732D01*
X137099432Y-82162734D01*
X137229954Y-82349141D01*
X137390858Y-82510045D01*
X137390861Y-82510047D01*
X137577266Y-82640568D01*
X137635275Y-82667618D01*
X137687714Y-82713791D01*
X137706866Y-82780984D01*
X137686650Y-82847865D01*
X137635275Y-82892382D01*
X137577267Y-82919431D01*
X137577265Y-82919432D01*
X137390858Y-83049954D01*
X137229954Y-83210858D01*
X137099432Y-83397265D01*
X137099431Y-83397267D01*
X137003261Y-83603502D01*
X137003258Y-83603511D01*
X136944366Y-83823302D01*
X136944364Y-83823313D01*
X136924532Y-84049998D01*
X136924532Y-84050001D01*
X136944364Y-84276686D01*
X136944366Y-84276697D01*
X137003258Y-84496488D01*
X137003261Y-84496497D01*
X137099431Y-84702732D01*
X137099432Y-84702734D01*
X137229954Y-84889141D01*
X137390858Y-85050045D01*
X137390861Y-85050047D01*
X137577266Y-85180568D01*
X137783504Y-85276739D01*
X138003308Y-85335635D01*
X138165230Y-85349801D01*
X138229998Y-85355468D01*
X138230000Y-85355468D01*
X138230002Y-85355468D01*
X138286673Y-85350509D01*
X138456692Y-85335635D01*
X138676496Y-85276739D01*
X138882734Y-85180568D01*
X139069139Y-85050047D01*
X139230047Y-84889139D01*
X139360568Y-84702734D01*
X139456739Y-84496496D01*
X139515635Y-84276692D01*
X139535468Y-84050000D01*
X139515635Y-83823308D01*
X139489847Y-83727066D01*
X139491510Y-83657217D01*
X139521939Y-83607294D01*
X140938506Y-82190728D01*
X140938511Y-82190724D01*
X140948714Y-82180520D01*
X140948716Y-82180520D01*
X141060520Y-82068716D01*
X141125310Y-81956496D01*
X141139577Y-81931785D01*
X141180501Y-81779057D01*
X141180501Y-81620943D01*
X141180501Y-81613348D01*
X141180500Y-81613330D01*
X141180500Y-81161057D01*
X141200185Y-81094018D01*
X141239401Y-81055520D01*
X141373656Y-80972712D01*
X141497712Y-80848656D01*
X141589814Y-80699334D01*
X141644999Y-80532797D01*
X141655500Y-80430009D01*
X141655499Y-79029992D01*
X141644999Y-78927203D01*
X141589814Y-78760666D01*
X141497712Y-78611344D01*
X141373656Y-78487288D01*
X141224334Y-78395186D01*
X141057797Y-78340001D01*
X141057795Y-78340000D01*
X140955010Y-78329500D01*
X140204998Y-78329500D01*
X140204980Y-78329501D01*
X140102203Y-78340000D01*
X140102200Y-78340001D01*
X139935668Y-78395185D01*
X139935663Y-78395187D01*
X139786345Y-78487287D01*
X139670607Y-78603025D01*
X139609284Y-78636509D01*
X139539592Y-78631525D01*
X139483659Y-78589653D01*
X139463151Y-78547436D01*
X139456739Y-78523504D01*
X139360568Y-78317266D01*
X139230047Y-78130861D01*
X139230046Y-78130860D01*
X139230045Y-78130858D01*
X139069143Y-77969956D01*
X139044536Y-77952726D01*
X139000912Y-77898149D01*
X138993719Y-77828650D01*
X139025241Y-77766296D01*
X139085471Y-77730882D01*
X139102404Y-77727861D01*
X139137483Y-77724091D01*
X139272331Y-77673796D01*
X139387546Y-77587546D01*
X139473796Y-77472331D01*
X139524091Y-77337483D01*
X139530500Y-77277873D01*
X139530499Y-75582128D01*
X139524091Y-75522517D01*
X139515879Y-75500500D01*
X139473797Y-75387671D01*
X139473793Y-75387664D01*
X139387547Y-75272455D01*
X139387544Y-75272452D01*
X139272335Y-75186206D01*
X139272328Y-75186202D01*
X139137482Y-75135908D01*
X139137483Y-75135908D01*
X139077883Y-75129501D01*
X139077881Y-75129500D01*
X139077873Y-75129500D01*
X139077864Y-75129500D01*
X137382129Y-75129500D01*
X137382123Y-75129501D01*
X137322516Y-75135908D01*
X137187671Y-75186202D01*
X137187664Y-75186206D01*
X137072455Y-75272452D01*
X137072452Y-75272455D01*
X136986206Y-75387664D01*
X136986202Y-75387671D01*
X136935908Y-75522517D01*
X136929501Y-75582116D01*
X136929501Y-75582123D01*
X136929500Y-75582135D01*
X136929500Y-77277870D01*
X136929501Y-77277876D01*
X136935908Y-77337483D01*
X136986202Y-77472328D01*
X136986206Y-77472335D01*
X137072452Y-77587544D01*
X137072455Y-77587547D01*
X137187664Y-77673793D01*
X137187671Y-77673797D01*
X137232618Y-77690561D01*
X137322517Y-77724091D01*
X137357596Y-77727862D01*
X137422144Y-77754599D01*
X137461993Y-77811991D01*
X137464488Y-77881816D01*
X137428836Y-77941905D01*
X137415464Y-77952725D01*
X137390858Y-77969954D01*
X137229954Y-78130858D01*
X137099432Y-78317265D01*
X137099431Y-78317267D01*
X137003261Y-78523502D01*
X137003258Y-78523511D01*
X136944366Y-78743302D01*
X136944364Y-78743313D01*
X136924532Y-78969998D01*
X125550500Y-78969998D01*
X125550500Y-67602486D01*
X129749500Y-67602486D01*
X129749500Y-73397513D01*
X129781571Y-73641113D01*
X129788007Y-73689993D01*
X129788008Y-73689995D01*
X129864361Y-73974951D01*
X129864364Y-73974961D01*
X129977254Y-74247500D01*
X129977258Y-74247510D01*
X130124761Y-74502993D01*
X130304352Y-74737040D01*
X130304358Y-74737047D01*
X130512952Y-74945641D01*
X130512959Y-74945647D01*
X130747006Y-75125238D01*
X131002489Y-75272741D01*
X131002490Y-75272741D01*
X131002493Y-75272743D01*
X131275048Y-75385639D01*
X131560007Y-75461993D01*
X131852494Y-75500500D01*
X131852501Y-75500500D01*
X132147499Y-75500500D01*
X132147506Y-75500500D01*
X132439993Y-75461993D01*
X132724952Y-75385639D01*
X132997507Y-75272743D01*
X133252994Y-75125238D01*
X133487042Y-74945646D01*
X133695646Y-74737042D01*
X133875238Y-74502994D01*
X134022743Y-74247507D01*
X134135639Y-73974952D01*
X134211993Y-73689993D01*
X134250500Y-73397506D01*
X134250500Y-67602494D01*
X134211993Y-67310007D01*
X134135639Y-67025048D01*
X134022743Y-66752493D01*
X134022350Y-66751813D01*
X133875238Y-66497006D01*
X133695647Y-66262959D01*
X133695641Y-66262952D01*
X133487047Y-66054358D01*
X133487040Y-66054352D01*
X133252993Y-65874761D01*
X132997510Y-65727258D01*
X132997500Y-65727254D01*
X132724961Y-65614364D01*
X132724954Y-65614362D01*
X132724952Y-65614361D01*
X132439993Y-65538007D01*
X132391113Y-65531571D01*
X132147513Y-65499500D01*
X132147506Y-65499500D01*
X131852494Y-65499500D01*
X131852486Y-65499500D01*
X131574085Y-65536153D01*
X131560007Y-65538007D01*
X131275052Y-65614360D01*
X131275048Y-65614361D01*
X131275038Y-65614364D01*
X131002499Y-65727254D01*
X131002489Y-65727258D01*
X130747006Y-65874761D01*
X130512959Y-66054352D01*
X130512952Y-66054358D01*
X130304358Y-66262952D01*
X130304352Y-66262959D01*
X130124761Y-66497006D01*
X129977258Y-66752489D01*
X129977254Y-66752499D01*
X129864364Y-67025038D01*
X129864361Y-67025048D01*
X129788794Y-67307072D01*
X129788008Y-67310004D01*
X129788006Y-67310015D01*
X129749500Y-67602486D01*
X125550500Y-67602486D01*
X125550500Y-65379054D01*
X137499498Y-65379054D01*
X137522579Y-65465190D01*
X137540423Y-65531785D01*
X137550650Y-65549499D01*
X137569358Y-65581900D01*
X137569359Y-65581904D01*
X137569360Y-65581904D01*
X137619479Y-65668714D01*
X137619481Y-65668717D01*
X137738349Y-65787585D01*
X137738355Y-65787590D01*
X138790139Y-66839374D01*
X138790160Y-66839397D01*
X138892412Y-66941649D01*
X138922437Y-66990326D01*
X138965186Y-67119334D01*
X139057288Y-67268656D01*
X139181344Y-67392712D01*
X139330666Y-67484814D01*
X139497203Y-67539999D01*
X139599991Y-67550500D01*
X141000008Y-67550499D01*
X141102797Y-67539999D01*
X141269334Y-67484814D01*
X141418656Y-67392712D01*
X141542712Y-67268656D01*
X141634814Y-67119334D01*
X141689999Y-66952797D01*
X141700500Y-66850009D01*
X141700499Y-66099992D01*
X141690150Y-65998686D01*
X141702919Y-65929997D01*
X141725824Y-65898409D01*
X141787418Y-65836817D01*
X141848742Y-65803333D01*
X141875098Y-65800500D01*
X142725500Y-65800500D01*
X142792539Y-65820185D01*
X142838294Y-65872989D01*
X142849500Y-65924500D01*
X142849500Y-66665701D01*
X142852401Y-66702567D01*
X142852402Y-66702573D01*
X142898254Y-66860393D01*
X142898255Y-66860396D01*
X142981917Y-67001862D01*
X142981923Y-67001870D01*
X143013180Y-67033126D01*
X143046666Y-67094448D01*
X143049500Y-67120808D01*
X143049500Y-68263330D01*
X143049499Y-68263348D01*
X143049499Y-68429054D01*
X143049498Y-68429054D01*
X143090423Y-68581785D01*
X143119358Y-68631900D01*
X143119359Y-68631904D01*
X143119360Y-68631904D01*
X143169479Y-68718714D01*
X143169481Y-68718717D01*
X143288349Y-68837585D01*
X143288355Y-68837590D01*
X145965139Y-71514374D01*
X145965149Y-71514385D01*
X145969479Y-71518715D01*
X145969480Y-71518716D01*
X146081284Y-71630520D01*
X146168095Y-71680639D01*
X146168097Y-71680641D01*
X146206151Y-71702611D01*
X146218215Y-71709577D01*
X146370943Y-71750501D01*
X146370946Y-71750501D01*
X146536653Y-71750501D01*
X146536669Y-71750500D01*
X147475500Y-71750500D01*
X147542539Y-71770185D01*
X147588294Y-71822989D01*
X147599500Y-71874500D01*
X147599500Y-76319902D01*
X147579815Y-76386941D01*
X147563181Y-76407583D01*
X147359428Y-76611335D01*
X147298105Y-76644820D01*
X147228413Y-76639836D01*
X147172480Y-76597964D01*
X147148063Y-76532500D01*
X147148218Y-76512857D01*
X147155468Y-76430000D01*
X147135635Y-76203308D01*
X147076739Y-75983504D01*
X146980568Y-75777266D01*
X146850047Y-75590861D01*
X146850045Y-75590858D01*
X146689141Y-75429954D01*
X146502734Y-75299432D01*
X146502732Y-75299431D01*
X146296497Y-75203261D01*
X146296488Y-75203258D01*
X146076697Y-75144366D01*
X146076693Y-75144365D01*
X146076692Y-75144365D01*
X146076691Y-75144364D01*
X146076686Y-75144364D01*
X145850002Y-75124532D01*
X145849998Y-75124532D01*
X145623313Y-75144364D01*
X145623302Y-75144366D01*
X145403511Y-75203258D01*
X145403502Y-75203261D01*
X145197267Y-75299431D01*
X145197265Y-75299432D01*
X145010858Y-75429954D01*
X144849954Y-75590858D01*
X144719432Y-75777265D01*
X144719431Y-75777267D01*
X144623261Y-75983502D01*
X144623258Y-75983511D01*
X144564366Y-76203302D01*
X144564364Y-76203313D01*
X144544532Y-76429998D01*
X144544532Y-76430001D01*
X144564364Y-76656686D01*
X144564366Y-76656697D01*
X144590152Y-76752931D01*
X144588489Y-76822781D01*
X144558058Y-76872705D01*
X143161286Y-78269478D01*
X143161281Y-78269481D01*
X143161282Y-78269482D01*
X143126340Y-78304422D01*
X143065016Y-78337905D01*
X143053196Y-78339788D01*
X143052201Y-78340001D01*
X142885668Y-78395185D01*
X142885663Y-78395187D01*
X142736342Y-78487289D01*
X142612289Y-78611342D01*
X142520187Y-78760663D01*
X142520186Y-78760666D01*
X142465001Y-78927203D01*
X142465001Y-78927204D01*
X142465000Y-78927204D01*
X142454500Y-79029983D01*
X142454500Y-80430001D01*
X142454501Y-80430018D01*
X142465000Y-80532796D01*
X142465001Y-80532799D01*
X142506246Y-80657265D01*
X142520186Y-80699334D01*
X142612288Y-80848656D01*
X142736344Y-80972712D01*
X142885666Y-81064814D01*
X143052203Y-81119999D01*
X143154991Y-81130500D01*
X143905008Y-81130499D01*
X143905016Y-81130498D01*
X143905019Y-81130498D01*
X143961302Y-81124748D01*
X144007797Y-81119999D01*
X144174334Y-81064814D01*
X144323656Y-80972712D01*
X144447712Y-80848656D01*
X144460097Y-80828575D01*
X144512044Y-80781850D01*
X144556278Y-80774650D01*
X144542811Y-80751747D01*
X144545373Y-80682555D01*
X144594999Y-80532797D01*
X144605500Y-80430009D01*
X144605499Y-79853298D01*
X144625183Y-79786261D01*
X144677987Y-79740506D01*
X144747146Y-79730562D01*
X144810702Y-79759587D01*
X144831074Y-79782177D01*
X144849954Y-79809141D01*
X145010858Y-79970045D01*
X145010861Y-79970047D01*
X145197266Y-80100568D01*
X145255275Y-80127618D01*
X145307714Y-80173791D01*
X145326866Y-80240984D01*
X145306650Y-80307865D01*
X145255275Y-80352382D01*
X145197267Y-80379431D01*
X145197265Y-80379432D01*
X145010858Y-80509954D01*
X144849954Y-80670858D01*
X144764655Y-80792680D01*
X144710079Y-80836305D01*
X144672978Y-80840145D01*
X144683946Y-80856536D01*
X144685241Y-80926394D01*
X144678019Y-80946075D01*
X144623262Y-81063502D01*
X144623258Y-81063511D01*
X144564366Y-81283302D01*
X144564364Y-81283313D01*
X144544532Y-81509998D01*
X144544532Y-81510001D01*
X144564364Y-81736686D01*
X144564366Y-81736697D01*
X144623258Y-81956488D01*
X144623261Y-81956496D01*
X144719431Y-82162732D01*
X144719432Y-82162734D01*
X144849954Y-82349141D01*
X145010858Y-82510045D01*
X145010861Y-82510047D01*
X145197266Y-82640568D01*
X145255275Y-82667618D01*
X145307714Y-82713791D01*
X145326866Y-82780984D01*
X145306650Y-82847865D01*
X145255275Y-82892382D01*
X145197267Y-82919431D01*
X145197265Y-82919432D01*
X145010858Y-83049954D01*
X144849954Y-83210858D01*
X144719432Y-83397265D01*
X144719431Y-83397267D01*
X144623261Y-83603502D01*
X144623258Y-83603511D01*
X144564366Y-83823302D01*
X144564364Y-83823313D01*
X144544532Y-84049998D01*
X144544532Y-84050001D01*
X144564364Y-84276686D01*
X144564366Y-84276697D01*
X144623258Y-84496488D01*
X144623261Y-84496497D01*
X144719431Y-84702732D01*
X144719432Y-84702734D01*
X144849954Y-84889141D01*
X145010858Y-85050045D01*
X145010861Y-85050047D01*
X145197266Y-85180568D01*
X145403504Y-85276739D01*
X145623308Y-85335635D01*
X145785230Y-85349801D01*
X145849998Y-85355468D01*
X145850000Y-85355468D01*
X145850002Y-85355468D01*
X145906673Y-85350509D01*
X146076692Y-85335635D01*
X146296496Y-85276739D01*
X146502734Y-85180568D01*
X146689139Y-85050047D01*
X146850047Y-84889139D01*
X146980118Y-84703375D01*
X147034693Y-84659752D01*
X147081692Y-84650500D01*
X152763331Y-84650500D01*
X152763347Y-84650501D01*
X152770943Y-84650501D01*
X152929054Y-84650501D01*
X152929057Y-84650501D01*
X153081785Y-84609577D01*
X153131904Y-84580639D01*
X153218716Y-84530520D01*
X153330520Y-84418716D01*
X153330520Y-84418714D01*
X153340728Y-84408507D01*
X153340730Y-84408504D01*
X156439236Y-81309998D01*
X157724532Y-81309998D01*
X157724532Y-81310001D01*
X157744364Y-81536686D01*
X157744366Y-81536697D01*
X157803258Y-81756488D01*
X157803261Y-81756497D01*
X157899431Y-81962732D01*
X157899432Y-81962734D01*
X158029954Y-82149141D01*
X158190858Y-82310045D01*
X158190861Y-82310047D01*
X158377266Y-82440568D01*
X158583504Y-82536739D01*
X158803308Y-82595635D01*
X158965230Y-82609801D01*
X159029998Y-82615468D01*
X159030000Y-82615468D01*
X159030002Y-82615468D01*
X159086673Y-82610509D01*
X159256692Y-82595635D01*
X159476496Y-82536739D01*
X159682734Y-82440568D01*
X159869139Y-82310047D01*
X160030047Y-82149139D01*
X160160568Y-81962734D01*
X160256739Y-81756496D01*
X160315635Y-81536692D01*
X160335468Y-81310000D01*
X160315635Y-81083308D01*
X160256739Y-80863504D01*
X160160568Y-80657266D01*
X160030047Y-80470861D01*
X160030045Y-80470858D01*
X159869141Y-80309954D01*
X159682734Y-80179432D01*
X159682732Y-80179431D01*
X159476497Y-80083261D01*
X159476488Y-80083258D01*
X159256697Y-80024366D01*
X159256693Y-80024365D01*
X159256692Y-80024365D01*
X159256691Y-80024364D01*
X159256686Y-80024364D01*
X159030002Y-80004532D01*
X159029998Y-80004532D01*
X158803313Y-80024364D01*
X158803302Y-80024366D01*
X158583511Y-80083258D01*
X158583502Y-80083261D01*
X158377267Y-80179431D01*
X158377265Y-80179432D01*
X158190858Y-80309954D01*
X158029954Y-80470858D01*
X157899432Y-80657265D01*
X157899431Y-80657267D01*
X157803261Y-80863502D01*
X157803258Y-80863511D01*
X157744366Y-81083302D01*
X157744364Y-81083313D01*
X157724532Y-81309998D01*
X156439236Y-81309998D01*
X159388506Y-78360728D01*
X159388511Y-78360724D01*
X159398714Y-78350520D01*
X159398716Y-78350520D01*
X159510520Y-78238716D01*
X159572790Y-78130861D01*
X159589577Y-78101785D01*
X159630501Y-77949057D01*
X159630501Y-77790943D01*
X159630501Y-77783348D01*
X159630500Y-77783330D01*
X159630500Y-72381692D01*
X159650185Y-72314653D01*
X159683374Y-72280119D01*
X159869139Y-72150047D01*
X160030047Y-71989139D01*
X160160568Y-71802734D01*
X160256739Y-71596496D01*
X160315635Y-71376692D01*
X160335468Y-71150000D01*
X160315635Y-70923308D01*
X160256739Y-70703504D01*
X160160568Y-70497266D01*
X160030047Y-70310861D01*
X160030045Y-70310858D01*
X159869141Y-70149954D01*
X159682734Y-70019432D01*
X159682732Y-70019431D01*
X159476497Y-69923261D01*
X159476488Y-69923258D01*
X159256697Y-69864366D01*
X159256693Y-69864365D01*
X159256692Y-69864365D01*
X159256691Y-69864364D01*
X159256686Y-69864364D01*
X159030002Y-69844532D01*
X159029998Y-69844532D01*
X158803313Y-69864364D01*
X158803302Y-69864366D01*
X158707067Y-69890152D01*
X158637217Y-69888489D01*
X158587293Y-69858058D01*
X154517590Y-65788355D01*
X154517588Y-65788352D01*
X154398717Y-65669481D01*
X154398716Y-65669480D01*
X154303246Y-65614361D01*
X154303245Y-65614360D01*
X154261783Y-65590422D01*
X154205881Y-65575443D01*
X154109057Y-65549499D01*
X153950943Y-65549499D01*
X153943347Y-65549499D01*
X153943331Y-65549500D01*
X148652349Y-65549500D01*
X148585310Y-65529815D01*
X148539555Y-65477011D01*
X148529611Y-65407853D01*
X148558636Y-65344297D01*
X148590343Y-65318116D01*
X148609504Y-65307052D01*
X148685605Y-65263115D01*
X148688566Y-65261522D01*
X148688617Y-65261484D01*
X148690250Y-65259789D01*
X148729735Y-65220299D01*
X148729740Y-65220296D01*
X148766689Y-65183346D01*
X148800520Y-65149516D01*
X148800521Y-65149514D01*
X148807045Y-65142990D01*
X148807092Y-65142935D01*
X148906685Y-65043333D01*
X149313160Y-64636818D01*
X149754779Y-64195157D01*
X149754782Y-64195153D01*
X149780841Y-64169094D01*
X149823694Y-64126241D01*
X149826373Y-64123735D01*
X149826438Y-64123652D01*
X149827627Y-64121503D01*
X149835531Y-64107811D01*
X149858677Y-64067716D01*
X149903642Y-63989834D01*
X149905698Y-63986525D01*
X149905703Y-63986511D01*
X149906594Y-63982701D01*
X149930433Y-63893720D01*
X149930434Y-63893718D01*
X149946433Y-63834006D01*
X149946499Y-63833762D01*
X149946501Y-63833738D01*
X149946505Y-63833728D01*
X149946500Y-63734906D01*
X149946500Y-63445943D01*
X149946500Y-56657419D01*
X149946504Y-56567069D01*
X149946502Y-56567061D01*
X149946500Y-56567046D01*
X149946500Y-56567043D01*
X149928549Y-56500047D01*
X149928548Y-56500045D01*
X149928548Y-56500044D01*
X149928296Y-56499104D01*
X149906591Y-56418089D01*
X149905794Y-56414676D01*
X149905743Y-56414550D01*
X149904773Y-56412923D01*
X149895688Y-56397187D01*
X149862174Y-56339139D01*
X149826535Y-56277405D01*
X149826529Y-56277399D01*
X149826528Y-56277397D01*
X149826525Y-56277393D01*
X149826520Y-56277384D01*
X149757927Y-56208791D01*
X149757725Y-56208589D01*
X149491921Y-55942761D01*
X149458439Y-55881437D01*
X149459830Y-55822992D01*
X149485635Y-55726692D01*
X149505468Y-55500000D01*
X149485635Y-55273308D01*
X149426739Y-55053504D01*
X149330568Y-54847266D01*
X149200047Y-54660861D01*
X149200045Y-54660858D01*
X149039141Y-54499954D01*
X148852734Y-54369432D01*
X148852732Y-54369431D01*
X148646497Y-54273261D01*
X148646488Y-54273258D01*
X148426697Y-54214366D01*
X148426693Y-54214365D01*
X148426692Y-54214365D01*
X148426691Y-54214364D01*
X148426686Y-54214364D01*
X148200002Y-54194532D01*
X148199998Y-54194532D01*
X147973313Y-54214364D01*
X147973302Y-54214366D01*
X147753511Y-54273258D01*
X147753502Y-54273261D01*
X147547267Y-54369431D01*
X147547265Y-54369432D01*
X147360858Y-54499954D01*
X147237681Y-54623132D01*
X147176358Y-54656617D01*
X147106666Y-54651633D01*
X147062319Y-54623132D01*
X146939141Y-54499954D01*
X146752734Y-54369432D01*
X146752732Y-54369431D01*
X146546497Y-54273261D01*
X146546488Y-54273258D01*
X146326697Y-54214366D01*
X146326693Y-54214365D01*
X146326692Y-54214365D01*
X146326691Y-54214364D01*
X146326686Y-54214364D01*
X146100002Y-54194532D01*
X146099998Y-54194532D01*
X145873313Y-54214364D01*
X145873302Y-54214366D01*
X145653511Y-54273258D01*
X145653502Y-54273261D01*
X145447267Y-54369431D01*
X145447265Y-54369432D01*
X145260858Y-54499954D01*
X145099954Y-54660858D01*
X145026074Y-54766372D01*
X144971498Y-54809997D01*
X144901999Y-54817191D01*
X144839644Y-54785669D01*
X144804230Y-54725439D01*
X144800499Y-54695249D01*
X144800499Y-54652129D01*
X144800498Y-54652123D01*
X144800445Y-54651633D01*
X144794091Y-54592517D01*
X144776188Y-54544517D01*
X144743797Y-54457671D01*
X144743793Y-54457664D01*
X144657547Y-54342455D01*
X144657544Y-54342452D01*
X144542335Y-54256206D01*
X144542328Y-54256202D01*
X144407482Y-54205908D01*
X144407483Y-54205908D01*
X144347883Y-54199501D01*
X144347881Y-54199500D01*
X144347873Y-54199500D01*
X144347864Y-54199500D01*
X142652129Y-54199500D01*
X142652123Y-54199501D01*
X142592516Y-54205908D01*
X142457671Y-54256202D01*
X142457664Y-54256206D01*
X142342455Y-54342452D01*
X142301555Y-54397087D01*
X142245620Y-54438958D01*
X142175929Y-54443941D01*
X142131166Y-54424350D01*
X142052734Y-54369432D01*
X142052732Y-54369431D01*
X141846497Y-54273261D01*
X141846488Y-54273258D01*
X141626697Y-54214366D01*
X141626693Y-54214365D01*
X141626692Y-54214365D01*
X141626691Y-54214364D01*
X141626686Y-54214364D01*
X141400002Y-54194532D01*
X141399998Y-54194532D01*
X141173313Y-54214364D01*
X141173302Y-54214366D01*
X140953511Y-54273258D01*
X140953502Y-54273261D01*
X140747267Y-54369431D01*
X140747265Y-54369432D01*
X140560858Y-54499954D01*
X140399954Y-54660858D01*
X140326074Y-54766372D01*
X140269881Y-54846624D01*
X140215307Y-54890248D01*
X140168308Y-54899500D01*
X139879057Y-54899500D01*
X139720943Y-54899500D01*
X139568215Y-54940423D01*
X139568214Y-54940423D01*
X139568212Y-54940424D01*
X139568209Y-54940425D01*
X139518096Y-54969359D01*
X139518095Y-54969360D01*
X139474689Y-54994420D01*
X139431285Y-55019479D01*
X139431282Y-55019481D01*
X137619481Y-56831282D01*
X137619479Y-56831285D01*
X137601459Y-56862498D01*
X137582799Y-56894819D01*
X137569361Y-56918094D01*
X137569359Y-56918096D01*
X137540425Y-56968209D01*
X137540424Y-56968210D01*
X137539833Y-56970416D01*
X137499499Y-57120943D01*
X137499499Y-57120945D01*
X137499499Y-57289046D01*
X137499500Y-57289059D01*
X137499500Y-65213330D01*
X137499499Y-65213348D01*
X137499499Y-65379054D01*
X137499498Y-65379054D01*
X125550500Y-65379054D01*
X125550500Y-50324500D01*
X125570185Y-50257461D01*
X125622989Y-50211706D01*
X125674500Y-50200500D01*
X137541896Y-50200500D01*
X137608935Y-50220185D01*
G37*
%TD.AperFunction*%
%TA.AperFunction,NonConductor*%
G36*
X142265139Y-56570332D02*
G01*
X142301555Y-56602913D01*
X142342452Y-56657544D01*
X142342455Y-56657547D01*
X142457664Y-56743793D01*
X142457671Y-56743797D01*
X142502618Y-56760561D01*
X142592517Y-56794091D01*
X142652127Y-56800500D01*
X142849787Y-56800499D01*
X142916827Y-56820183D01*
X142957172Y-56862495D01*
X142969360Y-56883604D01*
X143018206Y-56968210D01*
X143019479Y-56970414D01*
X143019481Y-56970417D01*
X143138349Y-57089285D01*
X143138355Y-57089290D01*
X144913181Y-58864116D01*
X144946666Y-58925439D01*
X144949500Y-58951797D01*
X144949500Y-62625888D01*
X144929815Y-62692927D01*
X144877011Y-62738682D01*
X144818152Y-62749086D01*
X144818132Y-62749596D01*
X144815789Y-62749504D01*
X144815778Y-62749506D01*
X144815717Y-62749501D01*
X144815699Y-62749500D01*
X144815694Y-62749500D01*
X144384306Y-62749500D01*
X144384298Y-62749500D01*
X144347432Y-62752401D01*
X144347426Y-62752402D01*
X144189606Y-62798254D01*
X144189605Y-62798254D01*
X144189602Y-62798256D01*
X144188118Y-62799133D01*
X144186804Y-62799466D01*
X144182446Y-62801353D01*
X144182141Y-62800649D01*
X144120396Y-62816315D01*
X144067766Y-62800861D01*
X144067554Y-62801353D01*
X144063573Y-62799630D01*
X144061881Y-62799133D01*
X144060398Y-62798256D01*
X144060394Y-62798255D01*
X144060393Y-62798254D01*
X143902573Y-62752402D01*
X143902567Y-62752401D01*
X143865701Y-62749500D01*
X143865694Y-62749500D01*
X143450097Y-62749500D01*
X143383058Y-62729815D01*
X143362416Y-62713181D01*
X142036819Y-61387583D01*
X142003334Y-61326260D01*
X142000500Y-61299902D01*
X142000500Y-59531692D01*
X142020185Y-59464653D01*
X142053374Y-59430119D01*
X142239139Y-59300047D01*
X142400047Y-59139139D01*
X142530568Y-58952734D01*
X142626739Y-58746496D01*
X142685635Y-58526692D01*
X142705468Y-58300000D01*
X142685635Y-58073308D01*
X142626739Y-57853504D01*
X142530568Y-57647266D01*
X142400047Y-57460861D01*
X142400045Y-57460858D01*
X142239141Y-57299954D01*
X142052734Y-57169432D01*
X142052732Y-57169431D01*
X141846497Y-57073261D01*
X141846488Y-57073258D01*
X141646882Y-57019775D01*
X141587221Y-56983410D01*
X141556692Y-56920563D01*
X141564987Y-56851188D01*
X141609472Y-56797310D01*
X141646882Y-56780225D01*
X141846496Y-56726739D01*
X142052734Y-56630568D01*
X142131168Y-56575648D01*
X142197372Y-56553322D01*
X142265139Y-56570332D01*
G37*
%TD.AperFunction*%
%TA.AperFunction,NonConductor*%
G36*
X140235347Y-56120185D02*
G01*
X140269880Y-56153374D01*
X140310256Y-56211037D01*
X140399954Y-56339141D01*
X140560858Y-56500045D01*
X140560861Y-56500047D01*
X140747266Y-56630568D01*
X140953504Y-56726739D01*
X140953509Y-56726740D01*
X140953511Y-56726741D01*
X141153117Y-56780225D01*
X141212778Y-56816590D01*
X141243307Y-56879437D01*
X141235012Y-56948812D01*
X141190527Y-57002690D01*
X141153117Y-57019775D01*
X140953511Y-57073258D01*
X140953502Y-57073261D01*
X140747267Y-57169431D01*
X140747265Y-57169432D01*
X140560858Y-57299954D01*
X140399954Y-57460858D01*
X140269432Y-57647265D01*
X140269431Y-57647267D01*
X140173261Y-57853502D01*
X140173258Y-57853511D01*
X140114366Y-58073302D01*
X140114364Y-58073313D01*
X140094532Y-58299998D01*
X140094532Y-58300001D01*
X140114364Y-58526686D01*
X140114366Y-58526697D01*
X140173258Y-58746488D01*
X140173261Y-58746497D01*
X140269431Y-58952732D01*
X140269432Y-58952734D01*
X140399954Y-59139141D01*
X140560858Y-59300045D01*
X140560861Y-59300047D01*
X140746624Y-59430118D01*
X140790248Y-59484693D01*
X140799500Y-59531692D01*
X140799500Y-61513330D01*
X140799499Y-61513348D01*
X140799499Y-61679054D01*
X140799498Y-61679054D01*
X140840423Y-61831785D01*
X140869358Y-61881900D01*
X140869359Y-61881904D01*
X140869360Y-61881904D01*
X140919479Y-61968714D01*
X140919481Y-61968717D01*
X141038349Y-62087585D01*
X141038355Y-62087590D01*
X141199345Y-62248580D01*
X141232830Y-62309903D01*
X141227846Y-62379595D01*
X141185974Y-62435528D01*
X141120510Y-62459945D01*
X141099062Y-62459619D01*
X141000011Y-62449500D01*
X139599998Y-62449500D01*
X139599981Y-62449501D01*
X139497203Y-62460000D01*
X139497200Y-62460001D01*
X139330668Y-62515185D01*
X139330663Y-62515187D01*
X139181342Y-62607289D01*
X139057289Y-62731342D01*
X138965187Y-62880663D01*
X138965185Y-62880668D01*
X138942206Y-62950016D01*
X138902433Y-63007461D01*
X138837917Y-63034284D01*
X138769142Y-63021969D01*
X138717942Y-62974426D01*
X138700500Y-62911012D01*
X138700500Y-57500097D01*
X138720185Y-57433058D01*
X138736819Y-57412416D01*
X140012416Y-56136819D01*
X140073739Y-56103334D01*
X140100097Y-56100500D01*
X140168308Y-56100500D01*
X140235347Y-56120185D01*
G37*
%TD.AperFunction*%
%TA.AperFunction,NonConductor*%
G36*
X145005700Y-56211037D02*
G01*
X145026074Y-56233629D01*
X145099953Y-56339140D01*
X145260858Y-56500045D01*
X145260861Y-56500047D01*
X145447266Y-56630568D01*
X145653504Y-56726739D01*
X145873308Y-56785635D01*
X146035230Y-56799801D01*
X146099998Y-56805468D01*
X146100000Y-56805468D01*
X146100002Y-56805468D01*
X146156796Y-56800499D01*
X146326692Y-56785635D01*
X146546496Y-56726739D01*
X146752734Y-56630568D01*
X146939139Y-56500047D01*
X146940082Y-56499104D01*
X147062319Y-56376868D01*
X147123642Y-56343383D01*
X147193334Y-56348367D01*
X147237681Y-56376868D01*
X147360858Y-56500045D01*
X147360861Y-56500047D01*
X147547266Y-56630568D01*
X147753504Y-56726739D01*
X147753509Y-56726740D01*
X147753511Y-56726741D01*
X147953117Y-56780225D01*
X148012778Y-56816590D01*
X148043307Y-56879437D01*
X148035012Y-56948812D01*
X147990527Y-57002690D01*
X147953117Y-57019775D01*
X147753511Y-57073258D01*
X147753502Y-57073261D01*
X147547267Y-57169431D01*
X147547265Y-57169432D01*
X147360858Y-57299954D01*
X147199954Y-57460858D01*
X147069432Y-57647265D01*
X147069431Y-57647267D01*
X146973261Y-57853502D01*
X146973258Y-57853511D01*
X146914366Y-58073302D01*
X146914364Y-58073313D01*
X146894532Y-58299998D01*
X146894532Y-58300001D01*
X146914364Y-58526686D01*
X146914366Y-58526697D01*
X146973258Y-58746488D01*
X146973261Y-58746497D01*
X147069431Y-58952732D01*
X147069432Y-58952734D01*
X147199954Y-59139141D01*
X147360858Y-59300045D01*
X147360861Y-59300047D01*
X147547266Y-59430568D01*
X147753504Y-59526739D01*
X147973308Y-59585635D01*
X148135230Y-59599801D01*
X148199998Y-59605468D01*
X148200000Y-59605468D01*
X148200002Y-59605468D01*
X148256673Y-59600509D01*
X148426692Y-59585635D01*
X148589407Y-59542036D01*
X148659257Y-59543699D01*
X148717119Y-59582862D01*
X148744623Y-59647090D01*
X148745500Y-59661811D01*
X148745500Y-63454621D01*
X148725815Y-63521660D01*
X148709186Y-63542298D01*
X148107567Y-64143977D01*
X148046245Y-64177465D01*
X148019881Y-64180300D01*
X146474500Y-64180300D01*
X146407461Y-64160615D01*
X146361706Y-64107811D01*
X146350500Y-64056300D01*
X146350500Y-63334313D01*
X146350499Y-63334298D01*
X146347598Y-63297432D01*
X146347597Y-63297426D01*
X146304764Y-63149998D01*
X146301744Y-63139602D01*
X146218081Y-62998135D01*
X146218079Y-62998133D01*
X146218076Y-62998129D01*
X146186819Y-62966872D01*
X146153334Y-62905549D01*
X146150500Y-62879191D01*
X146150500Y-58740760D01*
X146150501Y-58740747D01*
X146150501Y-58572645D01*
X146150501Y-58572643D01*
X146109577Y-58419915D01*
X146030520Y-58282984D01*
X144614352Y-56866817D01*
X144580868Y-56805495D01*
X144585852Y-56735803D01*
X144627722Y-56679871D01*
X144657546Y-56657546D01*
X144743796Y-56542331D01*
X144794091Y-56407483D01*
X144800500Y-56347873D01*
X144800499Y-56304751D01*
X144820182Y-56237715D01*
X144872985Y-56191959D01*
X144942143Y-56182014D01*
X145005700Y-56211037D01*
G37*
%TD.AperFunction*%
%TA.AperFunction,NonConductor*%
G36*
X141884996Y-62936855D02*
G01*
X141901419Y-62950654D01*
X142813181Y-63862416D01*
X142846666Y-63923739D01*
X142849500Y-63950097D01*
X142849500Y-64056300D01*
X142829815Y-64123339D01*
X142777011Y-64169094D01*
X142725500Y-64180300D01*
X141855897Y-64180300D01*
X141788858Y-64160615D01*
X141768216Y-64143981D01*
X141725828Y-64101593D01*
X141692343Y-64040270D01*
X141690151Y-64001309D01*
X141695383Y-63950097D01*
X141700500Y-63900009D01*
X141700499Y-63149992D01*
X141690380Y-63050935D01*
X141703150Y-62982244D01*
X141751030Y-62931360D01*
X141818820Y-62914439D01*
X141884996Y-62936855D01*
G37*
%TD.AperFunction*%
%TA.AperFunction,NonConductor*%
G36*
X138905703Y-64045275D02*
G01*
X138942205Y-64099982D01*
X138950076Y-64123735D01*
X138965185Y-64169331D01*
X138965187Y-64169336D01*
X138981111Y-64195153D01*
X139057288Y-64318656D01*
X139181344Y-64442712D01*
X139330666Y-64534814D01*
X139497203Y-64589999D01*
X139599991Y-64600500D01*
X140474902Y-64600499D01*
X140541941Y-64620183D01*
X140562583Y-64636818D01*
X140838083Y-64912318D01*
X140871568Y-64973641D01*
X140866584Y-65043333D01*
X140838083Y-65087680D01*
X140562583Y-65363181D01*
X140501260Y-65396666D01*
X140474902Y-65399500D01*
X139599998Y-65399500D01*
X139599980Y-65399501D01*
X139497203Y-65410000D01*
X139497200Y-65410001D01*
X139330668Y-65465185D01*
X139330659Y-65465190D01*
X139280365Y-65496211D01*
X139212972Y-65514651D01*
X139146309Y-65493728D01*
X139127588Y-65478353D01*
X138736819Y-65087584D01*
X138703334Y-65026261D01*
X138700500Y-64999903D01*
X138700500Y-64138988D01*
X138720185Y-64071949D01*
X138772989Y-64026194D01*
X138842147Y-64016250D01*
X138905703Y-64045275D01*
G37*
%TD.AperFunction*%
%TA.AperFunction,NonConductor*%
G36*
X153796942Y-66770185D02*
G01*
X153817584Y-66786819D01*
X157738058Y-70707293D01*
X157771543Y-70768616D01*
X157770152Y-70827067D01*
X157744366Y-70923302D01*
X157744364Y-70923313D01*
X157724532Y-71149998D01*
X157724532Y-71150001D01*
X157744364Y-71376686D01*
X157744366Y-71376697D01*
X157803258Y-71596488D01*
X157803261Y-71596497D01*
X157899431Y-71802732D01*
X157899432Y-71802734D01*
X158029954Y-71989141D01*
X158190858Y-72150045D01*
X158190861Y-72150047D01*
X158376624Y-72280118D01*
X158420248Y-72334693D01*
X158429500Y-72381692D01*
X158429500Y-77569903D01*
X158409815Y-77636942D01*
X158393181Y-77657584D01*
X152637584Y-83413181D01*
X152576261Y-83446666D01*
X152549903Y-83449500D01*
X147081692Y-83449500D01*
X147014653Y-83429815D01*
X146980119Y-83396625D01*
X146850047Y-83210861D01*
X146850045Y-83210858D01*
X146689141Y-83049954D01*
X146502734Y-82919432D01*
X146502728Y-82919429D01*
X146444725Y-82892382D01*
X146392285Y-82846210D01*
X146373133Y-82779017D01*
X146393348Y-82712135D01*
X146444725Y-82667618D01*
X146502734Y-82640568D01*
X146689139Y-82510047D01*
X146850047Y-82349139D01*
X146980568Y-82162734D01*
X147076739Y-81956496D01*
X147135635Y-81736692D01*
X147155468Y-81510000D01*
X147137970Y-81309998D01*
X150724532Y-81309998D01*
X150724532Y-81310001D01*
X150744364Y-81536686D01*
X150744366Y-81536697D01*
X150803258Y-81756488D01*
X150803261Y-81756497D01*
X150899431Y-81962732D01*
X150899432Y-81962734D01*
X151029954Y-82149141D01*
X151190858Y-82310045D01*
X151190861Y-82310047D01*
X151377266Y-82440568D01*
X151583504Y-82536739D01*
X151803308Y-82595635D01*
X151965230Y-82609801D01*
X152029998Y-82615468D01*
X152030000Y-82615468D01*
X152030002Y-82615468D01*
X152086673Y-82610509D01*
X152256692Y-82595635D01*
X152476496Y-82536739D01*
X152682734Y-82440568D01*
X152869139Y-82310047D01*
X153030047Y-82149139D01*
X153160568Y-81962734D01*
X153256739Y-81756496D01*
X153315635Y-81536692D01*
X153335468Y-81310000D01*
X153315635Y-81083308D01*
X153256739Y-80863504D01*
X153160568Y-80657266D01*
X153030047Y-80470861D01*
X153030045Y-80470858D01*
X152869141Y-80309954D01*
X152682734Y-80179432D01*
X152682732Y-80179431D01*
X152476497Y-80083261D01*
X152476488Y-80083258D01*
X152256697Y-80024366D01*
X152256693Y-80024365D01*
X152256692Y-80024365D01*
X152256691Y-80024364D01*
X152256686Y-80024364D01*
X152030002Y-80004532D01*
X152029998Y-80004532D01*
X151803313Y-80024364D01*
X151803302Y-80024366D01*
X151583511Y-80083258D01*
X151583502Y-80083261D01*
X151377267Y-80179431D01*
X151377265Y-80179432D01*
X151190858Y-80309954D01*
X151029954Y-80470858D01*
X150899432Y-80657265D01*
X150899431Y-80657267D01*
X150803261Y-80863502D01*
X150803258Y-80863511D01*
X150744366Y-81083302D01*
X150744364Y-81083313D01*
X150724532Y-81309998D01*
X147137970Y-81309998D01*
X147135635Y-81283308D01*
X147082047Y-81083313D01*
X147076741Y-81063511D01*
X147076738Y-81063502D01*
X147073015Y-81055518D01*
X146980568Y-80857266D01*
X146850047Y-80670861D01*
X146850045Y-80670858D01*
X146689141Y-80509954D01*
X146502734Y-80379432D01*
X146502728Y-80379429D01*
X146444725Y-80352382D01*
X146392285Y-80306210D01*
X146373133Y-80239017D01*
X146393348Y-80172135D01*
X146444725Y-80127618D01*
X146502734Y-80100568D01*
X146689139Y-79970047D01*
X146850047Y-79809139D01*
X146980568Y-79622734D01*
X147076739Y-79416496D01*
X147135635Y-79196692D01*
X147155468Y-78970000D01*
X147151723Y-78927200D01*
X147141964Y-78815654D01*
X147135635Y-78743308D01*
X147109847Y-78647066D01*
X147111510Y-78577217D01*
X147141939Y-78527294D01*
X148558506Y-77110728D01*
X148558511Y-77110724D01*
X148568714Y-77100520D01*
X148568716Y-77100520D01*
X148680520Y-76988716D01*
X148745310Y-76876496D01*
X148759577Y-76851785D01*
X148800501Y-76699057D01*
X148800501Y-76540943D01*
X148800501Y-76533348D01*
X148800500Y-76533330D01*
X148800500Y-71874500D01*
X148820185Y-71807461D01*
X148872989Y-71761706D01*
X148924500Y-71750500D01*
X150798308Y-71750500D01*
X150865347Y-71770185D01*
X150899880Y-71803374D01*
X150913615Y-71822989D01*
X151029954Y-71989141D01*
X151190858Y-72150045D01*
X151190861Y-72150047D01*
X151377266Y-72280568D01*
X151583504Y-72376739D01*
X151803308Y-72435635D01*
X151965230Y-72449801D01*
X152029998Y-72455468D01*
X152030000Y-72455468D01*
X152030002Y-72455468D01*
X152086673Y-72450509D01*
X152256692Y-72435635D01*
X152476496Y-72376739D01*
X152682734Y-72280568D01*
X152869139Y-72150047D01*
X153030047Y-71989139D01*
X153160568Y-71802734D01*
X153256739Y-71596496D01*
X153315635Y-71376692D01*
X153335468Y-71150000D01*
X153315635Y-70923308D01*
X153256739Y-70703504D01*
X153160568Y-70497266D01*
X153030047Y-70310861D01*
X153030045Y-70310858D01*
X152869141Y-70149954D01*
X152682734Y-70019432D01*
X152682732Y-70019431D01*
X152476497Y-69923261D01*
X152476488Y-69923258D01*
X152256697Y-69864366D01*
X152256693Y-69864365D01*
X152256692Y-69864365D01*
X152256691Y-69864364D01*
X152256686Y-69864364D01*
X152030002Y-69844532D01*
X152029998Y-69844532D01*
X151803313Y-69864364D01*
X151803302Y-69864366D01*
X151583511Y-69923258D01*
X151583502Y-69923261D01*
X151377267Y-70019431D01*
X151377265Y-70019432D01*
X151190858Y-70149954D01*
X151029954Y-70310858D01*
X150953450Y-70420118D01*
X150899881Y-70496624D01*
X150845307Y-70540248D01*
X150798308Y-70549500D01*
X146750097Y-70549500D01*
X146683058Y-70529815D01*
X146662416Y-70513181D01*
X144286819Y-68137584D01*
X144253334Y-68076261D01*
X144250500Y-68049903D01*
X144250500Y-67374111D01*
X144270185Y-67307072D01*
X144322989Y-67261317D01*
X144381847Y-67250924D01*
X144381868Y-67250404D01*
X144384264Y-67250498D01*
X144384269Y-67250497D01*
X144384306Y-67250500D01*
X144384314Y-67250500D01*
X144815686Y-67250500D01*
X144815694Y-67250500D01*
X144852569Y-67247598D01*
X144852571Y-67247597D01*
X144852573Y-67247597D01*
X144949502Y-67219436D01*
X145010398Y-67201744D01*
X145011874Y-67200870D01*
X145013183Y-67200538D01*
X145017557Y-67198646D01*
X145017862Y-67199351D01*
X145079597Y-67183685D01*
X145132229Y-67199139D01*
X145132443Y-67198646D01*
X145136441Y-67200376D01*
X145138125Y-67200870D01*
X145139602Y-67201744D01*
X145181224Y-67213836D01*
X145297426Y-67247597D01*
X145297429Y-67247597D01*
X145297431Y-67247598D01*
X145334306Y-67250500D01*
X145334314Y-67250500D01*
X145765686Y-67250500D01*
X145765694Y-67250500D01*
X145802569Y-67247598D01*
X145802571Y-67247597D01*
X145802573Y-67247597D01*
X145899502Y-67219436D01*
X145960398Y-67201744D01*
X146101865Y-67118081D01*
X146218081Y-67001865D01*
X146301744Y-66860398D01*
X146307697Y-66839906D01*
X146345303Y-66781020D01*
X146408775Y-66751813D01*
X146426774Y-66750500D01*
X153729903Y-66750500D01*
X153796942Y-66770185D01*
G37*
%TD.AperFunction*%
%TA.AperFunction,NonConductor*%
G36*
X139465354Y-79720035D02*
G01*
X139500768Y-79780264D01*
X139504500Y-79810455D01*
X139504500Y-80430001D01*
X139504501Y-80430018D01*
X139515000Y-80532796D01*
X139515001Y-80532799D01*
X139556246Y-80657265D01*
X139570186Y-80699334D01*
X139662288Y-80848656D01*
X139786344Y-80972712D01*
X139920597Y-81055519D01*
X139967321Y-81107465D01*
X139979500Y-81161057D01*
X139979500Y-81399902D01*
X139959815Y-81466941D01*
X139943181Y-81487583D01*
X139739428Y-81691335D01*
X139678105Y-81724820D01*
X139608413Y-81719836D01*
X139552480Y-81677964D01*
X139528063Y-81612500D01*
X139528218Y-81592857D01*
X139535468Y-81510000D01*
X139515635Y-81283308D01*
X139462047Y-81083313D01*
X139456741Y-81063511D01*
X139456738Y-81063502D01*
X139453015Y-81055518D01*
X139360568Y-80857266D01*
X139230047Y-80670861D01*
X139230045Y-80670858D01*
X139069141Y-80509954D01*
X138882734Y-80379432D01*
X138882728Y-80379429D01*
X138824725Y-80352382D01*
X138772285Y-80306210D01*
X138753133Y-80239017D01*
X138773348Y-80172135D01*
X138824725Y-80127618D01*
X138882734Y-80100568D01*
X139069139Y-79970047D01*
X139230047Y-79809139D01*
X139278926Y-79739330D01*
X139333500Y-79695707D01*
X139402998Y-79688513D01*
X139465354Y-79720035D01*
G37*
%TD.AperFunction*%
M02*
