%TF.GenerationSoftware,KiCad,Pcbnew,8.0.4*%
%TF.CreationDate,2024-09-08T08:45:51+02:00*%
%TF.ProjectId,Lichtschranke-M,4c696368-7473-4636-9872-616e6b652d4d,rev?*%
%TF.SameCoordinates,Original*%
%TF.FileFunction,Legend,Bot*%
%TF.FilePolarity,Positive*%
%FSLAX46Y46*%
G04 Gerber Fmt 4.6, Leading zero omitted, Abs format (unit mm)*
G04 Created by KiCad (PCBNEW 8.0.4) date 2024-09-08 08:45:51*
%MOMM*%
%LPD*%
G01*
G04 APERTURE LIST*
%ADD10C,0.200000*%
G04 APERTURE END LIST*
D10*
X154104136Y-95537275D02*
X154580326Y-95537275D01*
X154580326Y-95537275D02*
X154580326Y-94537275D01*
X153770802Y-95537275D02*
X153770802Y-94870608D01*
X153770802Y-94537275D02*
X153818421Y-94584894D01*
X153818421Y-94584894D02*
X153770802Y-94632513D01*
X153770802Y-94632513D02*
X153723183Y-94584894D01*
X153723183Y-94584894D02*
X153770802Y-94537275D01*
X153770802Y-94537275D02*
X153770802Y-94632513D01*
X152866041Y-95489656D02*
X152961279Y-95537275D01*
X152961279Y-95537275D02*
X153151755Y-95537275D01*
X153151755Y-95537275D02*
X153246993Y-95489656D01*
X153246993Y-95489656D02*
X153294612Y-95442036D01*
X153294612Y-95442036D02*
X153342231Y-95346798D01*
X153342231Y-95346798D02*
X153342231Y-95061084D01*
X153342231Y-95061084D02*
X153294612Y-94965846D01*
X153294612Y-94965846D02*
X153246993Y-94918227D01*
X153246993Y-94918227D02*
X153151755Y-94870608D01*
X153151755Y-94870608D02*
X152961279Y-94870608D01*
X152961279Y-94870608D02*
X152866041Y-94918227D01*
X152437469Y-95537275D02*
X152437469Y-94537275D01*
X152008898Y-95537275D02*
X152008898Y-95013465D01*
X152008898Y-95013465D02*
X152056517Y-94918227D01*
X152056517Y-94918227D02*
X152151755Y-94870608D01*
X152151755Y-94870608D02*
X152294612Y-94870608D01*
X152294612Y-94870608D02*
X152389850Y-94918227D01*
X152389850Y-94918227D02*
X152437469Y-94965846D01*
X151675564Y-94870608D02*
X151294612Y-94870608D01*
X151532707Y-94537275D02*
X151532707Y-95394417D01*
X151532707Y-95394417D02*
X151485088Y-95489656D01*
X151485088Y-95489656D02*
X151389850Y-95537275D01*
X151389850Y-95537275D02*
X151294612Y-95537275D01*
X151008897Y-95489656D02*
X150913659Y-95537275D01*
X150913659Y-95537275D02*
X150723183Y-95537275D01*
X150723183Y-95537275D02*
X150627945Y-95489656D01*
X150627945Y-95489656D02*
X150580326Y-95394417D01*
X150580326Y-95394417D02*
X150580326Y-95346798D01*
X150580326Y-95346798D02*
X150627945Y-95251560D01*
X150627945Y-95251560D02*
X150723183Y-95203941D01*
X150723183Y-95203941D02*
X150866040Y-95203941D01*
X150866040Y-95203941D02*
X150961278Y-95156322D01*
X150961278Y-95156322D02*
X151008897Y-95061084D01*
X151008897Y-95061084D02*
X151008897Y-95013465D01*
X151008897Y-95013465D02*
X150961278Y-94918227D01*
X150961278Y-94918227D02*
X150866040Y-94870608D01*
X150866040Y-94870608D02*
X150723183Y-94870608D01*
X150723183Y-94870608D02*
X150627945Y-94918227D01*
X149723183Y-95489656D02*
X149818421Y-95537275D01*
X149818421Y-95537275D02*
X150008897Y-95537275D01*
X150008897Y-95537275D02*
X150104135Y-95489656D01*
X150104135Y-95489656D02*
X150151754Y-95442036D01*
X150151754Y-95442036D02*
X150199373Y-95346798D01*
X150199373Y-95346798D02*
X150199373Y-95061084D01*
X150199373Y-95061084D02*
X150151754Y-94965846D01*
X150151754Y-94965846D02*
X150104135Y-94918227D01*
X150104135Y-94918227D02*
X150008897Y-94870608D01*
X150008897Y-94870608D02*
X149818421Y-94870608D01*
X149818421Y-94870608D02*
X149723183Y-94918227D01*
X149294611Y-95537275D02*
X149294611Y-94537275D01*
X148866040Y-95537275D02*
X148866040Y-95013465D01*
X148866040Y-95013465D02*
X148913659Y-94918227D01*
X148913659Y-94918227D02*
X149008897Y-94870608D01*
X149008897Y-94870608D02*
X149151754Y-94870608D01*
X149151754Y-94870608D02*
X149246992Y-94918227D01*
X149246992Y-94918227D02*
X149294611Y-94965846D01*
X148389849Y-95537275D02*
X148389849Y-94870608D01*
X148389849Y-95061084D02*
X148342230Y-94965846D01*
X148342230Y-94965846D02*
X148294611Y-94918227D01*
X148294611Y-94918227D02*
X148199373Y-94870608D01*
X148199373Y-94870608D02*
X148104135Y-94870608D01*
X147342230Y-95537275D02*
X147342230Y-95013465D01*
X147342230Y-95013465D02*
X147389849Y-94918227D01*
X147389849Y-94918227D02*
X147485087Y-94870608D01*
X147485087Y-94870608D02*
X147675563Y-94870608D01*
X147675563Y-94870608D02*
X147770801Y-94918227D01*
X147342230Y-95489656D02*
X147437468Y-95537275D01*
X147437468Y-95537275D02*
X147675563Y-95537275D01*
X147675563Y-95537275D02*
X147770801Y-95489656D01*
X147770801Y-95489656D02*
X147818420Y-95394417D01*
X147818420Y-95394417D02*
X147818420Y-95299179D01*
X147818420Y-95299179D02*
X147770801Y-95203941D01*
X147770801Y-95203941D02*
X147675563Y-95156322D01*
X147675563Y-95156322D02*
X147437468Y-95156322D01*
X147437468Y-95156322D02*
X147342230Y-95108703D01*
X146866039Y-94870608D02*
X146866039Y-95537275D01*
X146866039Y-94965846D02*
X146818420Y-94918227D01*
X146818420Y-94918227D02*
X146723182Y-94870608D01*
X146723182Y-94870608D02*
X146580325Y-94870608D01*
X146580325Y-94870608D02*
X146485087Y-94918227D01*
X146485087Y-94918227D02*
X146437468Y-95013465D01*
X146437468Y-95013465D02*
X146437468Y-95537275D01*
X145961277Y-95537275D02*
X145961277Y-94537275D01*
X145866039Y-95156322D02*
X145580325Y-95537275D01*
X145580325Y-94870608D02*
X145961277Y-95251560D01*
X144770801Y-95489656D02*
X144866039Y-95537275D01*
X144866039Y-95537275D02*
X145056515Y-95537275D01*
X145056515Y-95537275D02*
X145151753Y-95489656D01*
X145151753Y-95489656D02*
X145199372Y-95394417D01*
X145199372Y-95394417D02*
X145199372Y-95013465D01*
X145199372Y-95013465D02*
X145151753Y-94918227D01*
X145151753Y-94918227D02*
X145056515Y-94870608D01*
X145056515Y-94870608D02*
X144866039Y-94870608D01*
X144866039Y-94870608D02*
X144770801Y-94918227D01*
X144770801Y-94918227D02*
X144723182Y-95013465D01*
X144723182Y-95013465D02*
X144723182Y-95108703D01*
X144723182Y-95108703D02*
X145199372Y-95203941D01*
X144294610Y-94870608D02*
X144294610Y-95537275D01*
X144294610Y-94965846D02*
X144246991Y-94918227D01*
X144246991Y-94918227D02*
X144151753Y-94870608D01*
X144151753Y-94870608D02*
X144008896Y-94870608D01*
X144008896Y-94870608D02*
X143913658Y-94918227D01*
X143913658Y-94918227D02*
X143866039Y-95013465D01*
X143866039Y-95013465D02*
X143866039Y-95537275D01*
X143389848Y-95156322D02*
X142627944Y-95156322D01*
X142199372Y-95251560D02*
X141723182Y-95251560D01*
X142294610Y-95537275D02*
X141961277Y-94537275D01*
X141961277Y-94537275D02*
X141627944Y-95537275D01*
X140866039Y-95537275D02*
X140866039Y-94537275D01*
X140866039Y-95489656D02*
X140961277Y-95537275D01*
X140961277Y-95537275D02*
X141151753Y-95537275D01*
X141151753Y-95537275D02*
X141246991Y-95489656D01*
X141246991Y-95489656D02*
X141294610Y-95442036D01*
X141294610Y-95442036D02*
X141342229Y-95346798D01*
X141342229Y-95346798D02*
X141342229Y-95061084D01*
X141342229Y-95061084D02*
X141294610Y-94965846D01*
X141294610Y-94965846D02*
X141246991Y-94918227D01*
X141246991Y-94918227D02*
X141151753Y-94870608D01*
X141151753Y-94870608D02*
X140961277Y-94870608D01*
X140961277Y-94870608D02*
X140866039Y-94918227D01*
X139961277Y-95537275D02*
X139961277Y-95013465D01*
X139961277Y-95013465D02*
X140008896Y-94918227D01*
X140008896Y-94918227D02*
X140104134Y-94870608D01*
X140104134Y-94870608D02*
X140294610Y-94870608D01*
X140294610Y-94870608D02*
X140389848Y-94918227D01*
X139961277Y-95489656D02*
X140056515Y-95537275D01*
X140056515Y-95537275D02*
X140294610Y-95537275D01*
X140294610Y-95537275D02*
X140389848Y-95489656D01*
X140389848Y-95489656D02*
X140437467Y-95394417D01*
X140437467Y-95394417D02*
X140437467Y-95299179D01*
X140437467Y-95299179D02*
X140389848Y-95203941D01*
X140389848Y-95203941D02*
X140294610Y-95156322D01*
X140294610Y-95156322D02*
X140056515Y-95156322D01*
X140056515Y-95156322D02*
X139961277Y-95108703D01*
X139485086Y-94870608D02*
X139485086Y-95870608D01*
X139485086Y-94918227D02*
X139389848Y-94870608D01*
X139389848Y-94870608D02*
X139199372Y-94870608D01*
X139199372Y-94870608D02*
X139104134Y-94918227D01*
X139104134Y-94918227D02*
X139056515Y-94965846D01*
X139056515Y-94965846D02*
X139008896Y-95061084D01*
X139008896Y-95061084D02*
X139008896Y-95346798D01*
X139008896Y-95346798D02*
X139056515Y-95442036D01*
X139056515Y-95442036D02*
X139104134Y-95489656D01*
X139104134Y-95489656D02*
X139199372Y-95537275D01*
X139199372Y-95537275D02*
X139389848Y-95537275D01*
X139389848Y-95537275D02*
X139485086Y-95489656D01*
X138723181Y-94870608D02*
X138342229Y-94870608D01*
X138580324Y-94537275D02*
X138580324Y-95394417D01*
X138580324Y-95394417D02*
X138532705Y-95489656D01*
X138532705Y-95489656D02*
X138437467Y-95537275D01*
X138437467Y-95537275D02*
X138342229Y-95537275D01*
X137627943Y-95489656D02*
X137723181Y-95537275D01*
X137723181Y-95537275D02*
X137913657Y-95537275D01*
X137913657Y-95537275D02*
X138008895Y-95489656D01*
X138008895Y-95489656D02*
X138056514Y-95394417D01*
X138056514Y-95394417D02*
X138056514Y-95013465D01*
X138056514Y-95013465D02*
X138008895Y-94918227D01*
X138008895Y-94918227D02*
X137913657Y-94870608D01*
X137913657Y-94870608D02*
X137723181Y-94870608D01*
X137723181Y-94870608D02*
X137627943Y-94918227D01*
X137627943Y-94918227D02*
X137580324Y-95013465D01*
X137580324Y-95013465D02*
X137580324Y-95108703D01*
X137580324Y-95108703D02*
X138056514Y-95203941D01*
X137151752Y-95537275D02*
X137151752Y-94870608D01*
X137151752Y-95061084D02*
X137104133Y-94965846D01*
X137104133Y-94965846D02*
X137056514Y-94918227D01*
X137056514Y-94918227D02*
X136961276Y-94870608D01*
X136961276Y-94870608D02*
X136866038Y-94870608D01*
X135770799Y-95537275D02*
X135770799Y-94537275D01*
X135770799Y-94537275D02*
X135437466Y-95251560D01*
X135437466Y-95251560D02*
X135104133Y-94537275D01*
X135104133Y-94537275D02*
X135104133Y-95537275D01*
X154580326Y-97147219D02*
X154580326Y-96480552D01*
X154580326Y-96671028D02*
X154532707Y-96575790D01*
X154532707Y-96575790D02*
X154485088Y-96528171D01*
X154485088Y-96528171D02*
X154389850Y-96480552D01*
X154389850Y-96480552D02*
X154294612Y-96480552D01*
X153580326Y-97099600D02*
X153675564Y-97147219D01*
X153675564Y-97147219D02*
X153866040Y-97147219D01*
X153866040Y-97147219D02*
X153961278Y-97099600D01*
X153961278Y-97099600D02*
X154008897Y-97004361D01*
X154008897Y-97004361D02*
X154008897Y-96623409D01*
X154008897Y-96623409D02*
X153961278Y-96528171D01*
X153961278Y-96528171D02*
X153866040Y-96480552D01*
X153866040Y-96480552D02*
X153675564Y-96480552D01*
X153675564Y-96480552D02*
X153580326Y-96528171D01*
X153580326Y-96528171D02*
X153532707Y-96623409D01*
X153532707Y-96623409D02*
X153532707Y-96718647D01*
X153532707Y-96718647D02*
X154008897Y-96813885D01*
X152675564Y-97099600D02*
X152770802Y-97147219D01*
X152770802Y-97147219D02*
X152961278Y-97147219D01*
X152961278Y-97147219D02*
X153056516Y-97099600D01*
X153056516Y-97099600D02*
X153104135Y-97051980D01*
X153104135Y-97051980D02*
X153151754Y-96956742D01*
X153151754Y-96956742D02*
X153151754Y-96671028D01*
X153151754Y-96671028D02*
X153104135Y-96575790D01*
X153104135Y-96575790D02*
X153056516Y-96528171D01*
X153056516Y-96528171D02*
X152961278Y-96480552D01*
X152961278Y-96480552D02*
X152770802Y-96480552D01*
X152770802Y-96480552D02*
X152675564Y-96528171D01*
X151818421Y-97147219D02*
X151818421Y-96623409D01*
X151818421Y-96623409D02*
X151866040Y-96528171D01*
X151866040Y-96528171D02*
X151961278Y-96480552D01*
X151961278Y-96480552D02*
X152151754Y-96480552D01*
X152151754Y-96480552D02*
X152246992Y-96528171D01*
X151818421Y-97099600D02*
X151913659Y-97147219D01*
X151913659Y-97147219D02*
X152151754Y-97147219D01*
X152151754Y-97147219D02*
X152246992Y-97099600D01*
X152246992Y-97099600D02*
X152294611Y-97004361D01*
X152294611Y-97004361D02*
X152294611Y-96909123D01*
X152294611Y-96909123D02*
X152246992Y-96813885D01*
X152246992Y-96813885D02*
X152151754Y-96766266D01*
X152151754Y-96766266D02*
X151913659Y-96766266D01*
X151913659Y-96766266D02*
X151818421Y-96718647D01*
X151389849Y-97099600D02*
X151294611Y-97147219D01*
X151294611Y-97147219D02*
X151104135Y-97147219D01*
X151104135Y-97147219D02*
X151008897Y-97099600D01*
X151008897Y-97099600D02*
X150961278Y-97004361D01*
X150961278Y-97004361D02*
X150961278Y-96956742D01*
X150961278Y-96956742D02*
X151008897Y-96861504D01*
X151008897Y-96861504D02*
X151104135Y-96813885D01*
X151104135Y-96813885D02*
X151246992Y-96813885D01*
X151246992Y-96813885D02*
X151342230Y-96766266D01*
X151342230Y-96766266D02*
X151389849Y-96671028D01*
X151389849Y-96671028D02*
X151389849Y-96623409D01*
X151389849Y-96623409D02*
X151342230Y-96528171D01*
X151342230Y-96528171D02*
X151246992Y-96480552D01*
X151246992Y-96480552D02*
X151104135Y-96480552D01*
X151104135Y-96480552D02*
X151008897Y-96528171D01*
X150580325Y-97099600D02*
X150485087Y-97147219D01*
X150485087Y-97147219D02*
X150294611Y-97147219D01*
X150294611Y-97147219D02*
X150199373Y-97099600D01*
X150199373Y-97099600D02*
X150151754Y-97004361D01*
X150151754Y-97004361D02*
X150151754Y-96956742D01*
X150151754Y-96956742D02*
X150199373Y-96861504D01*
X150199373Y-96861504D02*
X150294611Y-96813885D01*
X150294611Y-96813885D02*
X150437468Y-96813885D01*
X150437468Y-96813885D02*
X150532706Y-96766266D01*
X150532706Y-96766266D02*
X150580325Y-96671028D01*
X150580325Y-96671028D02*
X150580325Y-96623409D01*
X150580325Y-96623409D02*
X150532706Y-96528171D01*
X150532706Y-96528171D02*
X150437468Y-96480552D01*
X150437468Y-96480552D02*
X150294611Y-96480552D01*
X150294611Y-96480552D02*
X150199373Y-96528171D01*
X149818420Y-96480552D02*
X149580325Y-97147219D01*
X149342230Y-96480552D02*
X149580325Y-97147219D01*
X149580325Y-97147219D02*
X149675563Y-97385314D01*
X149675563Y-97385314D02*
X149723182Y-97432933D01*
X149723182Y-97432933D02*
X149818420Y-97480552D01*
X148961277Y-97051980D02*
X148913658Y-97099600D01*
X148913658Y-97099600D02*
X148961277Y-97147219D01*
X148961277Y-97147219D02*
X149008896Y-97099600D01*
X149008896Y-97099600D02*
X148961277Y-97051980D01*
X148961277Y-97051980D02*
X148961277Y-97147219D01*
X148056516Y-96480552D02*
X148056516Y-97290076D01*
X148056516Y-97290076D02*
X148104135Y-97385314D01*
X148104135Y-97385314D02*
X148151754Y-97432933D01*
X148151754Y-97432933D02*
X148246992Y-97480552D01*
X148246992Y-97480552D02*
X148389849Y-97480552D01*
X148389849Y-97480552D02*
X148485087Y-97432933D01*
X148056516Y-97099600D02*
X148151754Y-97147219D01*
X148151754Y-97147219D02*
X148342230Y-97147219D01*
X148342230Y-97147219D02*
X148437468Y-97099600D01*
X148437468Y-97099600D02*
X148485087Y-97051980D01*
X148485087Y-97051980D02*
X148532706Y-96956742D01*
X148532706Y-96956742D02*
X148532706Y-96671028D01*
X148532706Y-96671028D02*
X148485087Y-96575790D01*
X148485087Y-96575790D02*
X148437468Y-96528171D01*
X148437468Y-96528171D02*
X148342230Y-96480552D01*
X148342230Y-96480552D02*
X148151754Y-96480552D01*
X148151754Y-96480552D02*
X148056516Y-96528171D01*
X147580325Y-97147219D02*
X147580325Y-96480552D01*
X147580325Y-96147219D02*
X147627944Y-96194838D01*
X147627944Y-96194838D02*
X147580325Y-96242457D01*
X147580325Y-96242457D02*
X147532706Y-96194838D01*
X147532706Y-96194838D02*
X147580325Y-96147219D01*
X147580325Y-96147219D02*
X147580325Y-96242457D01*
X147246992Y-96480552D02*
X146866040Y-96480552D01*
X147104135Y-96147219D02*
X147104135Y-97004361D01*
X147104135Y-97004361D02*
X147056516Y-97099600D01*
X147056516Y-97099600D02*
X146961278Y-97147219D01*
X146961278Y-97147219D02*
X146866040Y-97147219D01*
X146532706Y-97147219D02*
X146532706Y-96147219D01*
X146104135Y-97147219D02*
X146104135Y-96623409D01*
X146104135Y-96623409D02*
X146151754Y-96528171D01*
X146151754Y-96528171D02*
X146246992Y-96480552D01*
X146246992Y-96480552D02*
X146389849Y-96480552D01*
X146389849Y-96480552D02*
X146485087Y-96528171D01*
X146485087Y-96528171D02*
X146532706Y-96575790D01*
X145199373Y-96480552D02*
X145199373Y-97147219D01*
X145627944Y-96480552D02*
X145627944Y-97004361D01*
X145627944Y-97004361D02*
X145580325Y-97099600D01*
X145580325Y-97099600D02*
X145485087Y-97147219D01*
X145485087Y-97147219D02*
X145342230Y-97147219D01*
X145342230Y-97147219D02*
X145246992Y-97099600D01*
X145246992Y-97099600D02*
X145199373Y-97051980D01*
X144723182Y-97147219D02*
X144723182Y-96147219D01*
X144723182Y-96528171D02*
X144627944Y-96480552D01*
X144627944Y-96480552D02*
X144437468Y-96480552D01*
X144437468Y-96480552D02*
X144342230Y-96528171D01*
X144342230Y-96528171D02*
X144294611Y-96575790D01*
X144294611Y-96575790D02*
X144246992Y-96671028D01*
X144246992Y-96671028D02*
X144246992Y-96956742D01*
X144246992Y-96956742D02*
X144294611Y-97051980D01*
X144294611Y-97051980D02*
X144342230Y-97099600D01*
X144342230Y-97099600D02*
X144437468Y-97147219D01*
X144437468Y-97147219D02*
X144627944Y-97147219D01*
X144627944Y-97147219D02*
X144723182Y-97099600D01*
X143818420Y-97051980D02*
X143770801Y-97099600D01*
X143770801Y-97099600D02*
X143818420Y-97147219D01*
X143818420Y-97147219D02*
X143866039Y-97099600D01*
X143866039Y-97099600D02*
X143818420Y-97051980D01*
X143818420Y-97051980D02*
X143818420Y-97147219D01*
X143342230Y-97147219D02*
X143342230Y-96480552D01*
X143342230Y-96147219D02*
X143389849Y-96194838D01*
X143389849Y-96194838D02*
X143342230Y-96242457D01*
X143342230Y-96242457D02*
X143294611Y-96194838D01*
X143294611Y-96194838D02*
X143342230Y-96147219D01*
X143342230Y-96147219D02*
X143342230Y-96242457D01*
X142723183Y-97147219D02*
X142818421Y-97099600D01*
X142818421Y-97099600D02*
X142866040Y-97051980D01*
X142866040Y-97051980D02*
X142913659Y-96956742D01*
X142913659Y-96956742D02*
X142913659Y-96671028D01*
X142913659Y-96671028D02*
X142866040Y-96575790D01*
X142866040Y-96575790D02*
X142818421Y-96528171D01*
X142818421Y-96528171D02*
X142723183Y-96480552D01*
X142723183Y-96480552D02*
X142580326Y-96480552D01*
X142580326Y-96480552D02*
X142485088Y-96528171D01*
X142485088Y-96528171D02*
X142437469Y-96575790D01*
X142437469Y-96575790D02*
X142389850Y-96671028D01*
X142389850Y-96671028D02*
X142389850Y-96956742D01*
X142389850Y-96956742D02*
X142437469Y-97051980D01*
X142437469Y-97051980D02*
X142485088Y-97099600D01*
X142485088Y-97099600D02*
X142580326Y-97147219D01*
X142580326Y-97147219D02*
X142723183Y-97147219D01*
X140913659Y-97528171D02*
X140961278Y-97480552D01*
X140961278Y-97480552D02*
X141056516Y-97337695D01*
X141056516Y-97337695D02*
X141104135Y-97242457D01*
X141104135Y-97242457D02*
X141151754Y-97099600D01*
X141151754Y-97099600D02*
X141199373Y-96861504D01*
X141199373Y-96861504D02*
X141199373Y-96671028D01*
X141199373Y-96671028D02*
X141151754Y-96432933D01*
X141151754Y-96432933D02*
X141104135Y-96290076D01*
X141104135Y-96290076D02*
X141056516Y-96194838D01*
X141056516Y-96194838D02*
X140961278Y-96051980D01*
X140961278Y-96051980D02*
X140913659Y-96004361D01*
X140104135Y-97099600D02*
X140199373Y-97147219D01*
X140199373Y-97147219D02*
X140389849Y-97147219D01*
X140389849Y-97147219D02*
X140485087Y-97099600D01*
X140485087Y-97099600D02*
X140532706Y-97051980D01*
X140532706Y-97051980D02*
X140580325Y-96956742D01*
X140580325Y-96956742D02*
X140580325Y-96671028D01*
X140580325Y-96671028D02*
X140532706Y-96575790D01*
X140532706Y-96575790D02*
X140485087Y-96528171D01*
X140485087Y-96528171D02*
X140389849Y-96480552D01*
X140389849Y-96480552D02*
X140199373Y-96480552D01*
X140199373Y-96480552D02*
X140104135Y-96528171D01*
X139770801Y-97528171D02*
X139723182Y-97480552D01*
X139723182Y-97480552D02*
X139627944Y-97337695D01*
X139627944Y-97337695D02*
X139580325Y-97242457D01*
X139580325Y-97242457D02*
X139532706Y-97099600D01*
X139532706Y-97099600D02*
X139485087Y-96861504D01*
X139485087Y-96861504D02*
X139485087Y-96671028D01*
X139485087Y-96671028D02*
X139532706Y-96432933D01*
X139532706Y-96432933D02*
X139580325Y-96290076D01*
X139580325Y-96290076D02*
X139627944Y-96194838D01*
X139627944Y-96194838D02*
X139723182Y-96051980D01*
X139723182Y-96051980D02*
X139770801Y-96004361D01*
X138294610Y-96242457D02*
X138246991Y-96194838D01*
X138246991Y-96194838D02*
X138151753Y-96147219D01*
X138151753Y-96147219D02*
X137913658Y-96147219D01*
X137913658Y-96147219D02*
X137818420Y-96194838D01*
X137818420Y-96194838D02*
X137770801Y-96242457D01*
X137770801Y-96242457D02*
X137723182Y-96337695D01*
X137723182Y-96337695D02*
X137723182Y-96432933D01*
X137723182Y-96432933D02*
X137770801Y-96575790D01*
X137770801Y-96575790D02*
X138342229Y-97147219D01*
X138342229Y-97147219D02*
X137723182Y-97147219D01*
X137104134Y-96147219D02*
X137008896Y-96147219D01*
X137008896Y-96147219D02*
X136913658Y-96194838D01*
X136913658Y-96194838D02*
X136866039Y-96242457D01*
X136866039Y-96242457D02*
X136818420Y-96337695D01*
X136818420Y-96337695D02*
X136770801Y-96528171D01*
X136770801Y-96528171D02*
X136770801Y-96766266D01*
X136770801Y-96766266D02*
X136818420Y-96956742D01*
X136818420Y-96956742D02*
X136866039Y-97051980D01*
X136866039Y-97051980D02*
X136913658Y-97099600D01*
X136913658Y-97099600D02*
X137008896Y-97147219D01*
X137008896Y-97147219D02*
X137104134Y-97147219D01*
X137104134Y-97147219D02*
X137199372Y-97099600D01*
X137199372Y-97099600D02*
X137246991Y-97051980D01*
X137246991Y-97051980D02*
X137294610Y-96956742D01*
X137294610Y-96956742D02*
X137342229Y-96766266D01*
X137342229Y-96766266D02*
X137342229Y-96528171D01*
X137342229Y-96528171D02*
X137294610Y-96337695D01*
X137294610Y-96337695D02*
X137246991Y-96242457D01*
X137246991Y-96242457D02*
X137199372Y-96194838D01*
X137199372Y-96194838D02*
X137104134Y-96147219D01*
X136389848Y-96242457D02*
X136342229Y-96194838D01*
X136342229Y-96194838D02*
X136246991Y-96147219D01*
X136246991Y-96147219D02*
X136008896Y-96147219D01*
X136008896Y-96147219D02*
X135913658Y-96194838D01*
X135913658Y-96194838D02*
X135866039Y-96242457D01*
X135866039Y-96242457D02*
X135818420Y-96337695D01*
X135818420Y-96337695D02*
X135818420Y-96432933D01*
X135818420Y-96432933D02*
X135866039Y-96575790D01*
X135866039Y-96575790D02*
X136437467Y-97147219D01*
X136437467Y-97147219D02*
X135818420Y-97147219D01*
X134961277Y-96480552D02*
X134961277Y-97147219D01*
X135199372Y-96099600D02*
X135437467Y-96813885D01*
X135437467Y-96813885D02*
X134818420Y-96813885D01*
M02*
