%TF.GenerationSoftware,KiCad,Pcbnew,8.0.4*%
%TF.CreationDate,2024-09-08T08:45:51+02:00*%
%TF.ProjectId,Lichtschranke-M,4c696368-7473-4636-9872-616e6b652d4d,rev?*%
%TF.SameCoordinates,Original*%
%TF.FileFunction,Copper,L2,Bot*%
%TF.FilePolarity,Positive*%
%FSLAX46Y46*%
G04 Gerber Fmt 4.6, Leading zero omitted, Abs format (unit mm)*
G04 Created by KiCad (PCBNEW 8.0.4) date 2024-09-08 08:45:51*
%MOMM*%
%LPD*%
G01*
G04 APERTURE LIST*
%TA.AperFunction,ComponentPad*%
%ADD10R,1.600000X1.600000*%
%TD*%
%TA.AperFunction,ComponentPad*%
%ADD11C,1.600000*%
%TD*%
%TA.AperFunction,ComponentPad*%
%ADD12O,2.000000X3.500000*%
%TD*%
%TA.AperFunction,ComponentPad*%
%ADD13O,4.000000X2.000000*%
%TD*%
%TA.AperFunction,ComponentPad*%
%ADD14O,1.600000X1.600000*%
%TD*%
%TA.AperFunction,ComponentPad*%
%ADD15R,1.200000X1.200000*%
%TD*%
%TA.AperFunction,ComponentPad*%
%ADD16C,1.200000*%
%TD*%
%TA.AperFunction,ComponentPad*%
%ADD17C,7.000000*%
%TD*%
%TA.AperFunction,Conductor*%
%ADD18C,0.500000*%
%TD*%
%TA.AperFunction,Conductor*%
%ADD19C,0.200000*%
%TD*%
G04 APERTURE END LIST*
D10*
%TO.P,J1,1*%
%TO.N,SDA*%
X143500000Y-55500000D03*
D11*
%TO.P,J1,2*%
%TO.N,E*%
X146100000Y-55500000D03*
%TO.P,J1,3*%
%TO.N,GND*%
X141400000Y-55500000D03*
%TO.P,J1,4*%
%TO.N,+5V*%
X148200000Y-55500000D03*
%TO.P,J1,5*%
%TO.N,SCK*%
X141400000Y-58300000D03*
%TO.P,J1,6*%
%TO.N,F*%
X148200000Y-58300000D03*
D12*
%TO.P,J1,7*%
%TO.N,N/C*%
X151650000Y-52650000D03*
D13*
X144800000Y-51850000D03*
D12*
X137950000Y-52650000D03*
%TD*%
D11*
%TO.P,R1,1*%
%TO.N,+5V*%
X152030000Y-81310000D03*
D14*
%TO.P,R1,2*%
%TO.N,Net-(U1-PB2)*%
X152030000Y-71150000D03*
%TD*%
D15*
%TO.P,C2,1*%
%TO.N,+5V*%
X156520000Y-87730000D03*
D16*
%TO.P,C2,2*%
%TO.N,GND*%
X154520000Y-87730000D03*
%TD*%
D17*
%TO.P,J3,1,Pin_1*%
%TO.N,F*%
X132000000Y-89500000D03*
%TD*%
D11*
%TO.P,R2,1*%
%TO.N,+5V*%
X159030000Y-81310000D03*
D14*
%TO.P,R2,2*%
%TO.N,Net-(U1-AREF{slash}PB0)*%
X159030000Y-71150000D03*
%TD*%
D17*
%TO.P,J5,1,Pin_1*%
%TO.N,+5V*%
X158200000Y-103900000D03*
%TD*%
%TO.P,J2,1,Pin_1*%
%TO.N,E*%
X132000000Y-70500000D03*
%TD*%
%TO.P,J4,1,Pin_1*%
%TO.N,GND*%
X142570000Y-104050000D03*
%TD*%
D10*
%TO.P,U1,1,~{RESET}/PB5*%
%TO.N,unconnected-(U1-~{RESET}{slash}PB5-Pad1)*%
X138230000Y-76430000D03*
D14*
%TO.P,U1,2,XTAL1/PB3*%
%TO.N,unconnected-(U1-XTAL1{slash}PB3-Pad2)*%
X138230000Y-78970000D03*
%TO.P,U1,3,XTAL2/PB4*%
%TO.N,unconnected-(U1-XTAL2{slash}PB4-Pad3)*%
X138230000Y-81510000D03*
%TO.P,U1,4,GND*%
%TO.N,GND*%
X138230000Y-84050000D03*
%TO.P,U1,5,AREF/PB0*%
%TO.N,Net-(U1-AREF{slash}PB0)*%
X145850000Y-84050000D03*
%TO.P,U1,6,PB1*%
%TO.N,unconnected-(U1-PB1-Pad6)*%
X145850000Y-81510000D03*
%TO.P,U1,7,PB2*%
%TO.N,Net-(U1-PB2)*%
X145850000Y-78970000D03*
%TO.P,U1,8,VCC*%
%TO.N,+5V*%
X145850000Y-76430000D03*
%TD*%
D18*
%TO.N,GND*%
X138230000Y-102030000D02*
X140400000Y-104200000D01*
X129800000Y-55500000D02*
X127900000Y-57400000D01*
X150300000Y-104200000D02*
X154530000Y-99970000D01*
D19*
X138230000Y-98070000D02*
X138200000Y-98100000D01*
D18*
X154530000Y-99970000D02*
X154530000Y-87730000D01*
X142500000Y-104200000D02*
X140400000Y-104200000D01*
X130800000Y-104200000D02*
X127900000Y-101300000D01*
X142500000Y-104200000D02*
X150300000Y-104200000D01*
D19*
X138200000Y-97230000D02*
X138230000Y-97200000D01*
D18*
X138230000Y-84050000D02*
X138230000Y-97500000D01*
D19*
X138200000Y-98100000D02*
X138200000Y-97230000D01*
D18*
X127900000Y-57400000D02*
X127900000Y-101300000D01*
X141400000Y-55500000D02*
X129800000Y-55500000D01*
X138230000Y-97500000D02*
X138230000Y-98070000D01*
X138230000Y-97500000D02*
X138230000Y-102030000D01*
X140400000Y-104200000D02*
X130800000Y-104200000D01*
D19*
%TO.N,+5V*%
X159000000Y-103100000D02*
X158200000Y-103900000D01*
D18*
X161700000Y-87800000D02*
X161700000Y-102600000D01*
X150730000Y-81310000D02*
X145850000Y-76430000D01*
D19*
X156630000Y-81410000D02*
X156730000Y-81310000D01*
X156530000Y-87730000D02*
X156630000Y-87630000D01*
D18*
X159030000Y-81310000D02*
X156730000Y-81310000D01*
D19*
X161630000Y-87730000D02*
X161700000Y-87800000D01*
D18*
X161700000Y-80160000D02*
X161700000Y-79500000D01*
X161700000Y-79500000D02*
X161700000Y-71800000D01*
X161700000Y-102600000D02*
X160400000Y-103900000D01*
X161700000Y-79500000D02*
X161700000Y-87800000D01*
X160550000Y-81310000D02*
X161700000Y-80160000D01*
X156530000Y-87730000D02*
X161630000Y-87730000D01*
X152030000Y-81310000D02*
X150730000Y-81310000D01*
X160400000Y-103900000D02*
X158200000Y-103900000D01*
X159030000Y-81310000D02*
X160550000Y-81310000D01*
X161700000Y-58100000D02*
X161700000Y-72200000D01*
D19*
X161700000Y-72200000D02*
X161700000Y-71800000D01*
D18*
X159100000Y-55500000D02*
X161700000Y-58100000D01*
D19*
X161730000Y-80130000D02*
X161730000Y-79930000D01*
D18*
X148200000Y-55500000D02*
X159100000Y-55500000D01*
X156730000Y-81310000D02*
X152030000Y-81310000D01*
%TO.N,F*%
X148200000Y-62397900D02*
X148200000Y-58300000D01*
X132000000Y-78597900D02*
X148200000Y-62397900D01*
X132000000Y-89500000D02*
X132000000Y-78597900D01*
%TO.N,E*%
X134400000Y-70500000D02*
X146100000Y-58800000D01*
X146100000Y-58800000D02*
X146100000Y-55500000D01*
X132000000Y-70500000D02*
X134400000Y-70500000D01*
D19*
%TO.N,Net-(U1-AREF{slash}PB0)*%
X158750000Y-71150000D02*
X159030000Y-71150000D01*
X159030000Y-70650000D02*
X159030000Y-71150000D01*
X159030000Y-71150000D02*
X159030000Y-71751700D01*
%TD*%
%TA.AperFunction,NonConductor*%
G36*
X143305053Y-50220185D02*
G01*
X143350808Y-50272989D01*
X143360752Y-50342147D01*
X143331727Y-50405703D01*
X143276334Y-50442430D01*
X143253631Y-50449806D01*
X143224003Y-50459433D01*
X143013566Y-50566657D01*
X142944748Y-50616657D01*
X142822490Y-50705483D01*
X142822488Y-50705485D01*
X142822487Y-50705485D01*
X142655485Y-50872487D01*
X142655485Y-50872488D01*
X142655483Y-50872490D01*
X142619158Y-50922487D01*
X142516657Y-51063566D01*
X142409433Y-51274003D01*
X142336446Y-51498631D01*
X142299500Y-51731902D01*
X142299500Y-51968097D01*
X142336446Y-52201368D01*
X142409433Y-52425996D01*
X142516657Y-52636433D01*
X142655483Y-52827510D01*
X142822490Y-52994517D01*
X143013567Y-53133343D01*
X143112991Y-53184002D01*
X143224003Y-53240566D01*
X143224005Y-53240566D01*
X143224008Y-53240568D01*
X143344412Y-53279689D01*
X143448631Y-53313553D01*
X143681903Y-53350500D01*
X143681908Y-53350500D01*
X145918097Y-53350500D01*
X146151368Y-53313553D01*
X146375992Y-53240568D01*
X146586433Y-53133343D01*
X146777510Y-52994517D01*
X146944517Y-52827510D01*
X147083343Y-52636433D01*
X147190568Y-52425992D01*
X147263553Y-52201368D01*
X147300500Y-51968097D01*
X147300500Y-51731902D01*
X147263553Y-51498631D01*
X147190566Y-51274003D01*
X147083342Y-51063566D01*
X146944517Y-50872490D01*
X146777510Y-50705483D01*
X146586433Y-50566657D01*
X146375996Y-50459433D01*
X146355845Y-50452886D01*
X146323665Y-50442430D01*
X146265992Y-50402993D01*
X146238794Y-50338634D01*
X146250709Y-50269788D01*
X146297953Y-50218312D01*
X146361986Y-50200500D01*
X151241896Y-50200500D01*
X151308935Y-50220185D01*
X151354690Y-50272989D01*
X151364634Y-50342147D01*
X151335609Y-50405703D01*
X151280215Y-50442431D01*
X151074003Y-50509433D01*
X150863566Y-50616657D01*
X150754550Y-50695862D01*
X150672490Y-50755483D01*
X150672488Y-50755485D01*
X150672487Y-50755485D01*
X150505485Y-50922487D01*
X150505485Y-50922488D01*
X150505483Y-50922490D01*
X150445862Y-51004550D01*
X150366657Y-51113566D01*
X150259433Y-51324003D01*
X150186446Y-51548631D01*
X150149500Y-51781902D01*
X150149500Y-53518097D01*
X150186446Y-53751368D01*
X150259433Y-53975996D01*
X150366657Y-54186433D01*
X150505483Y-54377510D01*
X150505485Y-54377512D01*
X150665792Y-54537819D01*
X150699277Y-54599142D01*
X150694293Y-54668834D01*
X150652421Y-54724767D01*
X150586957Y-54749184D01*
X150578111Y-54749500D01*
X149326663Y-54749500D01*
X149259624Y-54729815D01*
X149225088Y-54696623D01*
X149200045Y-54660858D01*
X149039141Y-54499954D01*
X148852734Y-54369432D01*
X148852732Y-54369431D01*
X148646497Y-54273261D01*
X148646488Y-54273258D01*
X148426697Y-54214366D01*
X148426693Y-54214365D01*
X148426692Y-54214365D01*
X148426691Y-54214364D01*
X148426686Y-54214364D01*
X148200002Y-54194532D01*
X148199998Y-54194532D01*
X147973313Y-54214364D01*
X147973302Y-54214366D01*
X147753511Y-54273258D01*
X147753502Y-54273261D01*
X147547267Y-54369431D01*
X147547265Y-54369432D01*
X147360858Y-54499954D01*
X147237681Y-54623132D01*
X147176358Y-54656617D01*
X147106666Y-54651633D01*
X147062319Y-54623132D01*
X146939141Y-54499954D01*
X146752734Y-54369432D01*
X146752732Y-54369431D01*
X146546497Y-54273261D01*
X146546488Y-54273258D01*
X146326697Y-54214366D01*
X146326693Y-54214365D01*
X146326692Y-54214365D01*
X146326691Y-54214364D01*
X146326686Y-54214364D01*
X146100002Y-54194532D01*
X146099998Y-54194532D01*
X145873313Y-54214364D01*
X145873302Y-54214366D01*
X145653511Y-54273258D01*
X145653502Y-54273261D01*
X145447267Y-54369431D01*
X145447265Y-54369432D01*
X145260858Y-54499954D01*
X145099954Y-54660858D01*
X145026074Y-54766372D01*
X144971498Y-54809997D01*
X144901999Y-54817191D01*
X144839644Y-54785669D01*
X144804230Y-54725439D01*
X144800499Y-54695249D01*
X144800499Y-54652129D01*
X144800498Y-54652123D01*
X144800445Y-54651633D01*
X144794091Y-54592517D01*
X144776188Y-54544517D01*
X144743797Y-54457671D01*
X144743793Y-54457664D01*
X144657547Y-54342455D01*
X144657544Y-54342452D01*
X144542335Y-54256206D01*
X144542328Y-54256202D01*
X144407482Y-54205908D01*
X144407483Y-54205908D01*
X144347883Y-54199501D01*
X144347881Y-54199500D01*
X144347873Y-54199500D01*
X144347864Y-54199500D01*
X142652129Y-54199500D01*
X142652123Y-54199501D01*
X142592516Y-54205908D01*
X142457671Y-54256202D01*
X142457664Y-54256206D01*
X142342455Y-54342452D01*
X142301555Y-54397087D01*
X142245620Y-54438958D01*
X142175929Y-54443941D01*
X142131166Y-54424350D01*
X142052734Y-54369432D01*
X142052732Y-54369431D01*
X141846497Y-54273261D01*
X141846488Y-54273258D01*
X141626697Y-54214366D01*
X141626693Y-54214365D01*
X141626692Y-54214365D01*
X141626691Y-54214364D01*
X141626686Y-54214364D01*
X141400002Y-54194532D01*
X141399998Y-54194532D01*
X141173313Y-54214364D01*
X141173302Y-54214366D01*
X140953511Y-54273258D01*
X140953502Y-54273261D01*
X140747267Y-54369431D01*
X140747265Y-54369432D01*
X140560858Y-54499954D01*
X140399954Y-54660858D01*
X140374912Y-54696623D01*
X140320335Y-54740248D01*
X140273337Y-54749500D01*
X139021889Y-54749500D01*
X138954850Y-54729815D01*
X138909095Y-54677011D01*
X138899151Y-54607853D01*
X138928176Y-54544297D01*
X138934208Y-54537819D01*
X139014358Y-54457669D01*
X139094517Y-54377510D01*
X139233343Y-54186433D01*
X139340568Y-53975992D01*
X139413553Y-53751368D01*
X139450500Y-53518097D01*
X139450500Y-51781902D01*
X139413553Y-51548631D01*
X139340566Y-51324003D01*
X139233342Y-51113566D01*
X139094517Y-50922490D01*
X138927510Y-50755483D01*
X138736433Y-50616657D01*
X138525996Y-50509433D01*
X138319785Y-50442431D01*
X138262110Y-50402993D01*
X138234912Y-50338634D01*
X138246827Y-50269788D01*
X138294071Y-50218312D01*
X138358104Y-50200500D01*
X143238014Y-50200500D01*
X143305053Y-50220185D01*
G37*
%TD.AperFunction*%
%TA.AperFunction,NonConductor*%
G36*
X147193334Y-56348367D02*
G01*
X147237681Y-56376868D01*
X147360858Y-56500045D01*
X147360861Y-56500047D01*
X147547266Y-56630568D01*
X147753504Y-56726739D01*
X147753509Y-56726740D01*
X147753511Y-56726741D01*
X147953117Y-56780225D01*
X148012778Y-56816590D01*
X148043307Y-56879437D01*
X148035012Y-56948812D01*
X147990527Y-57002690D01*
X147953117Y-57019775D01*
X147753511Y-57073258D01*
X147753502Y-57073261D01*
X147547267Y-57169431D01*
X147547265Y-57169432D01*
X147360858Y-57299954D01*
X147199954Y-57460858D01*
X147076075Y-57637779D01*
X147021499Y-57681404D01*
X146952000Y-57688598D01*
X146889645Y-57657076D01*
X146854231Y-57596846D01*
X146850500Y-57566656D01*
X146850500Y-56626662D01*
X146870185Y-56559623D01*
X146903379Y-56525086D01*
X146939140Y-56500046D01*
X147062319Y-56376868D01*
X147123642Y-56343383D01*
X147193334Y-56348367D01*
G37*
%TD.AperFunction*%
%TA.AperFunction,NonConductor*%
G36*
X145005700Y-56211037D02*
G01*
X145026074Y-56233629D01*
X145099953Y-56339140D01*
X145260859Y-56500046D01*
X145296621Y-56525086D01*
X145340247Y-56579662D01*
X145349500Y-56626662D01*
X145349500Y-58437770D01*
X145329815Y-58504809D01*
X145313181Y-58525451D01*
X135530188Y-68308443D01*
X135468865Y-68341928D01*
X135399173Y-68336944D01*
X135343240Y-68295072D01*
X135336157Y-68284523D01*
X135330306Y-68274761D01*
X135096158Y-67959049D01*
X135065558Y-67925287D01*
X134832192Y-67667807D01*
X134540956Y-67403846D01*
X134225236Y-67169692D01*
X133888100Y-66967620D01*
X133532772Y-66799562D01*
X133532770Y-66799561D01*
X133162684Y-66667143D01*
X132781406Y-66571637D01*
X132781401Y-66571636D01*
X132781400Y-66571636D01*
X132637256Y-66550254D01*
X132392599Y-66513963D01*
X132392597Y-66513962D01*
X132392591Y-66513962D01*
X132000000Y-66494675D01*
X131607409Y-66513962D01*
X131607403Y-66513962D01*
X131607400Y-66513963D01*
X131218593Y-66571637D01*
X130837315Y-66667143D01*
X130467229Y-66799561D01*
X130467227Y-66799562D01*
X130111899Y-66967620D01*
X129774763Y-67169692D01*
X129459043Y-67403846D01*
X129167807Y-67667807D01*
X128903844Y-67959045D01*
X128874097Y-67999155D01*
X128818350Y-68041275D01*
X128748681Y-68046569D01*
X128687210Y-68013358D01*
X128653452Y-67952184D01*
X128650500Y-67925287D01*
X128650500Y-57762230D01*
X128670185Y-57695191D01*
X128686819Y-57674549D01*
X130074549Y-56286819D01*
X130135872Y-56253334D01*
X130162230Y-56250500D01*
X140273337Y-56250500D01*
X140340376Y-56270185D01*
X140374912Y-56303377D01*
X140399954Y-56339141D01*
X140560858Y-56500045D01*
X140560861Y-56500047D01*
X140747266Y-56630568D01*
X140953504Y-56726739D01*
X140953509Y-56726740D01*
X140953511Y-56726741D01*
X141153117Y-56780225D01*
X141212778Y-56816590D01*
X141243307Y-56879437D01*
X141235012Y-56948812D01*
X141190527Y-57002690D01*
X141153117Y-57019775D01*
X140953511Y-57073258D01*
X140953502Y-57073261D01*
X140747267Y-57169431D01*
X140747265Y-57169432D01*
X140560858Y-57299954D01*
X140399954Y-57460858D01*
X140269432Y-57647265D01*
X140269431Y-57647267D01*
X140173261Y-57853502D01*
X140173258Y-57853511D01*
X140114366Y-58073302D01*
X140114364Y-58073313D01*
X140094532Y-58299998D01*
X140094532Y-58300001D01*
X140114364Y-58526686D01*
X140114366Y-58526697D01*
X140173258Y-58746488D01*
X140173261Y-58746497D01*
X140269431Y-58952732D01*
X140269432Y-58952734D01*
X140399954Y-59139141D01*
X140560858Y-59300045D01*
X140560861Y-59300047D01*
X140747266Y-59430568D01*
X140953504Y-59526739D01*
X141173308Y-59585635D01*
X141335230Y-59599801D01*
X141399998Y-59605468D01*
X141400000Y-59605468D01*
X141400002Y-59605468D01*
X141456673Y-59600509D01*
X141626692Y-59585635D01*
X141846496Y-59526739D01*
X142052734Y-59430568D01*
X142239139Y-59300047D01*
X142400047Y-59139139D01*
X142530568Y-58952734D01*
X142626739Y-58746496D01*
X142685635Y-58526692D01*
X142705468Y-58300000D01*
X142685635Y-58073308D01*
X142634130Y-57881087D01*
X142626741Y-57853511D01*
X142626738Y-57853502D01*
X142575914Y-57744511D01*
X142530568Y-57647266D01*
X142400047Y-57460861D01*
X142400045Y-57460858D01*
X142239141Y-57299954D01*
X142052734Y-57169432D01*
X142052732Y-57169431D01*
X141846497Y-57073261D01*
X141846488Y-57073258D01*
X141646882Y-57019775D01*
X141587221Y-56983410D01*
X141556692Y-56920563D01*
X141564987Y-56851188D01*
X141609472Y-56797310D01*
X141646882Y-56780225D01*
X141782849Y-56743793D01*
X141846496Y-56726739D01*
X142052734Y-56630568D01*
X142131168Y-56575648D01*
X142197372Y-56553322D01*
X142265139Y-56570332D01*
X142301555Y-56602913D01*
X142342452Y-56657544D01*
X142342455Y-56657547D01*
X142457664Y-56743793D01*
X142457671Y-56743797D01*
X142592517Y-56794091D01*
X142592516Y-56794091D01*
X142599444Y-56794835D01*
X142652127Y-56800500D01*
X144347872Y-56800499D01*
X144407483Y-56794091D01*
X144542331Y-56743796D01*
X144657546Y-56657546D01*
X144743796Y-56542331D01*
X144794091Y-56407483D01*
X144800500Y-56347873D01*
X144800499Y-56304751D01*
X144820182Y-56237715D01*
X144872985Y-56191959D01*
X144942143Y-56182014D01*
X145005700Y-56211037D01*
G37*
%TD.AperFunction*%
%TA.AperFunction,NonConductor*%
G36*
X146993940Y-58878848D02*
G01*
X147050612Y-58919713D01*
X147065069Y-58943377D01*
X147069432Y-58952734D01*
X147199954Y-59139141D01*
X147360859Y-59300046D01*
X147396621Y-59325086D01*
X147440247Y-59379662D01*
X147449500Y-59426662D01*
X147449500Y-62035669D01*
X147429815Y-62102708D01*
X147413181Y-62123350D01*
X131417050Y-78119480D01*
X131417044Y-78119488D01*
X131367812Y-78193168D01*
X131367813Y-78193169D01*
X131334921Y-78242396D01*
X131334914Y-78242408D01*
X131278342Y-78378986D01*
X131278340Y-78378992D01*
X131249500Y-78523979D01*
X131249500Y-85467125D01*
X131229815Y-85534164D01*
X131177011Y-85579919D01*
X131155630Y-85587409D01*
X130837315Y-85667143D01*
X130467229Y-85799561D01*
X130467227Y-85799562D01*
X130111899Y-85967620D01*
X129774763Y-86169692D01*
X129459043Y-86403846D01*
X129167807Y-86667807D01*
X128903844Y-86959045D01*
X128874097Y-86999155D01*
X128818350Y-87041275D01*
X128748681Y-87046569D01*
X128687210Y-87013358D01*
X128653452Y-86952184D01*
X128650500Y-86925287D01*
X128650500Y-73074711D01*
X128670185Y-73007672D01*
X128722989Y-72961917D01*
X128792147Y-72951973D01*
X128855703Y-72980998D01*
X128874090Y-73000836D01*
X128903842Y-73040951D01*
X128998808Y-73145730D01*
X129167807Y-73332192D01*
X129459043Y-73596153D01*
X129459049Y-73596158D01*
X129774761Y-73830306D01*
X129774763Y-73830307D01*
X130111899Y-74032379D01*
X130111902Y-74032380D01*
X130111903Y-74032381D01*
X130467228Y-74200438D01*
X130837316Y-74332857D01*
X131218600Y-74428364D01*
X131607409Y-74486038D01*
X132000000Y-74505325D01*
X132392591Y-74486038D01*
X132781400Y-74428364D01*
X133162684Y-74332857D01*
X133532772Y-74200438D01*
X133888097Y-74032381D01*
X134225239Y-73830306D01*
X134540951Y-73596158D01*
X134832192Y-73332192D01*
X135096158Y-73040951D01*
X135330306Y-72725239D01*
X135532381Y-72388097D01*
X135700438Y-72032772D01*
X135832857Y-71662684D01*
X135928364Y-71281400D01*
X135986038Y-70892591D01*
X136005325Y-70500000D01*
X135986038Y-70107409D01*
X135978134Y-70054128D01*
X135987769Y-69984929D01*
X136013108Y-69948258D01*
X146682952Y-59278415D01*
X146710205Y-59237627D01*
X146765084Y-59155495D01*
X146788894Y-59098013D01*
X146821659Y-59018912D01*
X146831071Y-58971592D01*
X146863455Y-58909684D01*
X146924170Y-58875109D01*
X146993940Y-58878848D01*
G37*
%TD.AperFunction*%
%TA.AperFunction,NonConductor*%
G36*
X158804809Y-56270185D02*
G01*
X158825451Y-56286819D01*
X160913181Y-58374548D01*
X160946666Y-58435871D01*
X160949500Y-58462229D01*
X160949500Y-79797770D01*
X160929815Y-79864809D01*
X160913181Y-79885451D01*
X160275451Y-80523181D01*
X160214128Y-80556666D01*
X160187770Y-80559500D01*
X160156663Y-80559500D01*
X160089624Y-80539815D01*
X160055088Y-80506623D01*
X160030045Y-80470858D01*
X159869141Y-80309954D01*
X159682734Y-80179432D01*
X159682732Y-80179431D01*
X159476497Y-80083261D01*
X159476488Y-80083258D01*
X159256697Y-80024366D01*
X159256693Y-80024365D01*
X159256692Y-80024365D01*
X159256691Y-80024364D01*
X159256686Y-80024364D01*
X159030002Y-80004532D01*
X159029998Y-80004532D01*
X158803313Y-80024364D01*
X158803302Y-80024366D01*
X158583511Y-80083258D01*
X158583502Y-80083261D01*
X158377267Y-80179431D01*
X158377265Y-80179432D01*
X158190858Y-80309954D01*
X158029954Y-80470858D01*
X158004912Y-80506623D01*
X157950335Y-80550248D01*
X157903337Y-80559500D01*
X153156663Y-80559500D01*
X153089624Y-80539815D01*
X153055088Y-80506623D01*
X153030045Y-80470858D01*
X152869141Y-80309954D01*
X152682734Y-80179432D01*
X152682732Y-80179431D01*
X152476497Y-80083261D01*
X152476488Y-80083258D01*
X152256697Y-80024366D01*
X152256693Y-80024365D01*
X152256692Y-80024365D01*
X152256691Y-80024364D01*
X152256686Y-80024364D01*
X152030002Y-80004532D01*
X152029998Y-80004532D01*
X151803313Y-80024364D01*
X151803302Y-80024366D01*
X151583511Y-80083258D01*
X151583502Y-80083261D01*
X151377267Y-80179431D01*
X151377265Y-80179432D01*
X151190858Y-80309954D01*
X151078771Y-80422042D01*
X151017448Y-80455527D01*
X150947756Y-80450543D01*
X150903409Y-80422042D01*
X147176716Y-76695348D01*
X147143231Y-76634025D01*
X147140869Y-76596863D01*
X147155468Y-76430000D01*
X147135635Y-76203308D01*
X147076739Y-75983504D01*
X146980568Y-75777266D01*
X146850047Y-75590861D01*
X146850045Y-75590858D01*
X146689141Y-75429954D01*
X146502734Y-75299432D01*
X146502732Y-75299431D01*
X146296497Y-75203261D01*
X146296488Y-75203258D01*
X146076697Y-75144366D01*
X146076693Y-75144365D01*
X146076692Y-75144365D01*
X146076691Y-75144364D01*
X146076686Y-75144364D01*
X145850002Y-75124532D01*
X145849998Y-75124532D01*
X145623313Y-75144364D01*
X145623302Y-75144366D01*
X145403511Y-75203258D01*
X145403502Y-75203261D01*
X145197267Y-75299431D01*
X145197265Y-75299432D01*
X145010858Y-75429954D01*
X144849954Y-75590858D01*
X144719432Y-75777265D01*
X144719431Y-75777267D01*
X144623261Y-75983502D01*
X144623258Y-75983511D01*
X144564366Y-76203302D01*
X144564364Y-76203313D01*
X144544532Y-76429998D01*
X144544532Y-76430001D01*
X144564364Y-76656686D01*
X144564366Y-76656697D01*
X144623258Y-76876488D01*
X144623261Y-76876497D01*
X144719431Y-77082732D01*
X144719432Y-77082734D01*
X144849954Y-77269141D01*
X145010858Y-77430045D01*
X145010861Y-77430047D01*
X145197266Y-77560568D01*
X145255275Y-77587618D01*
X145307714Y-77633791D01*
X145326866Y-77700984D01*
X145306650Y-77767865D01*
X145255275Y-77812382D01*
X145197267Y-77839431D01*
X145197265Y-77839432D01*
X145010858Y-77969954D01*
X144849954Y-78130858D01*
X144719432Y-78317265D01*
X144719431Y-78317267D01*
X144623261Y-78523502D01*
X144623258Y-78523511D01*
X144564366Y-78743302D01*
X144564364Y-78743313D01*
X144544532Y-78969998D01*
X144544532Y-78970001D01*
X144564364Y-79196686D01*
X144564366Y-79196697D01*
X144623258Y-79416488D01*
X144623261Y-79416497D01*
X144719431Y-79622732D01*
X144719432Y-79622734D01*
X144849954Y-79809141D01*
X145010858Y-79970045D01*
X145010861Y-79970047D01*
X145197266Y-80100568D01*
X145255275Y-80127618D01*
X145307714Y-80173791D01*
X145326866Y-80240984D01*
X145306650Y-80307865D01*
X145255275Y-80352382D01*
X145197267Y-80379431D01*
X145197265Y-80379432D01*
X145010858Y-80509954D01*
X144849954Y-80670858D01*
X144719432Y-80857265D01*
X144719431Y-80857267D01*
X144623261Y-81063502D01*
X144623258Y-81063511D01*
X144564366Y-81283302D01*
X144564364Y-81283313D01*
X144544532Y-81509998D01*
X144544532Y-81510001D01*
X144564364Y-81736686D01*
X144564366Y-81736697D01*
X144623258Y-81956488D01*
X144623261Y-81956497D01*
X144719431Y-82162732D01*
X144719432Y-82162734D01*
X144849954Y-82349141D01*
X145010858Y-82510045D01*
X145010861Y-82510047D01*
X145197266Y-82640568D01*
X145255275Y-82667618D01*
X145307714Y-82713791D01*
X145326866Y-82780984D01*
X145306650Y-82847865D01*
X145255275Y-82892382D01*
X145197267Y-82919431D01*
X145197265Y-82919432D01*
X145010858Y-83049954D01*
X144849954Y-83210858D01*
X144719432Y-83397265D01*
X144719431Y-83397267D01*
X144623261Y-83603502D01*
X144623258Y-83603511D01*
X144564366Y-83823302D01*
X144564364Y-83823313D01*
X144544532Y-84049998D01*
X144544532Y-84050001D01*
X144564364Y-84276686D01*
X144564366Y-84276697D01*
X144623258Y-84496488D01*
X144623261Y-84496497D01*
X144719431Y-84702732D01*
X144719432Y-84702734D01*
X144849954Y-84889141D01*
X145010858Y-85050045D01*
X145010861Y-85050047D01*
X145197266Y-85180568D01*
X145403504Y-85276739D01*
X145623308Y-85335635D01*
X145785230Y-85349801D01*
X145849998Y-85355468D01*
X145850000Y-85355468D01*
X145850002Y-85355468D01*
X145906673Y-85350509D01*
X146076692Y-85335635D01*
X146296496Y-85276739D01*
X146502734Y-85180568D01*
X146689139Y-85050047D01*
X146850047Y-84889139D01*
X146980568Y-84702734D01*
X147076739Y-84496496D01*
X147135635Y-84276692D01*
X147155468Y-84050000D01*
X147135635Y-83823308D01*
X147076739Y-83603504D01*
X146980568Y-83397266D01*
X146850047Y-83210861D01*
X146850045Y-83210858D01*
X146689141Y-83049954D01*
X146502734Y-82919432D01*
X146502728Y-82919429D01*
X146444725Y-82892382D01*
X146392285Y-82846210D01*
X146373133Y-82779017D01*
X146393348Y-82712135D01*
X146444725Y-82667618D01*
X146502734Y-82640568D01*
X146689139Y-82510047D01*
X146850047Y-82349139D01*
X146980568Y-82162734D01*
X147076739Y-81956496D01*
X147135635Y-81736692D01*
X147155468Y-81510000D01*
X147135635Y-81283308D01*
X147076739Y-81063504D01*
X146980568Y-80857266D01*
X146850047Y-80670861D01*
X146850045Y-80670858D01*
X146689141Y-80509954D01*
X146502734Y-80379432D01*
X146502728Y-80379429D01*
X146444725Y-80352382D01*
X146392285Y-80306210D01*
X146373133Y-80239017D01*
X146393348Y-80172135D01*
X146444725Y-80127618D01*
X146502734Y-80100568D01*
X146689139Y-79970047D01*
X146850047Y-79809139D01*
X146980568Y-79622734D01*
X147076739Y-79416496D01*
X147135635Y-79196692D01*
X147146223Y-79075670D01*
X147171674Y-79010604D01*
X147228265Y-78969626D01*
X147298027Y-78965747D01*
X147357431Y-78998799D01*
X148780675Y-80422042D01*
X150147049Y-81788416D01*
X150251584Y-81892951D01*
X150251585Y-81892952D01*
X150374498Y-81975080D01*
X150374511Y-81975087D01*
X150501954Y-82027875D01*
X150511087Y-82031658D01*
X150511091Y-82031658D01*
X150511092Y-82031659D01*
X150656079Y-82060500D01*
X150656082Y-82060500D01*
X150903337Y-82060500D01*
X150970376Y-82080185D01*
X151004912Y-82113377D01*
X151029954Y-82149141D01*
X151190858Y-82310045D01*
X151190861Y-82310047D01*
X151377266Y-82440568D01*
X151583504Y-82536739D01*
X151803308Y-82595635D01*
X151965230Y-82609801D01*
X152029998Y-82615468D01*
X152030000Y-82615468D01*
X152030002Y-82615468D01*
X152086673Y-82610509D01*
X152256692Y-82595635D01*
X152476496Y-82536739D01*
X152682734Y-82440568D01*
X152869139Y-82310047D01*
X153030047Y-82149139D01*
X153055088Y-82113377D01*
X153109665Y-82069752D01*
X153156663Y-82060500D01*
X156656082Y-82060500D01*
X157903337Y-82060500D01*
X157970376Y-82080185D01*
X158004912Y-82113377D01*
X158029954Y-82149141D01*
X158190858Y-82310045D01*
X158190861Y-82310047D01*
X158377266Y-82440568D01*
X158583504Y-82536739D01*
X158803308Y-82595635D01*
X158965230Y-82609801D01*
X159029998Y-82615468D01*
X159030000Y-82615468D01*
X159030002Y-82615468D01*
X159086673Y-82610509D01*
X159256692Y-82595635D01*
X159476496Y-82536739D01*
X159682734Y-82440568D01*
X159869139Y-82310047D01*
X160030047Y-82149139D01*
X160055088Y-82113377D01*
X160109665Y-82069752D01*
X160156663Y-82060500D01*
X160623920Y-82060500D01*
X160721462Y-82041096D01*
X160768913Y-82031658D01*
X160778046Y-82027874D01*
X160847514Y-82020405D01*
X160909994Y-82051678D01*
X160945648Y-82111766D01*
X160949500Y-82142435D01*
X160949500Y-86855500D01*
X160929815Y-86922539D01*
X160877011Y-86968294D01*
X160825500Y-86979500D01*
X157684141Y-86979500D01*
X157617102Y-86959815D01*
X157571347Y-86907011D01*
X157567969Y-86898859D01*
X157563796Y-86887669D01*
X157563793Y-86887665D01*
X157563793Y-86887664D01*
X157477547Y-86772455D01*
X157477544Y-86772452D01*
X157362335Y-86686206D01*
X157362328Y-86686202D01*
X157227482Y-86635908D01*
X157227483Y-86635908D01*
X157167883Y-86629501D01*
X157167881Y-86629500D01*
X157167873Y-86629500D01*
X157167864Y-86629500D01*
X155872129Y-86629500D01*
X155872123Y-86629501D01*
X155812516Y-86635908D01*
X155677671Y-86686202D01*
X155677664Y-86686206D01*
X155562455Y-86772452D01*
X155562452Y-86772455D01*
X155476206Y-86887664D01*
X155471953Y-86895454D01*
X155469741Y-86894246D01*
X155435840Y-86939511D01*
X155370370Y-86963913D01*
X155302101Y-86949045D01*
X155278015Y-86931864D01*
X155186041Y-86848019D01*
X155186039Y-86848017D01*
X155012642Y-86740655D01*
X155012635Y-86740651D01*
X154917546Y-86703814D01*
X154822456Y-86666976D01*
X154621976Y-86629500D01*
X154418024Y-86629500D01*
X154217544Y-86666976D01*
X154217541Y-86666976D01*
X154217541Y-86666977D01*
X154027364Y-86740651D01*
X154027357Y-86740655D01*
X153853960Y-86848017D01*
X153853958Y-86848019D01*
X153703237Y-86985418D01*
X153580327Y-87148178D01*
X153489422Y-87330739D01*
X153489417Y-87330752D01*
X153433602Y-87526917D01*
X153414785Y-87729999D01*
X153414785Y-87730000D01*
X153433602Y-87933082D01*
X153489417Y-88129247D01*
X153489422Y-88129260D01*
X153580327Y-88311821D01*
X153703236Y-88474579D01*
X153739038Y-88507216D01*
X153775319Y-88566928D01*
X153779500Y-88598854D01*
X153779500Y-99607770D01*
X153759815Y-99674809D01*
X153743181Y-99695451D01*
X150025451Y-103413181D01*
X149964128Y-103446666D01*
X149937770Y-103449500D01*
X146632161Y-103449500D01*
X146565122Y-103429815D01*
X146519367Y-103377011D01*
X146509503Y-103343695D01*
X146498364Y-103268603D01*
X146498364Y-103268600D01*
X146402857Y-102887316D01*
X146270438Y-102517228D01*
X146102381Y-102161903D01*
X146067627Y-102103920D01*
X145957855Y-101920776D01*
X145900306Y-101824761D01*
X145666158Y-101509049D01*
X145666153Y-101509043D01*
X145402192Y-101217807D01*
X145110956Y-100953846D01*
X144910263Y-100805002D01*
X144795239Y-100719694D01*
X144784271Y-100713120D01*
X144458100Y-100517620D01*
X144102772Y-100349562D01*
X144102770Y-100349561D01*
X143732684Y-100217143D01*
X143351406Y-100121637D01*
X143351401Y-100121636D01*
X143351400Y-100121636D01*
X143207256Y-100100254D01*
X142962599Y-100063963D01*
X142962597Y-100063962D01*
X142962591Y-100063962D01*
X142570000Y-100044675D01*
X142177409Y-100063962D01*
X142177403Y-100063962D01*
X142177400Y-100063963D01*
X141788593Y-100121637D01*
X141407315Y-100217143D01*
X141037229Y-100349561D01*
X141037227Y-100349562D01*
X140681899Y-100517620D01*
X140344763Y-100719692D01*
X140029043Y-100953846D01*
X139737807Y-101217807D01*
X139473846Y-101509043D01*
X139259933Y-101797472D01*
X139204186Y-101839592D01*
X139134518Y-101844888D01*
X139073046Y-101811677D01*
X139072654Y-101811286D01*
X139016819Y-101755451D01*
X138983334Y-101694128D01*
X138980500Y-101667770D01*
X138980500Y-85176662D01*
X139000185Y-85109623D01*
X139033379Y-85075086D01*
X139069140Y-85050046D01*
X139230045Y-84889141D01*
X139230047Y-84889139D01*
X139360568Y-84702734D01*
X139456739Y-84496496D01*
X139515635Y-84276692D01*
X139535468Y-84050000D01*
X139515635Y-83823308D01*
X139456739Y-83603504D01*
X139360568Y-83397266D01*
X139230047Y-83210861D01*
X139230045Y-83210858D01*
X139069141Y-83049954D01*
X138882734Y-82919432D01*
X138882728Y-82919429D01*
X138824725Y-82892382D01*
X138772285Y-82846210D01*
X138753133Y-82779017D01*
X138773348Y-82712135D01*
X138824725Y-82667618D01*
X138882734Y-82640568D01*
X139069139Y-82510047D01*
X139230047Y-82349139D01*
X139360568Y-82162734D01*
X139456739Y-81956496D01*
X139515635Y-81736692D01*
X139535468Y-81510000D01*
X139515635Y-81283308D01*
X139456739Y-81063504D01*
X139360568Y-80857266D01*
X139230047Y-80670861D01*
X139230045Y-80670858D01*
X139069141Y-80509954D01*
X138882734Y-80379432D01*
X138882728Y-80379429D01*
X138824725Y-80352382D01*
X138772285Y-80306210D01*
X138753133Y-80239017D01*
X138773348Y-80172135D01*
X138824725Y-80127618D01*
X138882734Y-80100568D01*
X139069139Y-79970047D01*
X139230047Y-79809139D01*
X139360568Y-79622734D01*
X139456739Y-79416496D01*
X139515635Y-79196692D01*
X139535468Y-78970000D01*
X139534604Y-78960130D01*
X139526933Y-78872449D01*
X139515635Y-78743308D01*
X139456739Y-78523504D01*
X139360568Y-78317266D01*
X139230047Y-78130861D01*
X139230045Y-78130858D01*
X139069143Y-77969956D01*
X139044536Y-77952726D01*
X139000912Y-77898149D01*
X138993719Y-77828650D01*
X139025241Y-77766296D01*
X139085471Y-77730882D01*
X139102404Y-77727861D01*
X139137483Y-77724091D01*
X139272331Y-77673796D01*
X139387546Y-77587546D01*
X139473796Y-77472331D01*
X139524091Y-77337483D01*
X139530500Y-77277873D01*
X139530499Y-75582128D01*
X139524091Y-75522517D01*
X139489567Y-75429954D01*
X139473797Y-75387671D01*
X139473793Y-75387664D01*
X139387547Y-75272455D01*
X139387544Y-75272452D01*
X139272335Y-75186206D01*
X139272328Y-75186202D01*
X139137482Y-75135908D01*
X139137483Y-75135908D01*
X139077883Y-75129501D01*
X139077881Y-75129500D01*
X139077873Y-75129500D01*
X139077864Y-75129500D01*
X137382129Y-75129500D01*
X137382123Y-75129501D01*
X137322516Y-75135908D01*
X137187671Y-75186202D01*
X137187664Y-75186206D01*
X137072455Y-75272452D01*
X137072452Y-75272455D01*
X136986206Y-75387664D01*
X136986202Y-75387671D01*
X136935908Y-75522517D01*
X136929501Y-75582116D01*
X136929501Y-75582123D01*
X136929500Y-75582135D01*
X136929500Y-77277870D01*
X136929501Y-77277876D01*
X136935908Y-77337483D01*
X136986202Y-77472328D01*
X136986206Y-77472335D01*
X137072452Y-77587544D01*
X137072455Y-77587547D01*
X137187664Y-77673793D01*
X137187671Y-77673797D01*
X137232618Y-77690561D01*
X137322517Y-77724091D01*
X137357596Y-77727862D01*
X137422144Y-77754599D01*
X137461993Y-77811991D01*
X137464488Y-77881816D01*
X137428836Y-77941905D01*
X137415464Y-77952725D01*
X137390858Y-77969954D01*
X137229954Y-78130858D01*
X137099432Y-78317265D01*
X137099431Y-78317267D01*
X137003261Y-78523502D01*
X137003258Y-78523511D01*
X136944366Y-78743302D01*
X136944364Y-78743313D01*
X136924532Y-78969998D01*
X136924532Y-78970001D01*
X136944364Y-79196686D01*
X136944366Y-79196697D01*
X137003258Y-79416488D01*
X137003261Y-79416497D01*
X137099431Y-79622732D01*
X137099432Y-79622734D01*
X137229954Y-79809141D01*
X137390858Y-79970045D01*
X137390861Y-79970047D01*
X137577266Y-80100568D01*
X137635275Y-80127618D01*
X137687714Y-80173791D01*
X137706866Y-80240984D01*
X137686650Y-80307865D01*
X137635275Y-80352382D01*
X137577267Y-80379431D01*
X137577265Y-80379432D01*
X137390858Y-80509954D01*
X137229954Y-80670858D01*
X137099432Y-80857265D01*
X137099431Y-80857267D01*
X137003261Y-81063502D01*
X137003258Y-81063511D01*
X136944366Y-81283302D01*
X136944364Y-81283313D01*
X136924532Y-81509998D01*
X136924532Y-81510001D01*
X136944364Y-81736686D01*
X136944366Y-81736697D01*
X137003258Y-81956488D01*
X137003261Y-81956497D01*
X137099431Y-82162732D01*
X137099432Y-82162734D01*
X137229954Y-82349141D01*
X137390858Y-82510045D01*
X137390861Y-82510047D01*
X137577266Y-82640568D01*
X137635275Y-82667618D01*
X137687714Y-82713791D01*
X137706866Y-82780984D01*
X137686650Y-82847865D01*
X137635275Y-82892382D01*
X137577267Y-82919431D01*
X137577265Y-82919432D01*
X137390858Y-83049954D01*
X137229954Y-83210858D01*
X137099432Y-83397265D01*
X137099431Y-83397267D01*
X137003261Y-83603502D01*
X137003258Y-83603511D01*
X136944366Y-83823302D01*
X136944364Y-83823313D01*
X136924532Y-84049998D01*
X136924532Y-84050001D01*
X136944364Y-84276686D01*
X136944366Y-84276697D01*
X137003258Y-84496488D01*
X137003261Y-84496497D01*
X137099431Y-84702732D01*
X137099432Y-84702734D01*
X137229954Y-84889141D01*
X137390859Y-85050046D01*
X137426621Y-85075086D01*
X137470247Y-85129662D01*
X137479500Y-85176662D01*
X137479500Y-97426082D01*
X137479500Y-102103918D01*
X137479500Y-102103920D01*
X137479499Y-102103920D01*
X137508340Y-102248907D01*
X137508343Y-102248917D01*
X137564912Y-102385488D01*
X137564920Y-102385502D01*
X137589366Y-102422087D01*
X137589367Y-102422090D01*
X137647046Y-102508414D01*
X137647052Y-102508421D01*
X138376451Y-103237819D01*
X138409936Y-103299142D01*
X138404952Y-103368833D01*
X138363080Y-103424767D01*
X138297616Y-103449184D01*
X138288770Y-103449500D01*
X131162229Y-103449500D01*
X131095190Y-103429815D01*
X131074548Y-103413181D01*
X128686819Y-101025451D01*
X128653334Y-100964128D01*
X128650500Y-100937770D01*
X128650500Y-92074711D01*
X128670185Y-92007672D01*
X128722989Y-91961917D01*
X128792147Y-91951973D01*
X128855703Y-91980998D01*
X128874090Y-92000836D01*
X128903842Y-92040951D01*
X128998808Y-92145730D01*
X129167807Y-92332192D01*
X129459043Y-92596153D01*
X129459049Y-92596158D01*
X129774761Y-92830306D01*
X129774763Y-92830307D01*
X130111899Y-93032379D01*
X130111902Y-93032380D01*
X130111903Y-93032381D01*
X130467228Y-93200438D01*
X130837316Y-93332857D01*
X131218600Y-93428364D01*
X131607409Y-93486038D01*
X132000000Y-93505325D01*
X132392591Y-93486038D01*
X132781400Y-93428364D01*
X133162684Y-93332857D01*
X133532772Y-93200438D01*
X133888097Y-93032381D01*
X134225239Y-92830306D01*
X134540951Y-92596158D01*
X134832192Y-92332192D01*
X135096158Y-92040951D01*
X135330306Y-91725239D01*
X135532381Y-91388097D01*
X135700438Y-91032772D01*
X135832857Y-90662684D01*
X135928364Y-90281400D01*
X135986038Y-89892591D01*
X136005325Y-89500000D01*
X135986038Y-89107409D01*
X135928364Y-88718600D01*
X135832857Y-88337316D01*
X135700438Y-87967228D01*
X135532381Y-87611903D01*
X135481442Y-87526917D01*
X135330307Y-87274763D01*
X135236426Y-87148179D01*
X135096158Y-86959049D01*
X135065558Y-86925287D01*
X134832192Y-86667807D01*
X134540956Y-86403846D01*
X134225236Y-86169692D01*
X133888100Y-85967620D01*
X133532772Y-85799562D01*
X133532770Y-85799561D01*
X133162684Y-85667143D01*
X132844370Y-85587409D01*
X132784123Y-85552025D01*
X132752570Y-85489686D01*
X132750500Y-85467125D01*
X132750500Y-78960130D01*
X132770185Y-78893091D01*
X132786819Y-78872449D01*
X140509270Y-71149998D01*
X150724532Y-71149998D01*
X150724532Y-71150001D01*
X150744364Y-71376686D01*
X150744366Y-71376697D01*
X150803258Y-71596488D01*
X150803261Y-71596497D01*
X150899431Y-71802732D01*
X150899432Y-71802734D01*
X151029954Y-71989141D01*
X151190858Y-72150045D01*
X151190861Y-72150047D01*
X151377266Y-72280568D01*
X151583504Y-72376739D01*
X151803308Y-72435635D01*
X151965230Y-72449801D01*
X152029998Y-72455468D01*
X152030000Y-72455468D01*
X152030002Y-72455468D01*
X152086673Y-72450509D01*
X152256692Y-72435635D01*
X152476496Y-72376739D01*
X152682734Y-72280568D01*
X152869139Y-72150047D01*
X153030047Y-71989139D01*
X153160568Y-71802734D01*
X153256739Y-71596496D01*
X153315635Y-71376692D01*
X153335468Y-71150000D01*
X153335468Y-71149998D01*
X157724532Y-71149998D01*
X157724532Y-71150001D01*
X157744364Y-71376686D01*
X157744366Y-71376697D01*
X157803258Y-71596488D01*
X157803261Y-71596497D01*
X157899431Y-71802732D01*
X157899432Y-71802734D01*
X158029954Y-71989141D01*
X158190858Y-72150045D01*
X158190861Y-72150047D01*
X158377266Y-72280568D01*
X158583504Y-72376739D01*
X158803308Y-72435635D01*
X158965230Y-72449801D01*
X159029998Y-72455468D01*
X159030000Y-72455468D01*
X159030002Y-72455468D01*
X159086673Y-72450509D01*
X159256692Y-72435635D01*
X159476496Y-72376739D01*
X159682734Y-72280568D01*
X159869139Y-72150047D01*
X160030047Y-71989139D01*
X160160568Y-71802734D01*
X160256739Y-71596496D01*
X160315635Y-71376692D01*
X160335468Y-71150000D01*
X160315635Y-70923308D01*
X160256739Y-70703504D01*
X160160568Y-70497266D01*
X160030047Y-70310861D01*
X160030045Y-70310858D01*
X159869141Y-70149954D01*
X159682734Y-70019432D01*
X159682732Y-70019431D01*
X159476497Y-69923261D01*
X159476488Y-69923258D01*
X159256697Y-69864366D01*
X159256693Y-69864365D01*
X159256692Y-69864365D01*
X159256691Y-69864364D01*
X159256686Y-69864364D01*
X159030002Y-69844532D01*
X159029998Y-69844532D01*
X158803313Y-69864364D01*
X158803302Y-69864366D01*
X158583511Y-69923258D01*
X158583502Y-69923261D01*
X158377267Y-70019431D01*
X158377265Y-70019432D01*
X158190858Y-70149954D01*
X158029954Y-70310858D01*
X157899432Y-70497265D01*
X157899431Y-70497267D01*
X157803261Y-70703502D01*
X157803258Y-70703511D01*
X157744366Y-70923302D01*
X157744364Y-70923313D01*
X157724532Y-71149998D01*
X153335468Y-71149998D01*
X153315635Y-70923308D01*
X153256739Y-70703504D01*
X153160568Y-70497266D01*
X153030047Y-70310861D01*
X153030045Y-70310858D01*
X152869141Y-70149954D01*
X152682734Y-70019432D01*
X152682732Y-70019431D01*
X152476497Y-69923261D01*
X152476488Y-69923258D01*
X152256697Y-69864366D01*
X152256693Y-69864365D01*
X152256692Y-69864365D01*
X152256691Y-69864364D01*
X152256686Y-69864364D01*
X152030002Y-69844532D01*
X152029998Y-69844532D01*
X151803313Y-69864364D01*
X151803302Y-69864366D01*
X151583511Y-69923258D01*
X151583502Y-69923261D01*
X151377267Y-70019431D01*
X151377265Y-70019432D01*
X151190858Y-70149954D01*
X151029954Y-70310858D01*
X150899432Y-70497265D01*
X150899431Y-70497267D01*
X150803261Y-70703502D01*
X150803258Y-70703511D01*
X150744366Y-70923302D01*
X150744364Y-70923313D01*
X150724532Y-71149998D01*
X140509270Y-71149998D01*
X140766677Y-70892591D01*
X148782952Y-62876316D01*
X148832186Y-62802629D01*
X148865084Y-62753395D01*
X148888518Y-62696820D01*
X148921659Y-62616812D01*
X148950500Y-62471817D01*
X148950500Y-62323982D01*
X148950500Y-59426662D01*
X148970185Y-59359623D01*
X149003379Y-59325086D01*
X149039140Y-59300046D01*
X149200045Y-59139141D01*
X149200047Y-59139139D01*
X149330568Y-58952734D01*
X149426739Y-58746496D01*
X149485635Y-58526692D01*
X149505468Y-58300000D01*
X149485635Y-58073308D01*
X149434130Y-57881087D01*
X149426741Y-57853511D01*
X149426738Y-57853502D01*
X149375914Y-57744511D01*
X149330568Y-57647266D01*
X149200047Y-57460861D01*
X149200045Y-57460858D01*
X149039141Y-57299954D01*
X148852734Y-57169432D01*
X148852732Y-57169431D01*
X148646497Y-57073261D01*
X148646488Y-57073258D01*
X148446882Y-57019775D01*
X148387221Y-56983410D01*
X148356692Y-56920563D01*
X148364987Y-56851188D01*
X148409472Y-56797310D01*
X148446882Y-56780225D01*
X148582849Y-56743793D01*
X148646496Y-56726739D01*
X148852734Y-56630568D01*
X149039139Y-56500047D01*
X149200047Y-56339139D01*
X149225088Y-56303377D01*
X149279665Y-56259752D01*
X149326663Y-56250500D01*
X158737770Y-56250500D01*
X158804809Y-56270185D01*
G37*
%TD.AperFunction*%
%TA.AperFunction,NonConductor*%
G36*
X137608935Y-50220185D02*
G01*
X137654690Y-50272989D01*
X137664634Y-50342147D01*
X137635609Y-50405703D01*
X137580215Y-50442431D01*
X137374003Y-50509433D01*
X137163566Y-50616657D01*
X137054550Y-50695862D01*
X136972490Y-50755483D01*
X136972488Y-50755485D01*
X136972487Y-50755485D01*
X136805485Y-50922487D01*
X136805485Y-50922488D01*
X136805483Y-50922490D01*
X136745862Y-51004550D01*
X136666657Y-51113566D01*
X136559433Y-51324003D01*
X136486446Y-51548631D01*
X136449500Y-51781902D01*
X136449500Y-53518097D01*
X136486446Y-53751368D01*
X136559433Y-53975996D01*
X136666657Y-54186433D01*
X136805483Y-54377510D01*
X136805485Y-54377512D01*
X136965792Y-54537819D01*
X136999277Y-54599142D01*
X136994293Y-54668834D01*
X136952421Y-54724767D01*
X136886957Y-54749184D01*
X136878111Y-54749500D01*
X129726080Y-54749500D01*
X129581092Y-54778340D01*
X129581082Y-54778343D01*
X129444509Y-54834913D01*
X129444507Y-54834914D01*
X129401647Y-54863553D01*
X129401645Y-54863554D01*
X129321589Y-54917043D01*
X129321584Y-54917047D01*
X127317047Y-56921584D01*
X127317043Y-56921589D01*
X127275738Y-56983410D01*
X127268307Y-56994532D01*
X127262856Y-57002690D01*
X127234916Y-57044504D01*
X127234912Y-57044511D01*
X127178343Y-57181082D01*
X127178340Y-57181092D01*
X127149500Y-57326079D01*
X127149500Y-57326082D01*
X127149500Y-101373918D01*
X127149500Y-101373920D01*
X127149499Y-101373920D01*
X127178340Y-101518907D01*
X127178343Y-101518917D01*
X127234914Y-101655492D01*
X127234915Y-101655494D01*
X127234916Y-101655495D01*
X127247790Y-101674763D01*
X127267812Y-101704727D01*
X127267813Y-101704730D01*
X127317046Y-101778414D01*
X127317052Y-101778421D01*
X129831224Y-104292591D01*
X130217048Y-104678415D01*
X130217049Y-104678416D01*
X130321580Y-104782947D01*
X130321585Y-104782952D01*
X130444498Y-104865080D01*
X130444511Y-104865087D01*
X130581082Y-104921656D01*
X130581087Y-104921658D01*
X130581091Y-104921658D01*
X130581092Y-104921659D01*
X130726079Y-104950500D01*
X130726082Y-104950500D01*
X138574699Y-104950500D01*
X138641738Y-104970185D01*
X138687493Y-105022989D01*
X138694980Y-105044363D01*
X138699570Y-105062684D01*
X138737143Y-105212684D01*
X138869561Y-105582770D01*
X138869562Y-105582772D01*
X139037620Y-105938100D01*
X139239692Y-106275236D01*
X139239694Y-106275239D01*
X139362594Y-106440951D01*
X139473846Y-106590956D01*
X139737807Y-106882192D01*
X140029043Y-107146153D01*
X140029049Y-107146158D01*
X140344761Y-107380306D01*
X140344763Y-107380307D01*
X140681899Y-107582379D01*
X140681902Y-107582380D01*
X140681903Y-107582381D01*
X141037228Y-107750438D01*
X141407316Y-107882857D01*
X141788600Y-107978364D01*
X142177409Y-108036038D01*
X142570000Y-108055325D01*
X142962591Y-108036038D01*
X143351400Y-107978364D01*
X143732684Y-107882857D01*
X144102772Y-107750438D01*
X144458097Y-107582381D01*
X144795239Y-107380306D01*
X145110951Y-107146158D01*
X145402192Y-106882192D01*
X145666158Y-106590951D01*
X145900306Y-106275239D01*
X146102381Y-105938097D01*
X146270438Y-105582772D01*
X146402857Y-105212684D01*
X146445018Y-105044368D01*
X146480401Y-104984123D01*
X146542740Y-104952570D01*
X146565301Y-104950500D01*
X150373920Y-104950500D01*
X150471462Y-104931096D01*
X150518913Y-104921658D01*
X150655495Y-104865084D01*
X150705907Y-104831400D01*
X150705907Y-104831399D01*
X150705909Y-104831399D01*
X150742161Y-104807176D01*
X150778416Y-104782952D01*
X155112951Y-100448416D01*
X155195084Y-100325495D01*
X155251658Y-100188913D01*
X155276513Y-100063962D01*
X155280500Y-100043920D01*
X155280500Y-88683461D01*
X155300185Y-88616422D01*
X155352989Y-88570667D01*
X155422147Y-88560723D01*
X155485703Y-88589748D01*
X155503766Y-88609150D01*
X155562452Y-88687544D01*
X155562455Y-88687547D01*
X155677664Y-88773793D01*
X155677671Y-88773797D01*
X155812517Y-88824091D01*
X155812516Y-88824091D01*
X155819444Y-88824835D01*
X155872127Y-88830500D01*
X157167872Y-88830499D01*
X157227483Y-88824091D01*
X157362331Y-88773796D01*
X157477546Y-88687546D01*
X157563796Y-88572331D01*
X157567960Y-88561165D01*
X157609829Y-88505234D01*
X157675293Y-88480816D01*
X157684141Y-88480500D01*
X160825500Y-88480500D01*
X160892539Y-88500185D01*
X160938294Y-88552989D01*
X160949500Y-88604500D01*
X160949500Y-100713120D01*
X160929815Y-100780159D01*
X160877011Y-100825914D01*
X160807853Y-100835858D01*
X160744297Y-100806833D01*
X160742231Y-100805002D01*
X160740955Y-100803845D01*
X160709018Y-100780159D01*
X160425239Y-100569694D01*
X160338359Y-100517620D01*
X160088100Y-100367620D01*
X159732772Y-100199562D01*
X159732770Y-100199561D01*
X159362684Y-100067143D01*
X158981406Y-99971637D01*
X158981401Y-99971636D01*
X158981400Y-99971636D01*
X158837256Y-99950254D01*
X158592599Y-99913963D01*
X158592597Y-99913962D01*
X158592591Y-99913962D01*
X158200000Y-99894675D01*
X157807409Y-99913962D01*
X157807403Y-99913962D01*
X157807400Y-99913963D01*
X157418593Y-99971637D01*
X157037315Y-100067143D01*
X156667229Y-100199561D01*
X156667227Y-100199562D01*
X156311899Y-100367620D01*
X155974763Y-100569692D01*
X155659043Y-100803846D01*
X155367807Y-101067807D01*
X155103846Y-101359043D01*
X154869692Y-101674763D01*
X154667620Y-102011899D01*
X154499562Y-102367227D01*
X154499561Y-102367229D01*
X154367143Y-102737315D01*
X154271637Y-103118593D01*
X154213964Y-103507398D01*
X154213962Y-103507409D01*
X154194675Y-103900000D01*
X154213962Y-104292591D01*
X154213962Y-104292597D01*
X154213963Y-104292599D01*
X154271637Y-104681406D01*
X154367143Y-105062684D01*
X154499561Y-105432770D01*
X154499562Y-105432772D01*
X154667620Y-105788100D01*
X154757525Y-105938097D01*
X154869694Y-106125239D01*
X154980939Y-106275236D01*
X155103846Y-106440956D01*
X155367807Y-106732192D01*
X155659043Y-106996153D01*
X155659049Y-106996158D01*
X155974761Y-107230306D01*
X155974763Y-107230307D01*
X156311899Y-107432379D01*
X156311902Y-107432380D01*
X156311903Y-107432381D01*
X156667228Y-107600438D01*
X157037316Y-107732857D01*
X157418600Y-107828364D01*
X157807409Y-107886038D01*
X158200000Y-107905325D01*
X158592591Y-107886038D01*
X158981400Y-107828364D01*
X159362684Y-107732857D01*
X159732772Y-107600438D01*
X160088097Y-107432381D01*
X160425239Y-107230306D01*
X160740951Y-106996158D01*
X161032192Y-106732192D01*
X161296158Y-106440951D01*
X161530306Y-106125239D01*
X161732381Y-105788097D01*
X161900438Y-105432772D01*
X162032857Y-105062684D01*
X162128364Y-104681400D01*
X162186038Y-104292591D01*
X162205325Y-103900000D01*
X162186038Y-103507409D01*
X162152299Y-103279964D01*
X162161934Y-103210764D01*
X162187277Y-103174089D01*
X162282947Y-103078420D01*
X162282950Y-103078417D01*
X162282950Y-103078416D01*
X162282952Y-103078415D01*
X162321353Y-103020943D01*
X162365084Y-102955495D01*
X162396030Y-102880785D01*
X162421659Y-102818912D01*
X162450500Y-102673917D01*
X162450500Y-102526082D01*
X162450500Y-87726082D01*
X162450500Y-79426082D01*
X162450500Y-71726082D01*
X162450500Y-58026082D01*
X162450500Y-58026079D01*
X162421659Y-57881092D01*
X162421658Y-57881091D01*
X162421658Y-57881087D01*
X162372426Y-57762230D01*
X162365087Y-57744511D01*
X162365080Y-57744498D01*
X162282952Y-57621585D01*
X162258213Y-57596846D01*
X162178416Y-57517049D01*
X159578416Y-54917048D01*
X159578415Y-54917047D01*
X159578413Y-54917045D01*
X159530378Y-54884951D01*
X159498353Y-54863553D01*
X159455495Y-54834916D01*
X159455494Y-54834915D01*
X159455492Y-54834914D01*
X159455490Y-54834913D01*
X159318917Y-54778343D01*
X159318907Y-54778340D01*
X159173920Y-54749500D01*
X159173918Y-54749500D01*
X152721889Y-54749500D01*
X152654850Y-54729815D01*
X152609095Y-54677011D01*
X152599151Y-54607853D01*
X152628176Y-54544297D01*
X152634208Y-54537819D01*
X152714358Y-54457669D01*
X152794517Y-54377510D01*
X152933343Y-54186433D01*
X153040568Y-53975992D01*
X153113553Y-53751368D01*
X153150500Y-53518097D01*
X153150500Y-51781902D01*
X153113553Y-51548631D01*
X153040566Y-51324003D01*
X152933342Y-51113566D01*
X152794517Y-50922490D01*
X152627510Y-50755483D01*
X152436433Y-50616657D01*
X152225996Y-50509433D01*
X152019785Y-50442431D01*
X151962110Y-50402993D01*
X151934912Y-50338634D01*
X151946827Y-50269788D01*
X151994071Y-50218312D01*
X152058104Y-50200500D01*
X164425500Y-50200500D01*
X164492539Y-50220185D01*
X164538294Y-50272989D01*
X164549500Y-50324500D01*
X164549500Y-109075500D01*
X164529815Y-109142539D01*
X164477011Y-109188294D01*
X164425500Y-109199500D01*
X125674500Y-109199500D01*
X125607461Y-109179815D01*
X125561706Y-109127011D01*
X125550500Y-109075500D01*
X125550500Y-50324500D01*
X125570185Y-50257461D01*
X125622989Y-50211706D01*
X125674500Y-50200500D01*
X137541896Y-50200500D01*
X137608935Y-50220185D01*
G37*
%TD.AperFunction*%
M02*
