<svg version="1.1" xmlns="http://www.w3.org/2000/svg" xmlns:xlink="http://www.w3.org/1999/xlink" stroke-linecap="round" stroke-linejoin="round" stroke-width="0" fill-rule="evenodd" clip-rule="evenodd" id="VUtPoPklz_p7S7zyi_Fx_bottom" viewBox="125050 -109700 40000 60000" width="40mm" height="60mm" class="w-100 h-100"><defs><style>.VUtPoPklz_p7S7zyi_Fx_fr4 {color: #666666;}
.VUtPoPklz_p7S7zyi_Fx_cu {color: #cccccc;}
.VUtPoPklz_p7S7zyi_Fx_cf {color: #cc9933;}
.VUtPoPklz_p7S7zyi_Fx_sm {color: #004200; opacity: 0.75;}
.VUtPoPklz_p7S7zyi_Fx_ss {color: #ffffff;}
.VUtPoPklz_p7S7zyi_Fx_sp {color: #999999;}
.VUtPoPklz_p7S7zyi_Fx_out {color: #000000;}</style><rect x="-1750" y="-4500" width="3500" height="9000" rx="1750" ry="1750" id="CMitg64wtC9LRxMKgwUg_pad-10"/><rect x="-800" y="-800" width="1600" height="1600" id="CMitg64wtC9LRxMKgwUg_pad-11"/><circle cx="0" cy="0" r="800" id="CMitg64wtC9LRxMKgwUg_pad-12"/><rect x="-1000" y="-1750" width="2000" height="3500" rx="1000" ry="1000" id="CMitg64wtC9LRxMKgwUg_pad-13"/><rect x="-2000" y="-1000" width="4000" height="2000" rx="1000" ry="1000" id="CMitg64wtC9LRxMKgwUg_pad-14"/><rect x="-800" y="-800" width="1600" height="1600" rx="800" ry="800" id="CMitg64wtC9LRxMKgwUg_pad-15"/><rect x="-600" y="-600" width="1200" height="1200" id="CMitg64wtC9LRxMKgwUg_pad-16"/><circle cx="0" cy="0" r="600" id="CMitg64wtC9LRxMKgwUg_pad-17"/><rect x="-1750" y="-4500" width="3500" height="9000" rx="1750" ry="1750" id="DoOJWn9A1Tj-NXc2ol3G_pad-10"/><rect x="-800" y="-800" width="1600" height="1600" id="DoOJWn9A1Tj-NXc2ol3G_pad-11"/><circle cx="0" cy="0" r="800" id="DoOJWn9A1Tj-NXc2ol3G_pad-12"/><rect x="-1000" y="-1750" width="2000" height="3500" rx="1000" ry="1000" id="DoOJWn9A1Tj-NXc2ol3G_pad-13"/><rect x="-2000" y="-1000" width="4000" height="2000" rx="1000" ry="1000" id="DoOJWn9A1Tj-NXc2ol3G_pad-14"/><rect x="-800" y="-800" width="1600" height="1600" rx="800" ry="800" id="DoOJWn9A1Tj-NXc2ol3G_pad-15"/><rect x="-600" y="-600" width="1200" height="1200" id="DoOJWn9A1Tj-NXc2ol3G_pad-16"/><circle cx="0" cy="0" r="600" id="DoOJWn9A1Tj-NXc2ol3G_pad-17"/><circle cx="0" cy="0" r="11.8" id="gixmkuyWQPloiDHRAqQ5_pad-1"/><circle cx="0" cy="0" r="15.75" id="gixmkuyWQPloiDHRAqQ5_pad-2"/><g id="VUtPoPklz_p7S7zyi_Fx_bottom_soldermask"><use xlink:href="#CMitg64wtC9LRxMKgwUg_pad-10" x="132000" y="-89500"/><use xlink:href="#CMitg64wtC9LRxMKgwUg_pad-10" x="158200" y="-103900"/><use xlink:href="#CMitg64wtC9LRxMKgwUg_pad-10" x="132000" y="-70500"/><use xlink:href="#CMitg64wtC9LRxMKgwUg_pad-10" x="142570" y="-104050"/><use xlink:href="#CMitg64wtC9LRxMKgwUg_pad-11" x="143500" y="-55500"/><use xlink:href="#CMitg64wtC9LRxMKgwUg_pad-12" x="146100" y="-55500"/><use xlink:href="#CMitg64wtC9LRxMKgwUg_pad-12" x="141400" y="-55500"/><use xlink:href="#CMitg64wtC9LRxMKgwUg_pad-12" x="148200" y="-55500"/><use xlink:href="#CMitg64wtC9LRxMKgwUg_pad-12" x="141400" y="-58300"/><use xlink:href="#CMitg64wtC9LRxMKgwUg_pad-12" x="148200" y="-58300"/><use xlink:href="#CMitg64wtC9LRxMKgwUg_pad-13" x="151650" y="-52650"/><use xlink:href="#CMitg64wtC9LRxMKgwUg_pad-14" x="144800" y="-51850"/><use xlink:href="#CMitg64wtC9LRxMKgwUg_pad-13" x="137950" y="-52650"/><use xlink:href="#CMitg64wtC9LRxMKgwUg_pad-12" x="152030" y="-81310"/><use xlink:href="#CMitg64wtC9LRxMKgwUg_pad-15" x="152030" y="-71150"/><use xlink:href="#CMitg64wtC9LRxMKgwUg_pad-16" x="156520" y="-87730"/><use xlink:href="#CMitg64wtC9LRxMKgwUg_pad-17" x="154520" y="-87730"/><use xlink:href="#CMitg64wtC9LRxMKgwUg_pad-12" x="159030" y="-81310"/><use xlink:href="#CMitg64wtC9LRxMKgwUg_pad-15" x="159030" y="-71150"/><use xlink:href="#CMitg64wtC9LRxMKgwUg_pad-11" x="138230" y="-76430"/><use xlink:href="#CMitg64wtC9LRxMKgwUg_pad-15" x="138230" y="-78970"/><use xlink:href="#CMitg64wtC9LRxMKgwUg_pad-15" x="138230" y="-81510"/><use xlink:href="#CMitg64wtC9LRxMKgwUg_pad-15" x="138230" y="-84050"/><use xlink:href="#CMitg64wtC9LRxMKgwUg_pad-15" x="145850" y="-84050"/><use xlink:href="#CMitg64wtC9LRxMKgwUg_pad-15" x="145850" y="-81510"/><use xlink:href="#CMitg64wtC9LRxMKgwUg_pad-15" x="145850" y="-78970"/><use xlink:href="#CMitg64wtC9LRxMKgwUg_pad-15" x="145850" y="-76430"/></g><g id="VUtPoPklz_p7S7zyi_Fx_bottom_copper"><use xlink:href="#DoOJWn9A1Tj-NXc2ol3G_pad-10" x="132000" y="-89500"/><use xlink:href="#DoOJWn9A1Tj-NXc2ol3G_pad-10" x="158200" y="-103900"/><use xlink:href="#DoOJWn9A1Tj-NXc2ol3G_pad-10" x="132000" y="-70500"/><use xlink:href="#DoOJWn9A1Tj-NXc2ol3G_pad-10" x="142570" y="-104050"/><use xlink:href="#DoOJWn9A1Tj-NXc2ol3G_pad-11" x="143500" y="-55500"/><use xlink:href="#DoOJWn9A1Tj-NXc2ol3G_pad-12" x="146100" y="-55500"/><use xlink:href="#DoOJWn9A1Tj-NXc2ol3G_pad-12" x="141400" y="-55500"/><use xlink:href="#DoOJWn9A1Tj-NXc2ol3G_pad-12" x="148200" y="-55500"/><use xlink:href="#DoOJWn9A1Tj-NXc2ol3G_pad-12" x="141400" y="-58300"/><use xlink:href="#DoOJWn9A1Tj-NXc2ol3G_pad-12" x="148200" y="-58300"/><use xlink:href="#DoOJWn9A1Tj-NXc2ol3G_pad-13" x="151650" y="-52650"/><use xlink:href="#DoOJWn9A1Tj-NXc2ol3G_pad-14" x="144800" y="-51850"/><use xlink:href="#DoOJWn9A1Tj-NXc2ol3G_pad-13" x="137950" y="-52650"/><use xlink:href="#DoOJWn9A1Tj-NXc2ol3G_pad-12" x="152030" y="-81310"/><use xlink:href="#DoOJWn9A1Tj-NXc2ol3G_pad-15" x="152030" y="-71150"/><use xlink:href="#DoOJWn9A1Tj-NXc2ol3G_pad-16" x="156520" y="-87730"/><use xlink:href="#DoOJWn9A1Tj-NXc2ol3G_pad-17" x="154520" y="-87730"/><use xlink:href="#DoOJWn9A1Tj-NXc2ol3G_pad-12" x="159030" y="-81310"/><use xlink:href="#DoOJWn9A1Tj-NXc2ol3G_pad-15" x="159030" y="-71150"/><use xlink:href="#DoOJWn9A1Tj-NXc2ol3G_pad-11" x="138230" y="-76430"/><use xlink:href="#DoOJWn9A1Tj-NXc2ol3G_pad-15" x="138230" y="-78970"/><use xlink:href="#DoOJWn9A1Tj-NXc2ol3G_pad-15" x="138230" y="-81510"/><use xlink:href="#DoOJWn9A1Tj-NXc2ol3G_pad-15" x="138230" y="-84050"/><use xlink:href="#DoOJWn9A1Tj-NXc2ol3G_pad-15" x="145850" y="-84050"/><use xlink:href="#DoOJWn9A1Tj-NXc2ol3G_pad-15" x="145850" y="-81510"/><use xlink:href="#DoOJWn9A1Tj-NXc2ol3G_pad-15" x="145850" y="-78970"/><use xlink:href="#DoOJWn9A1Tj-NXc2ol3G_pad-15" x="145850" y="-76430"/><path d="M 138230 -102030 140400 -104200 M 129800 -55500 127900 -57400 M 150300 -104200 154530 -99970" fill="none" stroke-width="500"/><path d="M 138230 -98070 138200 -98100" fill="none" stroke-width="200"/><path d="M 154530 -99970 154530 -87730 M 142500 -104200 140400 -104200 M 130800 -104200 127900 -101300 M 142500 -104200 150300 -104200" fill="none" stroke-width="500"/><path d="M 138200 -97230 138230 -97200" fill="none" stroke-width="200"/><path d="M 138230 -84050 138230 -97500" fill="none" stroke-width="500"/><path d="M 138200 -98100 138200 -97230" fill="none" stroke-width="200"/><path d="M 127900 -57400 127900 -101300 M 141400 -55500 129800 -55500 M 138230 -97500 138230 -98070 M 138230 -97500 138230 -102030 M 140400 -104200 130800 -104200" fill="none" stroke-width="500"/><path d="M 159000 -103100 158200 -103900" fill="none" stroke-width="200"/><path d="M 161700 -87800 161700 -102600 M 150730 -81310 145850 -76430" fill="none" stroke-width="500"/><path d="M 156630 -81410 156730 -81310 M 156530 -87730 156630 -87630" fill="none" stroke-width="200"/><path d="M 159030 -81310 156730 -81310" fill="none" stroke-width="500"/><path d="M 161630 -87730 161700 -87800" fill="none" stroke-width="200"/><path d="M 161700 -80160 161700 -79500 161700 -71800 M 161700 -102600 160400 -103900 M 161700 -79500 161700 -87800 M 160550 -81310 161700 -80160 M 156530 -87730 161630 -87730 M 152030 -81310 150730 -81310 M 160400 -103900 158200 -103900 M 159030 -81310 160550 -81310 M 161700 -58100 161700 -72200" fill="none" stroke-width="500"/><path d="M 161700 -72200 161700 -71800" fill="none" stroke-width="200"/><path d="M 159100 -55500 161700 -58100" fill="none" stroke-width="500"/><path d="M 161730 -80130 161730 -79930" fill="none" stroke-width="200"/><path d="M 148200 -55500 159100 -55500 M 156730 -81310 152030 -81310 M 148200 -62397.9 148200 -58300 M 132000 -78597.9 148200 -62397.9 M 132000 -89500 132000 -78597.9 M 134400 -70500 146100 -58800 146100 -55500 M 132000 -70500 134400 -70500" fill="none" stroke-width="500"/><path d="M 158750 -71150 159030 -71150 M 159030 -70650 159030 -71150 159030 -71751.7" fill="none" stroke-width="200"/><path d="M 143305.053 -50220.185 143350.808 -50272.989 143360.752 -50342.147 143331.727 -50405.703 143276.334 -50442.43 143253.631 -50449.806 143224.003 -50459.433 143013.566 -50566.657 142944.748 -50616.657 142822.49 -50705.483 142822.488 -50705.485 142822.487 -50705.485 142655.485 -50872.487 142655.485 -50872.488 142655.483 -50872.49 142619.158 -50922.487 142516.657 -51063.566 142409.433 -51274.003 142336.446 -51498.631 142299.5 -51731.902 142299.5 -51968.097 142336.446 -52201.368 142409.433 -52425.996 142516.657 -52636.433 142655.483 -52827.51 142822.49 -52994.517 143013.567 -53133.343 143112.991 -53184.002 143224.003 -53240.566 143224.005 -53240.566 143224.008 -53240.568 143344.412 -53279.689 143448.631 -53313.553 143681.903 -53350.5 143681.908 -53350.5 145918.097 -53350.5 146151.368 -53313.553 146375.992 -53240.568 146586.433 -53133.343 146777.51 -52994.517 146944.517 -52827.51 147083.343 -52636.433 147190.568 -52425.992 147263.553 -52201.368 147300.5 -51968.097 147300.5 -51731.902 147263.553 -51498.631 147190.566 -51274.003 147083.342 -51063.566 146944.517 -50872.49 146777.51 -50705.483 146586.433 -50566.657 146375.996 -50459.433 146355.845 -50452.886 146323.665 -50442.43 146265.992 -50402.993 146238.794 -50338.634 146250.709 -50269.788 146297.953 -50218.312 146361.986 -50200.5 151241.896 -50200.5 151308.935 -50220.185 151354.69 -50272.989 151364.634 -50342.147 151335.609 -50405.703 151280.215 -50442.431 151074.003 -50509.433 150863.566 -50616.657 150754.55 -50695.862 150672.49 -50755.483 150672.488 -50755.485 150672.487 -50755.485 150505.485 -50922.487 150505.485 -50922.488 150505.483 -50922.49 150445.862 -51004.55 150366.657 -51113.566 150259.433 -51324.003 150186.446 -51548.631 150149.5 -51781.902 150149.5 -53518.097 150186.446 -53751.368 150259.433 -53975.996 150366.657 -54186.433 150505.483 -54377.51 150505.485 -54377.512 150665.792 -54537.819 150699.277 -54599.142 150694.293 -54668.834 150652.421 -54724.767 150586.957 -54749.184 150578.111 -54749.5 149326.663 -54749.5 149259.624 -54729.815 149225.088 -54696.623 149200.045 -54660.858 149039.141 -54499.954 148852.734 -54369.432 148852.732 -54369.431 148646.497 -54273.261 148646.488 -54273.258 148426.697 -54214.366 148426.693 -54214.365 148426.692 -54214.365 148426.691 -54214.364 148426.686 -54214.364 148200.002 -54194.532 148199.998 -54194.532 147973.313 -54214.364 147973.302 -54214.366 147753.511 -54273.258 147753.502 -54273.261 147547.267 -54369.431 147547.265 -54369.432 147360.858 -54499.954 147237.681 -54623.132 147176.358 -54656.617 147106.666 -54651.633 147062.319 -54623.132 146939.141 -54499.954 146752.734 -54369.432 146752.732 -54369.431 146546.497 -54273.261 146546.488 -54273.258 146326.697 -54214.366 146326.693 -54214.365 146326.692 -54214.365 146326.691 -54214.364 146326.686 -54214.364 146100.002 -54194.532 146099.998 -54194.532 145873.313 -54214.364 145873.302 -54214.366 145653.511 -54273.258 145653.502 -54273.261 145447.267 -54369.431 145447.265 -54369.432 145260.858 -54499.954 145099.954 -54660.858 145026.074 -54766.372 144971.498 -54809.997 144901.999 -54817.191 144839.644 -54785.669 144804.23 -54725.439 144800.499 -54695.249 144800.499 -54652.129 144800.498 -54652.123 144800.445 -54651.633 144794.091 -54592.517 144776.188 -54544.517 144743.797 -54457.671 144743.793 -54457.664 144657.547 -54342.455 144657.544 -54342.452 144542.335 -54256.206 144542.328 -54256.202 144407.482 -54205.908 144407.483 -54205.908 144347.883 -54199.501 144347.881 -54199.5 144347.873 -54199.5 144347.864 -54199.5 142652.129 -54199.5 142652.123 -54199.501 142592.516 -54205.908 142457.671 -54256.202 142457.664 -54256.206 142342.455 -54342.452 142301.555 -54397.087 142245.62 -54438.958 142175.929 -54443.941 142131.166 -54424.35 142052.734 -54369.432 142052.732 -54369.431 141846.497 -54273.261 141846.488 -54273.258 141626.697 -54214.366 141626.693 -54214.365 141626.692 -54214.365 141626.691 -54214.364 141626.686 -54214.364 141400.002 -54194.532 141399.998 -54194.532 141173.313 -54214.364 141173.302 -54214.366 140953.511 -54273.258 140953.502 -54273.261 140747.267 -54369.431 140747.265 -54369.432 140560.858 -54499.954 140399.954 -54660.858 140374.912 -54696.623 140320.335 -54740.248 140273.337 -54749.5 139021.889 -54749.5 138954.85 -54729.815 138909.095 -54677.011 138899.151 -54607.853 138928.176 -54544.297 138934.208 -54537.819 139014.358 -54457.669 139094.517 -54377.51 139233.343 -54186.433 139340.568 -53975.992 139413.553 -53751.368 139450.5 -53518.097 139450.5 -51781.902 139413.553 -51548.631 139340.566 -51324.003 139233.342 -51113.566 139094.517 -50922.49 138927.51 -50755.483 138736.433 -50616.657 138525.996 -50509.433 138319.785 -50442.431 138262.11 -50402.993 138234.912 -50338.634 138246.827 -50269.788 138294.071 -50218.312 138358.104 -50200.5 143238.014 -50200.5 143305.053 -50220.185"/><path d="M 147193.334 -56348.367 147237.681 -56376.868 147360.858 -56500.045 147360.861 -56500.047 147547.266 -56630.568 147753.504 -56726.739 147753.509 -56726.74 147753.511 -56726.741 147953.117 -56780.225 148012.778 -56816.59 148043.307 -56879.437 148035.012 -56948.812 147990.527 -57002.69 147953.117 -57019.775 147753.511 -57073.258 147753.502 -57073.261 147547.267 -57169.431 147547.265 -57169.432 147360.858 -57299.954 147199.954 -57460.858 147076.075 -57637.779 147021.499 -57681.404 146952 -57688.598 146889.645 -57657.076 146854.231 -57596.846 146850.5 -57566.656 146850.5 -56626.662 146870.185 -56559.623 146903.379 -56525.086 146939.14 -56500.046 147062.319 -56376.868 147123.642 -56343.383 147193.334 -56348.367"/><path d="M 145005.7 -56211.037 145026.074 -56233.629 145099.953 -56339.14 145260.859 -56500.046 145296.621 -56525.086 145340.247 -56579.662 145349.5 -56626.662 145349.5 -58437.77 145329.815 -58504.809 145313.181 -58525.451 134462.181 -69376.451 134400.858 -69409.936 134331.166 -69404.952 134275.233 -69363.08 134250.816 -69297.616 134250.5 -69288.77 134250.5 -67602.5 134250.499 -67602.486 134248.646 -67588.415 134211.993 -67310.007 134135.639 -67025.048 134022.743 -66752.493 133875.238 -66497.006 133695.646 -66262.958 133695.641 -66262.952 133487.047 -66054.358 133487.04 -66054.352 133252.993 -65874.761 132997.51 -65727.258 132997.5 -65727.254 132724.961 -65614.364 132724.954 -65614.362 132724.952 -65614.361 132439.993 -65538.007 132391.113 -65531.571 132147.513 -65499.5 132147.506 -65499.5 131852.494 -65499.5 131852.486 -65499.5 131574.085 -65536.153 131560.007 -65538.007 131275.048 -65614.361 131275.038 -65614.364 131002.499 -65727.254 131002.489 -65727.258 130747.006 -65874.761 130512.959 -66054.352 130512.952 -66054.358 130304.358 -66262.952 130304.352 -66262.959 130124.761 -66497.006 129977.258 -66752.489 129977.254 -66752.499 129864.364 -67025.038 129864.361 -67025.048 129788.008 -67310.004 129788.006 -67310.015 129749.5 -67602.486 129749.5 -73397.513 129781.571 -73641.113 129788.007 -73689.993 129788.008 -73689.995 129864.361 -73974.951 129864.364 -73974.961 129977.254 -74247.5 129977.258 -74247.51 130124.761 -74502.993 130304.352 -74737.04 130304.358 -74737.047 130512.952 -74945.641 130512.959 -74945.647 130747.006 -75125.238 131002.489 -75272.741 131002.49 -75272.741 131002.493 -75272.743 131275.048 -75385.639 131560.007 -75461.993 131852.494 -75500.5 131852.501 -75500.5 132147.499 -75500.5 132147.506 -75500.5 132439.993 -75461.993 132724.952 -75385.639 132997.507 -75272.743 133252.994 -75125.238 133487.042 -74945.646 133695.646 -74737.042 133875.238 -74502.994 134022.743 -74247.507 134135.639 -73974.952 134211.993 -73689.993 134250.5 -73397.506 134250.5 -71374.5 134270.185 -71307.461 134322.989 -71261.706 134374.5 -71250.5 134473.92 -71250.5 134571.462 -71231.096 134618.913 -71221.658 134755.495 -71165.084 134804.729 -71132.186 134878.416 -71082.952 146682.952 -59278.415 146710.205 -59237.627 146765.084 -59155.495 146788.894 -59098.013 146821.659 -59018.912 146831.071 -58971.592 146863.455 -58909.684 146924.17 -58875.109 146993.94 -58878.848 147050.612 -58919.713 147065.069 -58943.377 147069.432 -58952.734 147199.954 -59139.141 147360.859 -59300.046 147396.621 -59325.086 147440.247 -59379.662 147449.5 -59426.662 147449.5 -62035.669 147429.815 -62102.708 147413.181 -62123.35 131417.05 -78119.48 131417.044 -78119.488 131367.812 -78193.168 131367.813 -78193.169 131334.921 -78242.396 131334.914 -78242.408 131278.342 -78378.986 131278.34 -78378.992 131249.5 -78523.979 131249.5 -84542.088 131229.815 -84609.127 131177.011 -84654.882 131172.953 -84656.649 131002.499 -84727.253 131002.489 -84727.258 130747.006 -84874.761 130512.959 -85054.352 130512.952 -85054.358 130304.358 -85262.952 130304.352 -85262.959 130124.761 -85497.006 129977.258 -85752.489 129977.254 -85752.499 129864.364 -86025.038 129864.361 -86025.048 129788.008 -86310.004 129788.006 -86310.015 129749.5 -86602.486 129749.5 -92397.513 129781.571 -92641.113 129788.007 -92689.993 129788.008 -92689.995 129864.361 -92974.951 129864.364 -92974.961 129977.254 -93247.5 129977.258 -93247.51 130124.761 -93502.993 130304.352 -93737.04 130304.358 -93737.047 130512.952 -93945.641 130512.959 -93945.647 130747.006 -94125.238 131002.489 -94272.741 131002.49 -94272.741 131002.493 -94272.743 131275.048 -94385.639 131560.007 -94461.993 131852.494 -94500.5 131852.501 -94500.5 132147.499 -94500.5 132147.506 -94500.5 132439.993 -94461.993 132724.952 -94385.639 132997.507 -94272.743 133252.994 -94125.238 133487.042 -93945.646 133695.646 -93737.042 133875.238 -93502.994 134022.743 -93247.507 134135.639 -92974.952 134211.993 -92689.993 134250.5 -92397.506 134250.5 -86602.494 134211.993 -86310.007 134135.639 -86025.048 134022.743 -85752.493 133875.238 -85497.006 133695.646 -85262.958 133695.641 -85262.952 133487.047 -85054.358 133487.04 -85054.352 133252.993 -84874.761 132997.51 -84727.258 132997.5 -84727.253 132827.047 -84656.649 132772.644 -84612.808 132750.579 -84546.513 132750.5 -84542.088 132750.5 -78960.13 132770.185 -78893.091 132786.819 -78872.449 140509.27 -71149.998 150724.532 -71149.998 150724.532 -71150.001 150744.364 -71376.686 150744.366 -71376.697 150803.258 -71596.488 150803.261 -71596.497 150899.431 -71802.732 150899.432 -71802.734 151029.954 -71989.141 151190.858 -72150.045 151190.861 -72150.047 151377.266 -72280.568 151583.504 -72376.739 151803.308 -72435.635 151965.23 -72449.801 152029.998 -72455.468 152030 -72455.468 152030.002 -72455.468 152086.673 -72450.509 152256.692 -72435.635 152476.496 -72376.739 152682.734 -72280.568 152869.139 -72150.047 153030.047 -71989.139 153160.568 -71802.734 153256.739 -71596.496 153315.635 -71376.692 153335.468 -71150 153335.468 -71149.998 157724.532 -71149.998 157724.532 -71150.001 157744.364 -71376.686 157744.366 -71376.697 157803.258 -71596.488 157803.261 -71596.497 157899.431 -71802.732 157899.432 -71802.734 158029.954 -71989.141 158190.858 -72150.045 158190.861 -72150.047 158377.266 -72280.568 158583.504 -72376.739 158803.308 -72435.635 158965.23 -72449.801 159029.998 -72455.468 159030 -72455.468 159030.002 -72455.468 159086.673 -72450.509 159256.692 -72435.635 159476.496 -72376.739 159682.734 -72280.568 159869.139 -72150.047 160030.047 -71989.139 160160.568 -71802.734 160256.739 -71596.496 160315.635 -71376.692 160335.468 -71150 160333.909 -71132.186 160315.635 -70923.313 160315.635 -70923.308 160256.739 -70703.504 160160.568 -70497.266 160030.047 -70310.861 160030.045 -70310.858 159869.141 -70149.954 159682.734 -70019.432 159682.732 -70019.431 159476.497 -69923.261 159476.488 -69923.258 159256.697 -69864.366 159256.693 -69864.365 159256.692 -69864.365 159256.691 -69864.364 159256.686 -69864.364 159030.002 -69844.532 159029.998 -69844.532 158803.313 -69864.364 158803.302 -69864.366 158583.511 -69923.258 158583.502 -69923.261 158377.267 -70019.431 158377.265 -70019.432 158190.858 -70149.954 158029.954 -70310.858 157899.432 -70497.265 157899.431 -70497.267 157803.261 -70703.502 157803.258 -70703.511 157744.366 -70923.302 157744.364 -70923.313 157724.532 -71149.998 153335.468 -71149.998 153333.909 -71132.186 153315.635 -70923.313 153315.635 -70923.308 153256.739 -70703.504 153160.568 -70497.266 153030.047 -70310.861 153030.045 -70310.858 152869.141 -70149.954 152682.734 -70019.432 152682.732 -70019.431 152476.497 -69923.261 152476.488 -69923.258 152256.697 -69864.366 152256.693 -69864.365 152256.692 -69864.365 152256.691 -69864.364 152256.686 -69864.364 152030.002 -69844.532 152029.998 -69844.532 151803.313 -69864.364 151803.302 -69864.366 151583.511 -69923.258 151583.502 -69923.261 151377.267 -70019.431 151377.265 -70019.432 151190.858 -70149.954 151029.954 -70310.858 150899.432 -70497.265 150899.431 -70497.267 150803.261 -70703.502 150803.258 -70703.511 150744.366 -70923.302 150744.364 -70923.313 150724.532 -71149.998 140509.27 -71149.998 140735.966 -70923.302 148782.952 -62876.316 148832.186 -62802.629 148865.084 -62753.395 148888.518 -62696.82 148921.659 -62616.812 148950.5 -62471.817 148950.5 -62323.982 148950.5 -59426.662 148970.185 -59359.623 149003.379 -59325.086 149039.14 -59300.046 149200.045 -59139.141 149200.047 -59139.139 149330.568 -58952.734 149426.739 -58746.496 149485.635 -58526.692 149505.468 -58300 149485.635 -58073.308 149434.13 -57881.087 149426.741 -57853.511 149426.738 -57853.502 149375.914 -57744.511 149330.568 -57647.266 149200.047 -57460.861 149200.045 -57460.858 149039.141 -57299.954 148852.734 -57169.432 148852.732 -57169.431 148646.497 -57073.261 148646.488 -57073.258 148446.882 -57019.775 148387.221 -56983.41 148356.692 -56920.563 148364.987 -56851.188 148409.472 -56797.31 148446.882 -56780.225 148582.849 -56743.793 148646.496 -56726.739 148852.734 -56630.568 149039.139 -56500.047 149200.047 -56339.139 149225.088 -56303.377 149279.665 -56259.752 149326.663 -56250.5 158737.77 -56250.5 158804.809 -56270.185 158825.451 -56286.819 160913.181 -58374.548 160946.666 -58435.871 160949.5 -58462.229 160949.5 -79797.77 160929.815 -79864.809 160913.181 -79885.451 160275.451 -80523.181 160214.128 -80556.666 160187.77 -80559.5 160156.663 -80559.5 160089.624 -80539.815 160055.088 -80506.623 160030.045 -80470.858 159869.141 -80309.954 159682.734 -80179.432 159682.732 -80179.431 159476.497 -80083.261 159476.488 -80083.258 159256.697 -80024.366 159256.693 -80024.365 159256.692 -80024.365 159256.691 -80024.364 159256.686 -80024.364 159030.002 -80004.532 159029.998 -80004.532 158803.313 -80024.364 158803.302 -80024.366 158583.511 -80083.258 158583.502 -80083.261 158377.267 -80179.431 158377.265 -80179.432 158190.858 -80309.954 158029.954 -80470.858 158004.912 -80506.623 157950.335 -80550.248 157903.337 -80559.5 153156.663 -80559.5 153089.624 -80539.815 153055.088 -80506.623 153030.045 -80470.858 152869.141 -80309.954 152682.734 -80179.432 152682.732 -80179.431 152476.497 -80083.261 152476.488 -80083.258 152256.697 -80024.366 152256.693 -80024.365 152256.692 -80024.365 152256.691 -80024.364 152256.686 -80024.364 152030.002 -80004.532 152029.998 -80004.532 151803.313 -80024.364 151803.302 -80024.366 151583.511 -80083.258 151583.502 -80083.261 151377.267 -80179.431 151377.265 -80179.432 151190.858 -80309.954 151078.771 -80422.042 151017.448 -80455.527 150947.756 -80450.543 150903.409 -80422.042 147176.716 -76695.348 147143.231 -76634.025 147140.869 -76596.863 147155.468 -76430 147135.635 -76203.308 147076.739 -75983.504 146980.568 -75777.266 146850.047 -75590.861 146850.045 -75590.858 146689.141 -75429.954 146502.734 -75299.432 146502.732 -75299.431 146296.497 -75203.261 146296.488 -75203.258 146076.697 -75144.366 146076.693 -75144.365 146076.692 -75144.365 146076.691 -75144.364 146076.686 -75144.364 145850.002 -75124.532 145849.998 -75124.532 145623.313 -75144.364 145623.302 -75144.366 145403.511 -75203.258 145403.502 -75203.261 145197.267 -75299.431 145197.265 -75299.432 145010.858 -75429.954 144849.954 -75590.858 144719.432 -75777.265 144719.431 -75777.267 144623.261 -75983.502 144623.258 -75983.511 144564.366 -76203.302 144564.364 -76203.313 144544.532 -76429.998 144544.532 -76430.001 144564.364 -76656.686 144564.366 -76656.697 144623.258 -76876.488 144623.261 -76876.497 144719.431 -77082.732 144719.432 -77082.734 144849.954 -77269.141 145010.858 -77430.045 145010.861 -77430.047 145197.266 -77560.568 145255.275 -77587.618 145307.714 -77633.791 145326.866 -77700.984 145306.65 -77767.865 145255.275 -77812.382 145197.267 -77839.431 145197.265 -77839.432 145010.858 -77969.954 144849.954 -78130.858 144719.432 -78317.265 144719.431 -78317.267 144623.261 -78523.502 144623.258 -78523.511 144564.366 -78743.302 144564.364 -78743.313 144544.532 -78969.998 144544.532 -78970.001 144564.364 -79196.686 144564.366 -79196.697 144623.258 -79416.488 144623.261 -79416.497 144719.431 -79622.732 144719.432 -79622.734 144849.954 -79809.141 145010.858 -79970.045 145010.861 -79970.047 145197.266 -80100.568 145255.275 -80127.618 145307.714 -80173.791 145326.866 -80240.984 145306.65 -80307.865 145255.275 -80352.382 145197.267 -80379.431 145197.265 -80379.432 145010.858 -80509.954 144849.954 -80670.858 144719.432 -80857.265 144719.431 -80857.267 144623.261 -81063.502 144623.258 -81063.511 144564.366 -81283.302 144564.364 -81283.313 144544.532 -81509.998 144544.532 -81510.001 144564.364 -81736.686 144564.366 -81736.697 144623.258 -81956.488 144623.261 -81956.497 144719.431 -82162.732 144719.432 -82162.734 144849.954 -82349.141 145010.858 -82510.045 145010.861 -82510.047 145197.266 -82640.568 145255.275 -82667.618 145307.714 -82713.791 145326.866 -82780.984 145306.65 -82847.865 145255.275 -82892.382 145197.267 -82919.431 145197.265 -82919.432 145010.858 -83049.954 144849.954 -83210.858 144719.432 -83397.265 144719.431 -83397.267 144623.261 -83603.502 144623.258 -83603.511 144564.366 -83823.302 144564.364 -83823.313 144544.532 -84049.998 144544.532 -84050.001 144564.364 -84276.686 144564.366 -84276.697 144623.258 -84496.488 144623.261 -84496.497 144719.431 -84702.732 144719.432 -84702.734 144849.954 -84889.141 145010.858 -85050.045 145010.861 -85050.047 145197.266 -85180.568 145403.504 -85276.739 145623.308 -85335.635 145785.23 -85349.801 145849.998 -85355.468 145850 -85355.468 145850.002 -85355.468 145906.673 -85350.509 146076.692 -85335.635 146296.496 -85276.739 146502.734 -85180.568 146689.139 -85050.047 146850.047 -84889.139 146980.568 -84702.734 147076.739 -84496.496 147135.635 -84276.692 147155.468 -84050 147135.635 -83823.308 147076.739 -83603.504 146980.568 -83397.266 146850.047 -83210.861 146850.045 -83210.858 146689.141 -83049.954 146502.734 -82919.432 146502.728 -82919.429 146444.725 -82892.382 146392.285 -82846.21 146373.133 -82779.017 146393.348 -82712.135 146444.725 -82667.618 146502.734 -82640.568 146689.139 -82510.047 146850.047 -82349.139 146980.568 -82162.734 147076.739 -81956.496 147135.635 -81736.692 147155.468 -81510 147135.635 -81283.308 147076.739 -81063.504 146980.568 -80857.266 146850.047 -80670.861 146850.045 -80670.858 146689.141 -80509.954 146502.734 -80379.432 146502.728 -80379.429 146444.725 -80352.382 146392.285 -80306.21 146373.133 -80239.017 146393.348 -80172.135 146444.725 -80127.618 146502.734 -80100.568 146689.139 -79970.047 146850.047 -79809.139 146980.568 -79622.734 147076.739 -79416.496 147135.635 -79196.692 147146.223 -79075.67 147171.674 -79010.604 147228.265 -78969.626 147298.027 -78965.747 147357.431 -78998.799 148780.675 -80422.042 150147.049 -81788.416 150251.584 -81892.951 150251.585 -81892.952 150374.498 -81975.08 150374.511 -81975.087 150501.954 -82027.875 150511.087 -82031.658 150511.091 -82031.658 150511.092 -82031.659 150656.079 -82060.5 150656.082 -82060.5 150903.337 -82060.5 150970.376 -82080.185 151004.912 -82113.377 151029.954 -82149.141 151190.858 -82310.045 151190.861 -82310.047 151377.266 -82440.568 151583.504 -82536.739 151803.308 -82595.635 151965.23 -82609.801 152029.998 -82615.468 152030 -82615.468 152030.002 -82615.468 152086.673 -82610.509 152256.692 -82595.635 152476.496 -82536.739 152682.734 -82440.568 152869.139 -82310.047 153030.047 -82149.139 153055.088 -82113.377 153109.665 -82069.752 153156.663 -82060.5 156656.082 -82060.5 157903.337 -82060.5 157970.376 -82080.185 158004.912 -82113.377 158029.954 -82149.141 158190.858 -82310.045 158190.861 -82310.047 158377.266 -82440.568 158583.504 -82536.739 158803.308 -82595.635 158965.23 -82609.801 159029.998 -82615.468 159030 -82615.468 159030.002 -82615.468 159086.673 -82610.509 159256.692 -82595.635 159476.496 -82536.739 159682.734 -82440.568 159869.139 -82310.047 160030.047 -82149.139 160055.088 -82113.377 160109.665 -82069.752 160156.663 -82060.5 160623.92 -82060.5 160721.462 -82041.096 160768.913 -82031.658 160778.046 -82027.874 160847.514 -82020.405 160909.994 -82051.678 160945.648 -82111.766 160949.5 -82142.435 160949.5 -86855.5 160929.815 -86922.539 160877.011 -86968.294 160825.5 -86979.5 157684.141 -86979.5 157617.102 -86959.815 157571.347 -86907.011 157567.969 -86898.859 157563.796 -86887.669 157563.793 -86887.665 157563.793 -86887.664 157477.547 -86772.455 157477.544 -86772.452 157362.335 -86686.206 157362.328 -86686.202 157227.482 -86635.908 157227.483 -86635.908 157167.883 -86629.501 157167.881 -86629.5 157167.873 -86629.5 157167.864 -86629.5 155872.129 -86629.5 155872.123 -86629.501 155812.516 -86635.908 155677.671 -86686.202 155677.664 -86686.206 155562.455 -86772.452 155562.452 -86772.455 155476.206 -86887.664 155471.953 -86895.454 155469.741 -86894.246 155435.84 -86939.511 155370.37 -86963.913 155302.101 -86949.045 155278.015 -86931.864 155186.041 -86848.019 155186.039 -86848.017 155012.642 -86740.655 155012.635 -86740.651 154917.546 -86703.814 154822.456 -86666.976 154621.976 -86629.5 154418.024 -86629.5 154217.544 -86666.976 154217.541 -86666.976 154217.541 -86666.977 154027.364 -86740.651 154027.357 -86740.655 153853.96 -86848.017 153853.958 -86848.019 153703.237 -86985.418 153580.327 -87148.178 153489.422 -87330.739 153489.417 -87330.752 153433.602 -87526.917 153414.785 -87729.999 153414.785 -87730 153433.602 -87933.082 153489.417 -88129.247 153489.422 -88129.26 153580.327 -88311.821 153703.236 -88474.579 153739.038 -88507.216 153775.319 -88566.928 153779.5 -88598.854 153779.5 -99607.77 153759.815 -99674.809 153743.181 -99695.451 150025.451 -103413.181 149964.128 -103446.666 149937.77 -103449.5 144944.5 -103449.5 144877.461 -103429.815 144831.706 -103377.011 144820.5 -103325.5 144820.5 -101152.5 144820.499 -101152.486 144803.774 -101025.451 144781.993 -100860.007 144705.639 -100575.048 144592.743 -100302.493 144506.138 -100152.489 144445.238 -100047.006 144265.647 -99812.959 144265.641 -99812.952 144057.047 -99604.358 144057.04 -99604.352 143822.993 -99424.761 143567.51 -99277.258 143567.5 -99277.254 143294.961 -99164.364 143294.954 -99164.362 143294.952 -99164.361 143009.993 -99088.007 142961.113 -99081.571 142717.513 -99049.5 142717.506 -99049.5 142422.494 -99049.5 142422.486 -99049.5 142144.085 -99086.153 142130.007 -99088.007 141845.048 -99164.361 141845.038 -99164.364 141572.499 -99277.254 141572.489 -99277.258 141317.006 -99424.761 141082.959 -99604.352 141082.952 -99604.358 140874.358 -99812.952 140874.352 -99812.959 140694.761 -100047.006 140547.258 -100302.489 140547.254 -100302.499 140434.364 -100575.038 140434.361 -100575.048 140358.008 -100860.004 140358.006 -100860.015 140319.5 -101152.486 140319.5 -102758.77 140299.815 -102825.809 140247.011 -102871.564 140177.853 -102881.508 140114.297 -102852.483 140107.819 -102846.451 139016.819 -101755.451 138983.334 -101694.128 138980.5 -101667.77 138980.5 -85176.662 139000.185 -85109.623 139033.379 -85075.086 139062.988 -85054.354 139069.139 -85050.047 139230.047 -84889.139 139360.568 -84702.734 139456.739 -84496.496 139515.635 -84276.692 139535.468 -84050 139515.635 -83823.308 139456.739 -83603.504 139360.568 -83397.266 139230.047 -83210.861 139230.045 -83210.858 139069.141 -83049.954 138882.734 -82919.432 138882.728 -82919.429 138824.725 -82892.382 138772.285 -82846.21 138753.133 -82779.017 138773.348 -82712.135 138824.725 -82667.618 138882.734 -82640.568 139069.139 -82510.047 139230.047 -82349.139 139360.568 -82162.734 139456.739 -81956.496 139515.635 -81736.692 139535.468 -81510 139515.635 -81283.308 139456.739 -81063.504 139360.568 -80857.266 139230.047 -80670.861 139230.045 -80670.858 139069.141 -80509.954 138882.734 -80379.432 138882.728 -80379.429 138824.725 -80352.382 138772.285 -80306.21 138753.133 -80239.017 138773.348 -80172.135 138824.725 -80127.618 138882.734 -80100.568 139069.139 -79970.047 139230.047 -79809.139 139360.568 -79622.734 139456.739 -79416.496 139515.635 -79196.692 139535.468 -78970 139534.604 -78960.13 139526.933 -78872.449 139515.635 -78743.308 139456.739 -78523.504 139360.568 -78317.266 139230.047 -78130.861 139230.045 -78130.858 139069.143 -77969.956 139044.536 -77952.726 139000.912 -77898.149 138993.719 -77828.65 139025.241 -77766.296 139085.471 -77730.882 139102.404 -77727.861 139137.483 -77724.091 139272.331 -77673.796 139387.546 -77587.546 139473.796 -77472.331 139524.091 -77337.483 139530.5 -77277.873 139530.499 -75582.128 139524.091 -75522.517 139515.879 -75500.5 139473.797 -75387.671 139473.793 -75387.664 139387.547 -75272.455 139387.544 -75272.452 139272.335 -75186.206 139272.328 -75186.202 139137.482 -75135.908 139137.483 -75135.908 139077.883 -75129.501 139077.881 -75129.5 139077.873 -75129.5 139077.864 -75129.5 137382.129 -75129.5 137382.123 -75129.501 137322.516 -75135.908 137187.671 -75186.202 137187.664 -75186.206 137072.455 -75272.452 137072.452 -75272.455 136986.206 -75387.664 136986.202 -75387.671 136935.908 -75522.517 136929.501 -75582.116 136929.501 -75582.123 136929.5 -75582.135 136929.5 -77277.87 136929.501 -77277.876 136935.908 -77337.483 136986.202 -77472.328 136986.206 -77472.335 137072.452 -77587.544 137072.455 -77587.547 137187.664 -77673.793 137187.671 -77673.797 137232.618 -77690.561 137322.517 -77724.091 137357.596 -77727.862 137422.144 -77754.599 137461.993 -77811.991 137464.488 -77881.816 137428.836 -77941.905 137415.464 -77952.725 137390.858 -77969.954 137229.954 -78130.858 137099.432 -78317.265 137099.431 -78317.267 137003.261 -78523.502 137003.258 -78523.511 136944.366 -78743.302 136944.364 -78743.313 136924.532 -78969.998 136924.532 -78970.001 136944.364 -79196.686 136944.366 -79196.697 137003.258 -79416.488 137003.261 -79416.497 137099.431 -79622.732 137099.432 -79622.734 137229.954 -79809.141 137390.858 -79970.045 137390.861 -79970.047 137577.266 -80100.568 137635.275 -80127.618 137687.714 -80173.791 137706.866 -80240.984 137686.65 -80307.865 137635.275 -80352.382 137577.267 -80379.431 137577.265 -80379.432 137390.858 -80509.954 137229.954 -80670.858 137099.432 -80857.265 137099.431 -80857.267 137003.261 -81063.502 137003.258 -81063.511 136944.366 -81283.302 136944.364 -81283.313 136924.532 -81509.998 136924.532 -81510.001 136944.364 -81736.686 136944.366 -81736.697 137003.258 -81956.488 137003.261 -81956.497 137099.431 -82162.732 137099.432 -82162.734 137229.954 -82349.141 137390.858 -82510.045 137390.861 -82510.047 137577.266 -82640.568 137635.275 -82667.618 137687.714 -82713.791 137706.866 -82780.984 137686.65 -82847.865 137635.275 -82892.382 137577.267 -82919.431 137577.265 -82919.432 137390.858 -83049.954 137229.954 -83210.858 137099.432 -83397.265 137099.431 -83397.267 137003.261 -83603.502 137003.258 -83603.511 136944.366 -83823.302 136944.364 -83823.313 136924.532 -84049.998 136924.532 -84050.001 136944.364 -84276.686 136944.366 -84276.697 137003.258 -84496.488 137003.261 -84496.497 137099.431 -84702.732 137099.432 -84702.734 137229.954 -84889.141 137390.859 -85050.046 137426.621 -85075.086 137470.247 -85129.662 137479.5 -85176.662 137479.5 -97426.082 137479.5 -102103.918 137479.5 -102103.92 137479.499 -102103.92 137508.34 -102248.907 137508.343 -102248.917 137564.914 -102385.492 137597.812 -102434.727 137597.813 -102434.73 137647.046 -102508.414 137647.052 -102508.421 138376.451 -103237.819 138409.936 -103299.142 138404.952 -103368.833 138363.08 -103424.767 138297.616 -103449.184 138288.77 -103449.5 131162.229 -103449.5 131095.19 -103429.815 131074.548 -103413.181 128686.819 -101025.451 128653.334 -100964.128 128650.5 -100937.77 128650.5 -57762.23 128670.185 -57695.191 128686.819 -57674.549 130074.549 -56286.819 130135.872 -56253.334 130162.23 -56250.5 140273.337 -56250.5 140340.376 -56270.185 140374.912 -56303.377 140399.954 -56339.141 140560.858 -56500.045 140560.861 -56500.047 140747.266 -56630.568 140953.504 -56726.739 140953.509 -56726.74 140953.511 -56726.741 141153.117 -56780.225 141212.778 -56816.59 141243.307 -56879.437 141235.012 -56948.812 141190.527 -57002.69 141153.117 -57019.775 140953.511 -57073.258 140953.502 -57073.261 140747.267 -57169.431 140747.265 -57169.432 140560.858 -57299.954 140399.954 -57460.858 140269.432 -57647.265 140269.431 -57647.267 140173.261 -57853.502 140173.258 -57853.511 140114.366 -58073.302 140114.364 -58073.313 140094.532 -58299.998 140094.532 -58300.001 140114.364 -58526.686 140114.366 -58526.697 140173.258 -58746.488 140173.261 -58746.497 140269.431 -58952.732 140269.432 -58952.734 140399.954 -59139.141 140560.858 -59300.045 140560.861 -59300.047 140747.266 -59430.568 140953.504 -59526.739 141173.308 -59585.635 141335.23 -59599.801 141399.998 -59605.468 141400 -59605.468 141400.002 -59605.468 141456.673 -59600.509 141626.692 -59585.635 141846.496 -59526.739 142052.734 -59430.568 142239.139 -59300.047 142400.047 -59139.139 142530.568 -58952.734 142626.739 -58746.496 142685.635 -58526.692 142705.468 -58300 142685.635 -58073.308 142634.13 -57881.087 142626.741 -57853.511 142626.738 -57853.502 142575.914 -57744.511 142530.568 -57647.266 142400.047 -57460.861 142400.045 -57460.858 142239.141 -57299.954 142052.734 -57169.432 142052.732 -57169.431 141846.497 -57073.261 141846.488 -57073.258 141646.882 -57019.775 141587.221 -56983.41 141556.692 -56920.563 141564.987 -56851.188 141609.472 -56797.31 141646.882 -56780.225 141782.849 -56743.793 141846.496 -56726.739 142052.734 -56630.568 142131.168 -56575.648 142197.372 -56553.322 142265.139 -56570.332 142301.555 -56602.913 142342.452 -56657.544 142342.455 -56657.547 142457.664 -56743.793 142457.671 -56743.797 142592.517 -56794.091 142592.516 -56794.091 142599.444 -56794.835 142652.127 -56800.5 144347.872 -56800.499 144407.483 -56794.091 144542.331 -56743.796 144657.546 -56657.546 144743.796 -56542.331 144794.091 -56407.483 144800.5 -56347.873 144800.499 -56304.751 144820.182 -56237.715 144872.985 -56191.959 144942.143 -56182.014 145005.7 -56211.037"/><path d="M 164492.539 -50220.185 164538.294 -50272.989 164549.5 -50324.5 164549.5 -109075.5 164529.815 -109142.539 164477.011 -109188.294 164425.5 -109199.5 143252.081 -109199.5 143185.042 -109179.815 143139.287 -109127.011 143129.343 -109057.853 143158.368 -108994.297 143217.146 -108956.523 143219.956 -108955.733 143294.952 -108935.639 143567.507 -108822.743 143822.994 -108675.238 144057.042 -108495.646 144265.646 -108287.042 144445.238 -108052.994 144592.743 -107797.507 144705.639 -107524.952 144781.993 -107239.993 144820.5 -106947.506 144820.5 -105074.5 144840.185 -105007.461 144892.989 -104961.706 144944.5 -104950.5 150373.92 -104950.5 150471.462 -104931.096 150518.913 -104921.658 150655.495 -104865.084 150704.729 -104832.186 150778.416 -104782.952 155112.951 -100448.416 155195.084 -100325.495 155251.658 -100188.913 155280.5 -100043.918 155280.5 -99896.083 155280.5 -88683.461 155300.185 -88616.422 155352.989 -88570.667 155422.147 -88560.723 155485.703 -88589.748 155503.766 -88609.15 155562.452 -88687.544 155562.455 -88687.547 155677.664 -88773.793 155677.671 -88773.797 155812.517 -88824.091 155812.516 -88824.091 155819.444 -88824.835 155872.127 -88830.5 157167.872 -88830.499 157227.483 -88824.091 157362.331 -88773.796 157477.546 -88687.546 157563.796 -88572.331 157567.96 -88561.165 157609.829 -88505.234 157675.293 -88480.816 157684.141 -88480.5 160825.5 -88480.5 160892.539 -88500.185 160938.294 -88552.989 160949.5 -88604.5 160949.5 -102237.77 160929.815 -102304.809 160913.181 -102325.451 160662.181 -102576.451 160600.858 -102609.936 160531.166 -102604.952 160475.233 -102563.08 160450.816 -102497.616 160450.5 -102488.77 160450.5 -101002.5 160450.499 -101002.486 160431.741 -100860.007 160411.993 -100710.007 160335.639 -100425.048 160222.743 -100152.493 160160.057 -100043.918 160075.238 -99897.006 159895.647 -99662.959 159895.641 -99662.952 159687.047 -99454.358 159687.04 -99454.352 159452.993 -99274.761 159197.51 -99127.258 159197.5 -99127.254 158924.961 -99014.364 158924.954 -99014.362 158924.952 -99014.361 158639.993 -98938.007 158591.113 -98931.571 158347.513 -98899.5 158347.506 -98899.5 158052.494 -98899.5 158052.486 -98899.5 157774.085 -98936.153 157760.007 -98938.007 157475.048 -99014.361 157475.038 -99014.364 157202.499 -99127.254 157202.489 -99127.258 156947.006 -99274.761 156712.959 -99454.352 156712.952 -99454.358 156504.358 -99662.952 156504.352 -99662.959 156324.761 -99897.006 156177.258 -100152.489 156177.254 -100152.499 156064.364 -100425.038 156064.361 -100425.048 155988.008 -100710.004 155988.006 -100710.015 155949.5 -101002.486 155949.5 -106797.513 155969.247 -106947.499 155988.007 -107089.993 155988.008 -107089.995 156064.361 -107374.951 156064.364 -107374.961 156177.254 -107647.5 156177.258 -107647.51 156324.761 -107902.993 156504.352 -108137.04 156504.358 -108137.047 156712.952 -108345.641 156712.959 -108345.647 156947.006 -108525.238 157202.489 -108672.741 157202.49 -108672.741 157202.493 -108672.743 157475.048 -108785.639 157760.007 -108861.993 158052.494 -108900.5 158052.501 -108900.5 158347.499 -108900.5 158347.506 -108900.5 158639.993 -108861.993 158924.952 -108785.639 159197.507 -108672.743 159452.994 -108525.238 159687.042 -108345.646 159895.646 -108137.042 160075.238 -107902.994 160222.743 -107647.507 160335.639 -107374.952 160411.993 -107089.993 160450.5 -106797.506 160450.5 -104756.922 160470.185 -104689.883 160522.989 -104644.128 160550.308 -104635.305 160591.178 -104627.174 160618.913 -104621.658 160755.495 -104565.084 160852.151 -104500.501 160878.416 -104482.952 162282.952 -103078.415 162321.353 -103020.943 162365.084 -102955.495 162388.518 -102898.92 162421.659 -102818.912 162450.5 -102673.917 162450.5 -102526.082 162450.5 -87726.082 162450.5 -79426.082 162450.5 -71726.082 162450.5 -58026.082 162450.5 -58026.079 162421.659 -57881.092 162421.658 -57881.091 162421.658 -57881.087 162372.426 -57762.23 162365.087 -57744.511 162365.08 -57744.498 162282.952 -57621.585 162258.213 -57596.846 162178.416 -57517.049 159578.416 -54917.048 159578.415 -54917.047 159578.413 -54917.045 159530.378 -54884.951 159498.353 -54863.553 159455.495 -54834.916 159455.494 -54834.915 159455.492 -54834.914 159455.49 -54834.913 159318.917 -54778.343 159318.907 -54778.34 159173.92 -54749.5 159173.918 -54749.5 152721.889 -54749.5 152654.85 -54729.815 152609.095 -54677.011 152599.151 -54607.853 152628.176 -54544.297 152634.208 -54537.819 152714.358 -54457.669 152794.517 -54377.51 152933.343 -54186.433 153040.568 -53975.992 153113.553 -53751.368 153150.5 -53518.097 153150.5 -51781.902 153113.553 -51548.631 153040.566 -51324.003 152933.342 -51113.566 152794.517 -50922.49 152627.51 -50755.483 152436.433 -50616.657 152225.996 -50509.433 152019.785 -50442.431 151962.11 -50402.993 151934.912 -50338.634 151946.827 -50269.788 151994.071 -50218.312 152058.104 -50200.5 164425.5 -50200.5 164492.539 -50220.185"/><path d="M 137608.935 -50220.185 137654.69 -50272.989 137664.634 -50342.147 137635.609 -50405.703 137580.215 -50442.431 137374.003 -50509.433 137163.566 -50616.657 137054.55 -50695.862 136972.49 -50755.483 136972.488 -50755.485 136972.487 -50755.485 136805.485 -50922.487 136805.485 -50922.488 136805.483 -50922.49 136745.862 -51004.55 136666.657 -51113.566 136559.433 -51324.003 136486.446 -51548.631 136449.5 -51781.902 136449.5 -53518.097 136486.446 -53751.368 136559.433 -53975.996 136666.657 -54186.433 136805.483 -54377.51 136805.485 -54377.512 136965.792 -54537.819 136999.277 -54599.142 136994.293 -54668.834 136952.421 -54724.767 136886.957 -54749.184 136878.111 -54749.5 129726.08 -54749.5 129581.092 -54778.34 129581.082 -54778.343 129444.509 -54834.913 129444.507 -54834.914 129401.647 -54863.553 129401.645 -54863.554 129321.589 -54917.043 129321.584 -54917.047 127317.047 -56921.584 127317.043 -56921.589 127275.738 -56983.41 127268.307 -56994.532 127262.856 -57002.69 127234.916 -57044.504 127234.912 -57044.511 127178.343 -57181.082 127178.34 -57181.092 127149.5 -57326.079 127149.5 -57326.082 127149.5 -101373.918 127149.5 -101373.92 127149.499 -101373.92 127178.34 -101518.907 127178.343 -101518.917 127234.913 -101655.489 127234.914 -101655.491 127234.916 -101655.495 127243.118 -101667.77 127247.621 -101674.509 127247.62 -101674.509 127317.046 -101778.414 127317.052 -101778.421 130021.583 -104482.95 130217.048 -104678.415 130217.049 -104678.416 130295.555 -104756.922 130321.585 -104782.952 130444.498 -104865.08 130444.511 -104865.087 130581.082 -104921.656 130581.087 -104921.658 130581.091 -104921.658 130581.092 -104921.659 130726.079 -104950.5 130726.082 -104950.5 140195.5 -104950.5 140262.539 -104970.185 140308.294 -105022.989 140319.5 -105074.5 140319.5 -106947.513 140338.259 -107089.993 140358.007 -107239.993 140434.361 -107524.951 140434.364 -107524.961 140547.254 -107797.5 140547.258 -107797.51 140694.761 -108052.993 140874.352 -108287.04 140874.358 -108287.047 141082.952 -108495.641 141082.959 -108495.647 141317.006 -108675.238 141572.489 -108822.741 141572.49 -108822.741 141572.493 -108822.743 141845.048 -108935.639 141920.013 -108955.725 141979.673 -108992.09 142010.202 -109054.937 142001.907 -109124.312 141957.422 -109178.19 141890.87 -109199.465 141887.919 -109199.5 125674.5 -109199.5 125607.461 -109179.815 125561.706 -109127.011 125550.5 -109075.5 125550.5 -50324.5 125570.185 -50257.461 125622.989 -50211.706 125674.5 -50200.5 137541.896 -50200.5 137608.935 -50220.185"/></g><g id="VUtPoPklz_p7S7zyi_Fx_bottom_silkscreen"><path d="M 154104.136 -95537.275 154580.326 -95537.275 154580.326 -94537.275 M 153770.802 -95537.275 153770.802 -94870.608 M 153770.802 -94537.275 153818.421 -94584.894 153770.802 -94632.513 153723.183 -94584.894 153770.802 -94537.275 153770.802 -94632.513 M 152866.041 -95489.656 152961.279 -95537.275 153151.755 -95537.275 153246.993 -95489.656 153294.612 -95442.036 153342.231 -95346.798 153342.231 -95061.084 153294.612 -94965.846 153246.993 -94918.227 153151.755 -94870.608 152961.279 -94870.608 152866.041 -94918.227 M 152437.469 -95537.275 152437.469 -94537.275 M 152008.898 -95537.275 152008.898 -95013.465 152056.517 -94918.227 152151.755 -94870.608 152294.612 -94870.608 152389.85 -94918.227 152437.469 -94965.846 M 151675.564 -94870.608 151294.612 -94870.608 M 151532.707 -94537.275 151532.707 -95394.417 151485.088 -95489.656 151389.85 -95537.275 151294.612 -95537.275 M 151008.897 -95489.656 150913.659 -95537.275 150723.183 -95537.275 150627.945 -95489.656 150580.326 -95394.417 150580.326 -95346.798 150627.945 -95251.56 150723.183 -95203.941 150866.04 -95203.941 150961.278 -95156.322 151008.897 -95061.084 151008.897 -95013.465 150961.278 -94918.227 150866.04 -94870.608 150723.183 -94870.608 150627.945 -94918.227 M 149723.183 -95489.656 149818.421 -95537.275 150008.897 -95537.275 150104.135 -95489.656 150151.754 -95442.036 150199.373 -95346.798 150199.373 -95061.084 150151.754 -94965.846 150104.135 -94918.227 150008.897 -94870.608 149818.421 -94870.608 149723.183 -94918.227 M 149294.611 -95537.275 149294.611 -94537.275 M 148866.04 -95537.275 148866.04 -95013.465 148913.659 -94918.227 149008.897 -94870.608 149151.754 -94870.608 149246.992 -94918.227 149294.611 -94965.846 M 148389.849 -95537.275 148389.849 -94870.608 M 148389.849 -95061.084 148342.23 -94965.846 148294.611 -94918.227 148199.373 -94870.608 148104.135 -94870.608 M 147342.23 -95537.275 147342.23 -95013.465 147389.849 -94918.227 147485.087 -94870.608 147675.563 -94870.608 147770.801 -94918.227 M 147342.23 -95489.656 147437.468 -95537.275 147675.563 -95537.275 147770.801 -95489.656 147818.42 -95394.417 147818.42 -95299.179 147770.801 -95203.941 147675.563 -95156.322 147437.468 -95156.322 147342.23 -95108.703 M 146866.039 -94870.608 146866.039 -95537.275 M 146866.039 -94965.846 146818.42 -94918.227 146723.182 -94870.608 146580.325 -94870.608 146485.087 -94918.227 146437.468 -95013.465 146437.468 -95537.275 M 145961.277 -95537.275 145961.277 -94537.275 M 145866.039 -95156.322 145580.325 -95537.275 M 145580.325 -94870.608 145961.277 -95251.56 M 144770.801 -95489.656 144866.039 -95537.275 145056.515 -95537.275 145151.753 -95489.656 145199.372 -95394.417 145199.372 -95013.465 145151.753 -94918.227 145056.515 -94870.608 144866.039 -94870.608 144770.801 -94918.227 144723.182 -95013.465 144723.182 -95108.703 145199.372 -95203.941 M 144294.61 -94870.608 144294.61 -95537.275 M 144294.61 -94965.846 144246.991 -94918.227 144151.753 -94870.608 144008.896 -94870.608 143913.658 -94918.227 143866.039 -95013.465 143866.039 -95537.275 M 143389.848 -95156.322 142627.944 -95156.322 M 142199.372 -95251.56 141723.182 -95251.56 M 142294.61 -95537.275 141961.277 -94537.275 141627.944 -95537.275 M 140866.039 -95537.275 140866.039 -94537.275 M 140866.039 -95489.656 140961.277 -95537.275 141151.753 -95537.275 141246.991 -95489.656 141294.61 -95442.036 141342.229 -95346.798 141342.229 -95061.084 141294.61 -94965.846 141246.991 -94918.227 141151.753 -94870.608 140961.277 -94870.608 140866.039 -94918.227 M 139961.277 -95537.275 139961.277 -95013.465 140008.896 -94918.227 140104.134 -94870.608 140294.61 -94870.608 140389.848 -94918.227 M 139961.277 -95489.656 140056.515 -95537.275 140294.61 -95537.275 140389.848 -95489.656 140437.467 -95394.417 140437.467 -95299.179 140389.848 -95203.941 140294.61 -95156.322 140056.515 -95156.322 139961.277 -95108.703 M 139485.086 -94870.608 139485.086 -95870.608 M 139485.086 -94918.227 139389.848 -94870.608 139199.372 -94870.608 139104.134 -94918.227 139056.515 -94965.846 139008.896 -95061.084 139008.896 -95346.798 139056.515 -95442.036 139104.134 -95489.656 139199.372 -95537.275 139389.848 -95537.275 139485.086 -95489.656 M 138723.181 -94870.608 138342.229 -94870.608 M 138580.324 -94537.275 138580.324 -95394.417 138532.705 -95489.656 138437.467 -95537.275 138342.229 -95537.275 M 137627.943 -95489.656 137723.181 -95537.275 137913.657 -95537.275 138008.895 -95489.656 138056.514 -95394.417 138056.514 -95013.465 138008.895 -94918.227 137913.657 -94870.608 137723.181 -94870.608 137627.943 -94918.227 137580.324 -95013.465 137580.324 -95108.703 138056.514 -95203.941 M 137151.752 -95537.275 137151.752 -94870.608 M 137151.752 -95061.084 137104.133 -94965.846 137056.514 -94918.227 136961.276 -94870.608 136866.038 -94870.608 M 135770.799 -95537.275 135770.799 -94537.275 135437.466 -95251.56 135104.133 -94537.275 135104.133 -95537.275 M 154580.326 -97147.219 154580.326 -96480.552 M 154580.326 -96671.028 154532.707 -96575.79 154485.088 -96528.171 154389.85 -96480.552 154294.612 -96480.552 M 153580.326 -97099.6 153675.564 -97147.219 153866.04 -97147.219 153961.278 -97099.6 154008.897 -97004.361 154008.897 -96623.409 153961.278 -96528.171 153866.04 -96480.552 153675.564 -96480.552 153580.326 -96528.171 153532.707 -96623.409 153532.707 -96718.647 154008.897 -96813.885 M 152675.564 -97099.6 152770.802 -97147.219 152961.278 -97147.219 153056.516 -97099.6 153104.135 -97051.98 153151.754 -96956.742 153151.754 -96671.028 153104.135 -96575.79 153056.516 -96528.171 152961.278 -96480.552 152770.802 -96480.552 152675.564 -96528.171 M 151818.421 -97147.219 151818.421 -96623.409 151866.04 -96528.171 151961.278 -96480.552 152151.754 -96480.552 152246.992 -96528.171 M 151818.421 -97099.6 151913.659 -97147.219 152151.754 -97147.219 152246.992 -97099.6 152294.611 -97004.361 152294.611 -96909.123 152246.992 -96813.885 152151.754 -96766.266 151913.659 -96766.266 151818.421 -96718.647 M 151389.849 -97099.6 151294.611 -97147.219 151104.135 -97147.219 151008.897 -97099.6 150961.278 -97004.361 150961.278 -96956.742 151008.897 -96861.504 151104.135 -96813.885 151246.992 -96813.885 151342.23 -96766.266 151389.849 -96671.028 151389.849 -96623.409 151342.23 -96528.171 151246.992 -96480.552 151104.135 -96480.552 151008.897 -96528.171 M 150580.325 -97099.6 150485.087 -97147.219 150294.611 -97147.219 150199.373 -97099.6 150151.754 -97004.361 150151.754 -96956.742 150199.373 -96861.504 150294.611 -96813.885 150437.468 -96813.885 150532.706 -96766.266 150580.325 -96671.028 150580.325 -96623.409 150532.706 -96528.171 150437.468 -96480.552 150294.611 -96480.552 150199.373 -96528.171 M 149818.42 -96480.552 149580.325 -97147.219 M 149342.23 -96480.552 149580.325 -97147.219 149675.563 -97385.314 149723.182 -97432.933 149818.42 -97480.552 M 148961.277 -97051.98 148913.658 -97099.6 148961.277 -97147.219 149008.896 -97099.6 148961.277 -97051.98 148961.277 -97147.219 M 148056.516 -96480.552 148056.516 -97290.076 148104.135 -97385.314 148151.754 -97432.933 148246.992 -97480.552 148389.849 -97480.552 148485.087 -97432.933 M 148056.516 -97099.6 148151.754 -97147.219 148342.23 -97147.219 148437.468 -97099.6 148485.087 -97051.98 148532.706 -96956.742 148532.706 -96671.028 148485.087 -96575.79 148437.468 -96528.171 148342.23 -96480.552 148151.754 -96480.552 148056.516 -96528.171 M 147580.325 -97147.219 147580.325 -96480.552 M 147580.325 -96147.219 147627.944 -96194.838 147580.325 -96242.457 147532.706 -96194.838 147580.325 -96147.219 147580.325 -96242.457 M 147246.992 -96480.552 146866.04 -96480.552 M 147104.135 -96147.219 147104.135 -97004.361 147056.516 -97099.6 146961.278 -97147.219 146866.04 -97147.219 M 146532.706 -97147.219 146532.706 -96147.219 M 146104.135 -97147.219 146104.135 -96623.409 146151.754 -96528.171 146246.992 -96480.552 146389.849 -96480.552 146485.087 -96528.171 146532.706 -96575.79 M 145199.373 -96480.552 145199.373 -97147.219 M 145627.944 -96480.552 145627.944 -97004.361 145580.325 -97099.6 145485.087 -97147.219 145342.23 -97147.219 145246.992 -97099.6 145199.373 -97051.98 M 144723.182 -97147.219 144723.182 -96147.219 M 144723.182 -96528.171 144627.944 -96480.552 144437.468 -96480.552 144342.23 -96528.171 144294.611 -96575.79 144246.992 -96671.028 144246.992 -96956.742 144294.611 -97051.98 144342.23 -97099.6 144437.468 -97147.219 144627.944 -97147.219 144723.182 -97099.6 M 143818.42 -97051.98 143770.801 -97099.6 143818.42 -97147.219 143866.039 -97099.6 143818.42 -97051.98 143818.42 -97147.219 M 143342.23 -97147.219 143342.23 -96480.552 M 143342.23 -96147.219 143389.849 -96194.838 143342.23 -96242.457 143294.611 -96194.838 143342.23 -96147.219 143342.23 -96242.457 M 142723.183 -97147.219 142818.421 -97099.6 142866.04 -97051.98 142913.659 -96956.742 142913.659 -96671.028 142866.04 -96575.79 142818.421 -96528.171 142723.183 -96480.552 142580.326 -96480.552 142485.088 -96528.171 142437.469 -96575.79 142389.85 -96671.028 142389.85 -96956.742 142437.469 -97051.98 142485.088 -97099.6 142580.326 -97147.219 142723.183 -97147.219 M 140913.659 -97528.171 140961.278 -97480.552 141056.516 -97337.695 141104.135 -97242.457 141151.754 -97099.6 141199.373 -96861.504 141199.373 -96671.028 141151.754 -96432.933 141104.135 -96290.076 141056.516 -96194.838 140961.278 -96051.98 140913.659 -96004.361 M 140104.135 -97099.6 140199.373 -97147.219 140389.849 -97147.219 140485.087 -97099.6 140532.706 -97051.98 140580.325 -96956.742 140580.325 -96671.028 140532.706 -96575.79 140485.087 -96528.171 140389.849 -96480.552 140199.373 -96480.552 140104.135 -96528.171 M 139770.801 -97528.171 139723.182 -97480.552 139627.944 -97337.695 139580.325 -97242.457 139532.706 -97099.6 139485.087 -96861.504 139485.087 -96671.028 139532.706 -96432.933 139580.325 -96290.076 139627.944 -96194.838 139723.182 -96051.98 139770.801 -96004.361 M 138294.61 -96242.457 138246.991 -96194.838 138151.753 -96147.219 137913.658 -96147.219 137818.42 -96194.838 137770.801 -96242.457 137723.182 -96337.695 137723.182 -96432.933 137770.801 -96575.79 138342.229 -97147.219 137723.182 -97147.219 M 137104.134 -96147.219 137008.896 -96147.219 136913.658 -96194.838 136866.039 -96242.457 136818.42 -96337.695 136770.801 -96528.171 136770.801 -96766.266 136818.42 -96956.742 136866.039 -97051.98 136913.658 -97099.6 137008.896 -97147.219 137104.134 -97147.219 137199.372 -97099.6 137246.991 -97051.98 137294.61 -96956.742 137342.229 -96766.266 137342.229 -96528.171 137294.61 -96337.695 137246.991 -96242.457 137199.372 -96194.838 137104.134 -96147.219 M 136389.848 -96242.457 136342.229 -96194.838 136246.991 -96147.219 136008.896 -96147.219 135913.658 -96194.838 135866.039 -96242.457 135818.42 -96337.695 135818.42 -96432.933 135866.039 -96575.79 136437.467 -97147.219 135818.42 -97147.219 M 134961.277 -96480.552 134961.277 -97147.219 M 135199.372 -96099.6 135437.467 -96813.885 134818.42 -96813.885" fill="none" stroke-width="200"/></g><g id="VUtPoPklz_p7S7zyi_Fx_bottom_drill1" transform="scale(25.4,25.4)"><use xlink:href="#gixmkuyWQPloiDHRAqQ5_pad-1" x="6083.5" y="-3453.9"/><use xlink:href="#gixmkuyWQPloiDHRAqQ5_pad-1" x="6162.2" y="-3453.9"/><use xlink:href="#gixmkuyWQPloiDHRAqQ5_pad-2" x="5442.1" y="-3009.1"/><use xlink:href="#gixmkuyWQPloiDHRAqQ5_pad-2" x="5442.1" y="-3109.1"/><use xlink:href="#gixmkuyWQPloiDHRAqQ5_pad-2" x="5442.1" y="-3209.1"/><use xlink:href="#gixmkuyWQPloiDHRAqQ5_pad-2" x="5442.1" y="-3309.1"/><use xlink:href="#gixmkuyWQPloiDHRAqQ5_pad-2" x="5566.9" y="-2185"/><use xlink:href="#gixmkuyWQPloiDHRAqQ5_pad-2" x="5566.9" y="-2295.3"/><use xlink:href="#gixmkuyWQPloiDHRAqQ5_pad-2" x="5649.6" y="-2185"/><use xlink:href="#gixmkuyWQPloiDHRAqQ5_pad-2" x="5742.1" y="-3009.1"/><use xlink:href="#gixmkuyWQPloiDHRAqQ5_pad-2" x="5742.1" y="-3109.1"/><use xlink:href="#gixmkuyWQPloiDHRAqQ5_pad-2" x="5742.1" y="-3209.1"/><use xlink:href="#gixmkuyWQPloiDHRAqQ5_pad-2" x="5742.1" y="-3309.1"/><use xlink:href="#gixmkuyWQPloiDHRAqQ5_pad-2" x="5752" y="-2185"/><use xlink:href="#gixmkuyWQPloiDHRAqQ5_pad-2" x="5834.6" y="-2185"/><use xlink:href="#gixmkuyWQPloiDHRAqQ5_pad-2" x="5834.6" y="-2295.3"/><use xlink:href="#gixmkuyWQPloiDHRAqQ5_pad-2" x="5985.4" y="-2801.2"/><use xlink:href="#gixmkuyWQPloiDHRAqQ5_pad-2" x="5985.4" y="-3201.2"/><use xlink:href="#gixmkuyWQPloiDHRAqQ5_pad-2" x="6261" y="-2801.2"/><use xlink:href="#gixmkuyWQPloiDHRAqQ5_pad-2" x="6261" y="-3201.2"/><path d="M 5431.1 -2102.4 5431.1 -2043.3 M 5740.2 -2041.3 5661.4 -2041.3 M 5970.5 -2102.4 5970.5 -2043.3" fill="none" stroke-width="39.4"/><path d="M 5196.9 -2854.3 5196.9 -2696.9 M 5196.9 -3602.4 5196.9 -3444.9 M 5613 -4175.2 5613 -4017.7 M 6228.3 -4169.3 6228.3 -4011.8" fill="none" stroke-width="47.2"/></g><clipPath id="VUtPoPklz_p7S7zyi_Fx_bottom_outline"><path d="M 125050 -49700 165050 -49700 165050 -109700 125050 -109700 125050 -49700" fill="none" stroke-width="50"/></clipPath><mask id="VUtPoPklz_p7S7zyi_Fx_bottom_mech-mask"><g fill="#000" stroke="#000"><rect x="125050" y="-109700" width="40000" height="60000" fill="#fff"/><use xlink:href="#VUtPoPklz_p7S7zyi_Fx_bottom_drill1"/></g></mask><mask id="VUtPoPklz_p7S7zyi_Fx_bottom_cf-mask"><g fill="#fff" stroke="#fff"><use xlink:href="#VUtPoPklz_p7S7zyi_Fx_bottom_soldermask"/></g></mask><mask id="VUtPoPklz_p7S7zyi_Fx_bottom_sm-mask"><g fill="#000" stroke="#000"><rect x="125050" y="-109700" width="40000" height="60000" fill="#fff"/><use xlink:href="#VUtPoPklz_p7S7zyi_Fx_bottom_soldermask"/></g></mask></defs><g transform="translate(0,-159400) scale(1,-1)"><g mask="url(#VUtPoPklz_p7S7zyi_Fx_bottom_mech-mask)" clip-path="url(#VUtPoPklz_p7S7zyi_Fx_bottom_outline)" transform="translate(290100,0) scale(-1,1)"><rect x="125050" y="-109700" width="40000" height="60000" fill="currentColor" class="VUtPoPklz_p7S7zyi_Fx_fr4"/><use xlink:href="#VUtPoPklz_p7S7zyi_Fx_bottom_copper" fill="currentColor" stroke="currentColor" class="VUtPoPklz_p7S7zyi_Fx_cu"/><use xlink:href="#VUtPoPklz_p7S7zyi_Fx_bottom_copper" fill="currentColor" stroke="currentColor" class="VUtPoPklz_p7S7zyi_Fx_cf" mask="url(#VUtPoPklz_p7S7zyi_Fx_bottom_cf-mask)"/><g mask="url(#VUtPoPklz_p7S7zyi_Fx_bottom_sm-mask)"><rect x="125050" y="-109700" width="40000" height="60000" fill="currentColor" class="VUtPoPklz_p7S7zyi_Fx_sm"/><use xlink:href="#VUtPoPklz_p7S7zyi_Fx_bottom_silkscreen" fill="currentColor" stroke="currentColor" class="VUtPoPklz_p7S7zyi_Fx_ss"/></g></g></g></svg>