<svg version="1.1" xmlns="http://www.w3.org/2000/svg" xmlns:xlink="http://www.w3.org/1999/xlink" stroke-linecap="round" stroke-linejoin="round" stroke-width="0" fill-rule="evenodd" clip-rule="evenodd" id="AEE8EvPubfpINQJFC3vI_top" viewBox="125050 -109700 40000 60000" width="40mm" height="60mm" class="w-100 h-100"><defs><style>.AEE8EvPubfpINQJFC3vI_fr4 {color: #666666;}
.AEE8EvPubfpINQJFC3vI_cu {color: #cccccc;}
.AEE8EvPubfpINQJFC3vI_cf {color: #cc9933;}
.AEE8EvPubfpINQJFC3vI_sm {color: #004200; opacity: 0.75;}
.AEE8EvPubfpINQJFC3vI_ss {color: #ffffff;}
.AEE8EvPubfpINQJFC3vI_sp {color: #999999;}
.AEE8EvPubfpINQJFC3vI_out {color: #000000;}</style><rect x="-800" y="-800" width="1600" height="1600" id="RdBNWHK5IXbRjQYFt3MB_pad-10"/><circle cx="0" cy="0" r="800" id="RdBNWHK5IXbRjQYFt3MB_pad-11"/><rect x="-1000" y="-1750" width="2000" height="3500" rx="1000" ry="1000" id="RdBNWHK5IXbRjQYFt3MB_pad-12"/><rect x="-2000" y="-1000" width="4000" height="2000" rx="1000" ry="1000" id="RdBNWHK5IXbRjQYFt3MB_pad-13"/><g id="RdBNWHK5IXbRjQYFt3MB_pad-14"><polygon points="150,-450 150,450 -150,450 -150,-450"/><circle cx="150" cy="-450" r="150"/><circle cx="150" cy="450" r="150"/><circle cx="-150" cy="450" r="150"/><circle cx="-150" cy="-450" r="150"/><polygon points="300,-450 300,450 0,450 0,-450"/><polygon points="150,300 -150,300 -150,600 150,600"/><polygon points="0,450 0,-450 -300,-450 -300,450"/><polygon points="-150,-600 150,-600 150,-300 -150,-300"/></g><rect x="-800" y="-800" width="1600" height="1600" rx="800" ry="800" id="RdBNWHK5IXbRjQYFt3MB_pad-15"/><rect x="-600" y="-600" width="1200" height="1200" id="RdBNWHK5IXbRjQYFt3MB_pad-16"/><circle cx="0" cy="0" r="600" id="RdBNWHK5IXbRjQYFt3MB_pad-17"/><g id="RdBNWHK5IXbRjQYFt3MB_pad-18"><polygon points="-325,-650 325,-650 325,650 -325,650"/><circle cx="-325" cy="-650" r="250"/><circle cx="325" cy="-650" r="250"/><circle cx="325" cy="650" r="250"/><circle cx="-325" cy="650" r="250"/><polygon points="-325,-900 325,-900 325,-400 -325,-400"/><polygon points="575,-650 575,650 75,650 75,-650"/><polygon points="325,400 -325,400 -325,900 325,900"/><polygon points="-75,650 -75,-650 -575,-650 -575,650"/></g><circle cx="0" cy="0" r="3500" id="RdBNWHK5IXbRjQYFt3MB_pad-19"/><g id="RdBNWHK5IXbRjQYFt3MB_pad-20"><polygon points="-650,325 -650,-325 650,-325 650,325"/><circle cx="-650" cy="325" r="250"/><circle cx="-650" cy="-325" r="250"/><circle cx="650" cy="-325" r="250"/><circle cx="650" cy="325" r="250"/><polygon points="-400,325 -400,-325 -900,-325 -900,325"/><polygon points="-650,-575 650,-575 650,-75 -650,-75"/><polygon points="900,-325 900,325 400,325 400,-325"/><polygon points="650,75 -650,75 -650,575 650,575"/></g><rect x="-800" y="-800" width="1600" height="1600" id="jD6bsVAydyKk89lmsqtW_pad-10"/><circle cx="0" cy="0" r="800" id="jD6bsVAydyKk89lmsqtW_pad-11"/><rect x="-1000" y="-1750" width="2000" height="3500" rx="1000" ry="1000" id="jD6bsVAydyKk89lmsqtW_pad-12"/><rect x="-2000" y="-1000" width="4000" height="2000" rx="1000" ry="1000" id="jD6bsVAydyKk89lmsqtW_pad-13"/><g id="jD6bsVAydyKk89lmsqtW_pad-14"><polygon points="150,-450 150,450 -150,450 -150,-450"/><circle cx="150" cy="-450" r="150"/><circle cx="150" cy="450" r="150"/><circle cx="-150" cy="450" r="150"/><circle cx="-150" cy="-450" r="150"/><polygon points="300,-450 300,450 0,450 0,-450"/><polygon points="150,300 -150,300 -150,600 150,600"/><polygon points="0,450 0,-450 -300,-450 -300,450"/><polygon points="-150,-600 150,-600 150,-300 -150,-300"/></g><rect x="-800" y="-800" width="1600" height="1600" rx="800" ry="800" id="jD6bsVAydyKk89lmsqtW_pad-15"/><rect x="-600" y="-600" width="1200" height="1200" id="jD6bsVAydyKk89lmsqtW_pad-16"/><circle cx="0" cy="0" r="600" id="jD6bsVAydyKk89lmsqtW_pad-17"/><g id="jD6bsVAydyKk89lmsqtW_pad-18"><polygon points="-325,-650 325,-650 325,650 -325,650"/><circle cx="-325" cy="-650" r="250"/><circle cx="325" cy="-650" r="250"/><circle cx="325" cy="650" r="250"/><circle cx="-325" cy="650" r="250"/><polygon points="-325,-900 325,-900 325,-400 -325,-400"/><polygon points="575,-650 575,650 75,650 75,-650"/><polygon points="325,400 -325,400 -325,900 325,900"/><polygon points="-75,650 -75,-650 -575,-650 -575,650"/></g><circle cx="0" cy="0" r="3500" id="jD6bsVAydyKk89lmsqtW_pad-19"/><g id="jD6bsVAydyKk89lmsqtW_pad-20"><polygon points="-650,325 -650,-325 650,-325 650,325"/><circle cx="-650" cy="325" r="250"/><circle cx="-650" cy="-325" r="250"/><circle cx="650" cy="-325" r="250"/><circle cx="650" cy="325" r="250"/><polygon points="-400,325 -400,-325 -900,-325 -900,325"/><polygon points="-650,-575 650,-575 650,-75 -650,-75"/><polygon points="900,-325 900,325 400,325 400,-325"/><polygon points="650,75 -650,75 -650,575 650,575"/></g><circle cx="0" cy="0" r="11.8" id="dPTx0awAV240buicQJ0x_pad-1"/><circle cx="0" cy="0" r="15.75" id="dPTx0awAV240buicQJ0x_pad-2"/><circle cx="0" cy="0" r="100.4" id="dPTx0awAV240buicQJ0x_pad-4"/><g id="AEE8EvPubfpINQJFC3vI_top_copper"><use xlink:href="#RdBNWHK5IXbRjQYFt3MB_pad-10" x="143500" y="-55500"/><use xlink:href="#RdBNWHK5IXbRjQYFt3MB_pad-11" x="146100" y="-55500"/><use xlink:href="#RdBNWHK5IXbRjQYFt3MB_pad-11" x="141400" y="-55500"/><use xlink:href="#RdBNWHK5IXbRjQYFt3MB_pad-11" x="148200" y="-55500"/><use xlink:href="#RdBNWHK5IXbRjQYFt3MB_pad-11" x="141400" y="-58300"/><use xlink:href="#RdBNWHK5IXbRjQYFt3MB_pad-11" x="148200" y="-58300"/><use xlink:href="#RdBNWHK5IXbRjQYFt3MB_pad-12" x="151650" y="-52650"/><use xlink:href="#RdBNWHK5IXbRjQYFt3MB_pad-13" x="144800" y="-51850"/><use xlink:href="#RdBNWHK5IXbRjQYFt3MB_pad-12" x="137950" y="-52650"/><use xlink:href="#RdBNWHK5IXbRjQYFt3MB_pad-14" x="143650" y="-66150"/><use xlink:href="#RdBNWHK5IXbRjQYFt3MB_pad-14" x="144600" y="-66150"/><use xlink:href="#RdBNWHK5IXbRjQYFt3MB_pad-14" x="145550" y="-66150"/><use xlink:href="#RdBNWHK5IXbRjQYFt3MB_pad-14" x="145550" y="-63850"/><use xlink:href="#RdBNWHK5IXbRjQYFt3MB_pad-14" x="144600" y="-63850"/><use xlink:href="#RdBNWHK5IXbRjQYFt3MB_pad-14" x="143650" y="-63850"/><use xlink:href="#RdBNWHK5IXbRjQYFt3MB_pad-11" x="152030" y="-81310"/><use xlink:href="#RdBNWHK5IXbRjQYFt3MB_pad-15" x="152030" y="-71150"/><use xlink:href="#RdBNWHK5IXbRjQYFt3MB_pad-16" x="156520" y="-87730"/><use xlink:href="#RdBNWHK5IXbRjQYFt3MB_pad-17" x="154520" y="-87730"/><use xlink:href="#RdBNWHK5IXbRjQYFt3MB_pad-18" x="140580" y="-79730"/><use xlink:href="#RdBNWHK5IXbRjQYFt3MB_pad-18" x="143530" y="-79730"/><use xlink:href="#RdBNWHK5IXbRjQYFt3MB_pad-19" x="132000" y="-89500"/><use xlink:href="#RdBNWHK5IXbRjQYFt3MB_pad-11" x="159030" y="-81310"/><use xlink:href="#RdBNWHK5IXbRjQYFt3MB_pad-15" x="159030" y="-71150"/><use xlink:href="#RdBNWHK5IXbRjQYFt3MB_pad-19" x="158200" y="-103900"/><use xlink:href="#RdBNWHK5IXbRjQYFt3MB_pad-20" x="140300" y="-63525"/><use xlink:href="#RdBNWHK5IXbRjQYFt3MB_pad-20" x="140300" y="-66475"/><use xlink:href="#RdBNWHK5IXbRjQYFt3MB_pad-19" x="132000" y="-70500"/><use xlink:href="#RdBNWHK5IXbRjQYFt3MB_pad-19" x="142570" y="-104050"/><use xlink:href="#RdBNWHK5IXbRjQYFt3MB_pad-10" x="138230" y="-76430"/><use xlink:href="#RdBNWHK5IXbRjQYFt3MB_pad-15" x="138230" y="-78970"/><use xlink:href="#RdBNWHK5IXbRjQYFt3MB_pad-15" x="138230" y="-81510"/><use xlink:href="#RdBNWHK5IXbRjQYFt3MB_pad-15" x="138230" y="-84050"/><use xlink:href="#RdBNWHK5IXbRjQYFt3MB_pad-15" x="145850" y="-84050"/><use xlink:href="#RdBNWHK5IXbRjQYFt3MB_pad-15" x="145850" y="-81510"/><use xlink:href="#RdBNWHK5IXbRjQYFt3MB_pad-15" x="145850" y="-78970"/><use xlink:href="#RdBNWHK5IXbRjQYFt3MB_pad-15" x="145850" y="-76430"/><path d="M 138100 -57200 139800 -55500 M 140300 -66475 139275 -66475 M 140300 -66475 141575 -65200 M 138230 -84050 140580 -81700 M 144600 -66150 144250 -66500 M 144600 -65200 144600 -66150 M 139800 -55500 141400 -55500 M 140580 -81700 140580 -79730 M 141575 -65200 144600 -65200 M 140690 -79619.9 140800 -79509.8 M 140580 -79730 140690 -79619.9 M 138100 -65300 138100 -57200 M 139275 -66475 138100 -65300 M 149346 -63525 149346 -63754.7 M 144600 -63850 144600 -64680.8 M 141555.8 -64780.8 140300 -63525 M 145240 -64780.8 144500 -64780.8 M 145850 -76430 143530 -78750 143530 -79730 M 149346 -63754.7 148320 -64780.8 M 144600 -64680.8 144500 -64780.8 M 148200 -55500 149346 -56646.1 M 148320 -64780.8 145240 -64780.8 M 149346 -56646.1 149346 -63525 M 144500 -64780.8 141555.8 -64780.8 M 143530 -79730 143886 -80085.8 M 141400 -61600 143650 -63850 M 141400 -58300 141400 -61600 M 145550 -58651.7 145550 -63850 M 143500 -55500 143500 -56601.7 145550 -58651.7 M 143650 -66150 143650 -68350 M 148200 -76620 148200 -71150 M 143650 -68350 146450 -71150 148200 -71150 M 145850 -78970 148200 -76620 M 148200 -71150 152030 -71150 M 159030 -71150 159030 -77870 M 152850 -84050 145850 -84050 M 159030 -77870 152850 -84050 M 154030 -66150 145550 -66150 M 159030 -71150 154030 -66150" fill="none" stroke-width="200"/><path d="M 137608.935 -50220.185 137654.69 -50272.989 137664.634 -50342.147 137635.609 -50405.703 137580.215 -50442.431 137374.003 -50509.433 137163.566 -50616.657 137054.55 -50695.862 136972.49 -50755.483 136972.488 -50755.485 136972.487 -50755.485 136805.485 -50922.487 136805.485 -50922.488 136805.483 -50922.49 136745.862 -51004.55 136666.657 -51113.566 136559.433 -51324.003 136486.446 -51548.631 136449.5 -51781.902 136449.5 -53518.097 136486.446 -53751.368 136559.433 -53975.996 136666.657 -54186.433 136805.483 -54377.51 136972.49 -54544.517 137163.567 -54683.343 137246.185 -54725.439 137374.003 -54790.566 137374.005 -54790.566 137374.008 -54790.568 137455.945 -54817.191 137598.631 -54863.553 137831.903 -54900.5 137831.908 -54900.5 138068.097 -54900.5 138301.368 -54863.553 138353.473 -54846.623 138525.992 -54790.568 138736.433 -54683.343 138927.51 -54544.517 139094.517 -54377.51 139233.343 -54186.433 139340.568 -53975.992 139413.553 -53751.368 139450.5 -53518.097 139450.5 -51781.902 139413.553 -51548.631 139340.566 -51324.003 139233.342 -51113.566 139094.517 -50922.49 138927.51 -50755.483 138736.433 -50616.657 138525.996 -50509.433 138319.785 -50442.431 138262.11 -50402.993 138234.912 -50338.634 138246.827 -50269.788 138294.071 -50218.312 138358.104 -50200.5 143238.014 -50200.5 143305.053 -50220.185 143350.808 -50272.989 143360.752 -50342.147 143331.727 -50405.703 143276.334 -50442.43 143253.631 -50449.806 143224.003 -50459.433 143013.566 -50566.657 142944.748 -50616.657 142822.49 -50705.483 142822.488 -50705.485 142822.487 -50705.485 142655.485 -50872.487 142655.485 -50872.488 142655.483 -50872.49 142619.158 -50922.487 142516.657 -51063.566 142409.433 -51274.003 142336.446 -51498.631 142299.5 -51731.902 142299.5 -51968.097 142336.446 -52201.368 142409.433 -52425.996 142516.657 -52636.433 142655.483 -52827.51 142822.49 -52994.517 143013.567 -53133.343 143112.991 -53184.002 143224.003 -53240.566 143224.005 -53240.566 143224.008 -53240.568 143344.412 -53279.689 143448.631 -53313.553 143681.903 -53350.5 143681.908 -53350.5 145918.097 -53350.5 146151.368 -53313.553 146375.992 -53240.568 146586.433 -53133.343 146777.51 -52994.517 146944.517 -52827.51 147083.343 -52636.433 147190.568 -52425.992 147263.553 -52201.368 147300.5 -51968.097 147300.5 -51731.902 147263.553 -51498.631 147190.566 -51274.003 147083.342 -51063.566 146944.517 -50872.49 146777.51 -50705.483 146586.433 -50566.657 146375.996 -50459.433 146355.845 -50452.886 146323.665 -50442.43 146265.992 -50402.993 146238.794 -50338.634 146250.709 -50269.788 146297.953 -50218.312 146361.986 -50200.5 151241.896 -50200.5 151308.935 -50220.185 151354.69 -50272.989 151364.634 -50342.147 151335.609 -50405.703 151280.215 -50442.431 151074.003 -50509.433 150863.566 -50616.657 150754.55 -50695.862 150672.49 -50755.483 150672.488 -50755.485 150672.487 -50755.485 150505.485 -50922.487 150505.485 -50922.488 150505.483 -50922.49 150445.862 -51004.55 150366.657 -51113.566 150259.433 -51324.003 150186.446 -51548.631 150149.5 -51781.902 150149.5 -53518.097 150186.446 -53751.368 150259.433 -53975.996 150366.657 -54186.433 150505.483 -54377.51 150672.49 -54544.517 150863.567 -54683.343 150946.185 -54725.439 151074.003 -54790.566 151074.005 -54790.566 151074.008 -54790.568 151155.945 -54817.191 151298.631 -54863.553 151531.903 -54900.5 151531.908 -54900.5 151768.097 -54900.5 152001.368 -54863.553 152053.473 -54846.623 152225.992 -54790.568 152436.433 -54683.343 152627.51 -54544.517 152794.517 -54377.51 152933.343 -54186.433 153040.568 -53975.992 153113.553 -53751.368 153150.5 -53518.097 153150.5 -51781.902 153113.553 -51548.631 153040.566 -51324.003 152933.342 -51113.566 152794.517 -50922.49 152627.51 -50755.483 152436.433 -50616.657 152225.996 -50509.433 152019.785 -50442.431 151962.11 -50402.993 151934.912 -50338.634 151946.827 -50269.788 151994.071 -50218.312 152058.104 -50200.5 164425.5 -50200.5 164492.539 -50220.185 164538.294 -50272.989 164549.5 -50324.5 164549.5 -109075.5 164529.815 -109142.539 164477.011 -109188.294 164425.5 -109199.5 125674.5 -109199.5 125607.461 -109179.815 125561.706 -109127.011 125550.5 -109075.5 125550.5 -104050 138564.675 -104050 138583.962 -104442.591 138583.962 -104442.597 138583.963 -104442.599 138641.637 -104831.406 138737.143 -105212.684 138869.561 -105582.77 138869.562 -105582.772 139037.62 -105938.1 139239.692 -106275.236 139239.694 -106275.239 139362.594 -106440.951 139473.846 -106590.956 139737.807 -106882.192 140029.043 -107146.153 140029.049 -107146.158 140344.761 -107380.306 140344.763 -107380.307 140681.899 -107582.379 140681.902 -107582.38 140681.903 -107582.381 141037.228 -107750.438 141407.316 -107882.857 141788.6 -107978.364 142177.409 -108036.038 142570 -108055.325 142962.591 -108036.038 143351.4 -107978.364 143732.684 -107882.857 144102.772 -107750.438 144458.097 -107582.381 144795.239 -107380.306 145110.951 -107146.158 145402.192 -106882.192 145666.158 -106590.951 145900.306 -106275.239 146102.381 -105938.097 146270.438 -105582.772 146402.857 -105212.684 146498.364 -104831.4 146556.038 -104442.591 146575.325 -104050 146567.956 -103900 154194.675 -103900 154213.962 -104292.591 154213.962 -104292.597 154213.963 -104292.599 154271.637 -104681.406 154367.143 -105062.684 154499.561 -105432.77 154499.562 -105432.772 154667.62 -105788.1 154757.525 -105938.097 154869.694 -106125.239 154980.939 -106275.236 155103.846 -106440.956 155367.807 -106732.192 155659.043 -106996.153 155659.049 -106996.158 155974.761 -107230.306 155974.763 -107230.307 156311.899 -107432.379 156311.902 -107432.38 156311.903 -107432.381 156667.228 -107600.438 157037.316 -107732.857 157418.6 -107828.364 157807.409 -107886.038 158200 -107905.325 158592.591 -107886.038 158981.4 -107828.364 159362.684 -107732.857 159732.772 -107600.438 160088.097 -107432.381 160425.239 -107230.306 160740.951 -106996.158 161032.192 -106732.192 161296.158 -106440.951 161530.306 -106125.239 161732.381 -105788.097 161900.438 -105432.772 162032.857 -105062.684 162128.364 -104681.4 162186.038 -104292.591 162205.325 -103900 162186.038 -103507.409 162128.364 -103118.6 162032.857 -102737.316 161900.438 -102367.228 161732.381 -102011.903 161620.212 -101824.761 161530.307 -101674.763 161530.306 -101674.761 161296.158 -101359.049 161296.153 -101359.043 161032.192 -101067.807 160740.956 -100803.846 160627.49 -100719.694 160425.239 -100569.694 160338.359 -100517.62 160088.1 -100367.62 159732.772 -100199.562 159732.77 -100199.561 159362.684 -100067.143 158981.406 -99971.637 158981.401 -99971.636 158981.4 -99971.636 158837.256 -99950.254 158592.599 -99913.963 158592.597 -99913.962 158592.591 -99913.962 158200 -99894.675 157807.409 -99913.962 157807.403 -99913.962 157807.4 -99913.963 157418.593 -99971.637 157037.315 -100067.143 156667.229 -100199.561 156667.227 -100199.562 156311.899 -100367.62 155974.763 -100569.692 155659.043 -100803.846 155367.807 -101067.807 155103.846 -101359.043 154869.692 -101674.763 154667.62 -102011.899 154499.562 -102367.227 154499.561 -102367.229 154367.143 -102737.315 154271.637 -103118.593 154271.636 -103118.6 154213.962 -103507.409 154194.675 -103900 146567.956 -103900 146556.038 -103657.409 146498.364 -103268.6 146402.857 -102887.316 146270.438 -102517.228 146102.381 -102161.903 145900.306 -101824.761 145666.158 -101509.049 145530.206 -101359.049 145402.192 -101217.807 145110.956 -100953.846 144908.704 -100803.846 144795.239 -100719.694 144795.236 -100719.692 144458.1 -100517.62 144102.772 -100349.562 144102.77 -100349.561 143732.684 -100217.143 143351.406 -100121.637 143351.401 -100121.636 143351.4 -100121.636 143207.256 -100100.254 142962.599 -100063.963 142962.597 -100063.962 142962.591 -100063.962 142570 -100044.675 142177.409 -100063.962 142177.403 -100063.962 142177.4 -100063.963 141788.593 -100121.637 141407.315 -100217.143 141037.229 -100349.561 141037.227 -100349.562 140681.899 -100517.62 140344.763 -100719.692 140029.043 -100953.846 139737.807 -101217.807 139473.846 -101509.043 139239.692 -101824.763 139037.62 -102161.899 138869.562 -102517.227 138869.561 -102517.229 138737.143 -102887.315 138641.637 -103268.593 138606.214 -103507.4 138583.962 -103657.409 138564.675 -104050 125550.5 -104050 125550.5 -89500 127994.675 -89500 128013.962 -89892.591 128013.962 -89892.597 128013.963 -89892.599 128071.637 -90281.406 128167.143 -90662.684 128299.561 -91032.77 128299.562 -91032.772 128467.62 -91388.1 128669.692 -91725.236 128903.846 -92040.956 129167.807 -92332.192 129459.043 -92596.153 129459.049 -92596.158 129774.761 -92830.306 129774.763 -92830.307 130111.899 -93032.379 130111.902 -93032.38 130111.903 -93032.381 130467.228 -93200.438 130837.316 -93332.857 131218.6 -93428.364 131607.409 -93486.038 132000 -93505.325 132392.591 -93486.038 132781.4 -93428.364 133162.684 -93332.857 133532.772 -93200.438 133888.097 -93032.381 134225.239 -92830.306 134540.951 -92596.158 134832.192 -92332.192 135096.158 -92040.951 135330.306 -91725.239 135532.381 -91388.097 135700.438 -91032.772 135832.857 -90662.684 135928.364 -90281.4 135986.038 -89892.591 136005.325 -89500 135986.038 -89107.409 135928.364 -88718.6 135832.857 -88337.316 135700.438 -87967.228 135588.237 -87729.999 153414.785 -87729.999 153414.785 -87730 153433.602 -87933.082 153489.417 -88129.247 153489.422 -88129.26 153580.327 -88311.821 153703.237 -88474.581 153853.958 -88611.98 153853.96 -88611.982 153853.962 -88611.983 154027.363 -88719.348 154217.544 -88793.024 154418.024 -88830.5 154418.026 -88830.5 154621.974 -88830.5 154621.976 -88830.5 154822.456 -88793.024 155012.637 -88719.348 155186.041 -88611.981 155278.017 -88528.133 155340.818 -88497.518 155410.205 -88505.715 155464.146 -88550.125 155471.673 -88564.698 155471.953 -88564.546 155476.206 -88572.335 155562.452 -88687.544 155562.455 -88687.547 155677.664 -88773.793 155677.671 -88773.797 155812.517 -88824.091 155812.516 -88824.091 155819.444 -88824.835 155872.127 -88830.5 157167.872 -88830.499 157227.483 -88824.091 157362.331 -88773.796 157477.546 -88687.546 157563.796 -88572.331 157614.091 -88437.483 157620.5 -88377.873 157620.499 -87082.128 157614.091 -87022.517 157563.796 -86887.669 157563.795 -86887.668 157563.793 -86887.664 157477.547 -86772.455 157477.544 -86772.452 157362.335 -86686.206 157362.328 -86686.202 157227.482 -86635.908 157227.483 -86635.908 157167.883 -86629.501 157167.881 -86629.5 157167.873 -86629.5 157167.864 -86629.5 155872.129 -86629.5 155872.123 -86629.501 155812.516 -86635.908 155677.671 -86686.202 155677.664 -86686.206 155562.455 -86772.452 155562.452 -86772.455 155476.206 -86887.664 155471.953 -86895.454 155469.741 -86894.246 155435.84 -86939.511 155370.37 -86963.913 155302.101 -86949.045 155278.015 -86931.864 155186.041 -86848.019 155186.039 -86848.017 155012.642 -86740.655 155012.635 -86740.651 154917.546 -86703.814 154822.456 -86666.976 154621.976 -86629.5 154418.024 -86629.5 154217.544 -86666.976 154217.541 -86666.976 154217.541 -86666.977 154027.364 -86740.651 154027.357 -86740.655 153853.96 -86848.017 153853.958 -86848.019 153703.237 -86985.418 153580.327 -87148.178 153489.422 -87330.739 153489.417 -87330.752 153433.602 -87526.917 153414.785 -87729.999 135588.237 -87729.999 135532.381 -87611.903 135481.442 -87526.917 135330.307 -87274.763 135236.426 -87148.179 135096.158 -86959.049 135031.463 -86887.669 134832.192 -86667.807 134540.956 -86403.846 134225.236 -86169.692 133888.1 -85967.62 133532.772 -85799.562 133532.77 -85799.561 133162.684 -85667.143 132781.406 -85571.637 132781.401 -85571.636 132781.4 -85571.636 132637.256 -85550.254 132392.599 -85513.963 132392.597 -85513.962 132392.591 -85513.962 132000 -85494.675 131607.409 -85513.962 131607.403 -85513.962 131607.4 -85513.963 131218.593 -85571.637 130837.315 -85667.143 130467.229 -85799.561 130467.227 -85799.562 130111.899 -85967.62 129774.763 -86169.692 129459.043 -86403.846 129167.807 -86667.807 128903.846 -86959.043 128669.692 -87274.763 128467.62 -87611.899 128299.562 -87967.227 128299.561 -87967.229 128167.143 -88337.315 128071.637 -88718.593 128055.038 -88830.498 128013.962 -89107.409 127994.675 -89500 125550.5 -89500 125550.5 -78969.998 136924.532 -78969.998 136924.532 -78970.001 136944.364 -79196.686 136944.366 -79196.697 137003.258 -79416.488 137003.261 -79416.497 137099.431 -79622.732 137099.432 -79622.734 137229.954 -79809.141 137390.858 -79970.045 137390.861 -79970.047 137577.266 -80100.568 137635.275 -80127.618 137687.714 -80173.791 137706.866 -80240.984 137686.65 -80307.865 137635.275 -80352.382 137577.267 -80379.431 137577.265 -80379.432 137390.858 -80509.954 137229.954 -80670.858 137099.432 -80857.265 137099.431 -80857.267 137003.261 -81063.502 137003.258 -81063.511 136944.366 -81283.302 136944.364 -81283.313 136924.532 -81509.998 136924.532 -81510.001 136944.364 -81736.686 136944.366 -81736.697 137003.258 -81956.488 137003.261 -81956.496 137099.431 -82162.732 137099.432 -82162.734 137229.954 -82349.141 137390.858 -82510.045 137390.861 -82510.047 137577.266 -82640.568 137635.275 -82667.618 137687.714 -82713.791 137706.866 -82780.984 137686.65 -82847.865 137635.275 -82892.382 137577.267 -82919.431 137577.265 -82919.432 137390.858 -83049.954 137229.954 -83210.858 137099.432 -83397.265 137099.431 -83397.267 137003.261 -83603.502 137003.258 -83603.511 136944.366 -83823.302 136944.364 -83823.313 136924.532 -84049.998 136924.532 -84050.001 136944.364 -84276.686 136944.366 -84276.697 137003.258 -84496.488 137003.261 -84496.497 137099.431 -84702.732 137099.432 -84702.734 137229.954 -84889.141 137390.858 -85050.045 137390.861 -85050.047 137577.266 -85180.568 137783.504 -85276.739 138003.308 -85335.635 138165.23 -85349.801 138229.998 -85355.468 138230 -85355.468 138230.002 -85355.468 138286.673 -85350.509 138456.692 -85335.635 138676.496 -85276.739 138882.734 -85180.568 139069.139 -85050.047 139230.047 -84889.139 139360.568 -84702.734 139456.739 -84496.496 139515.635 -84276.692 139535.468 -84050 139515.635 -83823.308 139489.847 -83727.066 139491.51 -83657.217 139521.939 -83607.294 140938.506 -82190.728 140938.511 -82190.724 140948.714 -82180.52 140948.716 -82180.52 141060.52 -82068.716 141125.31 -81956.496 141139.577 -81931.785 141180.501 -81779.057 141180.501 -81620.943 141180.501 -81613.348 141180.5 -81613.33 141180.5 -81161.057 141200.185 -81094.018 141239.401 -81055.52 141373.656 -80972.712 141497.712 -80848.656 141589.814 -80699.334 141644.999 -80532.797 141655.5 -80430.009 141655.499 -79029.992 141644.999 -78927.203 141589.814 -78760.666 141497.712 -78611.344 141373.656 -78487.288 141224.334 -78395.186 141057.797 -78340.001 141057.795 -78340 140955.01 -78329.5 140204.998 -78329.5 140204.98 -78329.501 140102.203 -78340 140102.2 -78340.001 139935.668 -78395.185 139935.663 -78395.187 139786.345 -78487.287 139670.607 -78603.025 139609.284 -78636.509 139539.592 -78631.525 139483.659 -78589.653 139463.151 -78547.436 139456.739 -78523.504 139360.568 -78317.266 139230.047 -78130.861 139230.046 -78130.86 139230.045 -78130.858 139069.143 -77969.956 139044.536 -77952.726 139000.912 -77898.149 138993.719 -77828.65 139025.241 -77766.296 139085.471 -77730.882 139102.404 -77727.861 139137.483 -77724.091 139272.331 -77673.796 139387.546 -77587.546 139473.796 -77472.331 139524.091 -77337.483 139530.5 -77277.873 139530.499 -75582.128 139524.091 -75522.517 139489.567 -75429.954 139473.797 -75387.671 139473.793 -75387.664 139387.547 -75272.455 139387.544 -75272.452 139272.335 -75186.206 139272.328 -75186.202 139137.482 -75135.908 139137.483 -75135.908 139077.883 -75129.501 139077.881 -75129.5 139077.873 -75129.5 139077.864 -75129.5 137382.129 -75129.5 137382.123 -75129.501 137322.516 -75135.908 137187.671 -75186.202 137187.664 -75186.206 137072.455 -75272.452 137072.452 -75272.455 136986.206 -75387.664 136986.202 -75387.671 136935.908 -75522.517 136929.501 -75582.116 136929.501 -75582.123 136929.5 -75582.135 136929.5 -77277.87 136929.501 -77277.876 136935.908 -77337.483 136986.202 -77472.328 136986.206 -77472.335 137072.452 -77587.544 137072.455 -77587.547 137187.664 -77673.793 137187.671 -77673.797 137232.618 -77690.561 137322.517 -77724.091 137357.596 -77727.862 137422.144 -77754.599 137461.993 -77811.991 137464.488 -77881.816 137428.836 -77941.905 137415.464 -77952.725 137390.858 -77969.954 137229.954 -78130.858 137099.432 -78317.265 137099.431 -78317.267 137003.261 -78523.502 137003.258 -78523.511 136944.366 -78743.302 136944.364 -78743.313 136924.532 -78969.998 125550.5 -78969.998 125550.5 -70500 127994.675 -70500 128013.962 -70892.591 128013.962 -70892.597 128013.963 -70892.599 128071.637 -71281.406 128167.143 -71662.684 128299.561 -72032.77 128299.562 -72032.772 128467.62 -72388.1 128669.692 -72725.236 128903.846 -73040.956 129167.807 -73332.192 129459.043 -73596.153 129459.049 -73596.158 129774.761 -73830.306 129774.763 -73830.307 130111.899 -74032.379 130111.902 -74032.38 130111.903 -74032.381 130467.228 -74200.438 130837.316 -74332.857 131218.6 -74428.364 131607.409 -74486.038 132000 -74505.325 132392.591 -74486.038 132781.4 -74428.364 133162.684 -74332.857 133532.772 -74200.438 133888.097 -74032.381 134225.239 -73830.306 134540.951 -73596.158 134832.192 -73332.192 135096.158 -73040.951 135330.306 -72725.239 135532.381 -72388.097 135700.438 -72032.772 135832.857 -71662.684 135928.364 -71281.4 135986.038 -70892.591 136005.325 -70500 135986.038 -70107.409 135928.364 -69718.6 135832.857 -69337.316 135700.438 -68967.228 135532.381 -68611.903 135330.306 -68274.761 135096.158 -67959.049 135096.153 -67959.043 134832.192 -67667.807 134540.956 -67403.846 134410.471 -67307.072 134225.239 -67169.694 134225.236 -67169.692 133888.1 -66967.62 133532.772 -66799.562 133532.77 -66799.561 133162.684 -66667.143 132781.406 -66571.637 132781.401 -66571.636 132781.4 -66571.636 132637.256 -66550.254 132392.599 -66513.963 132392.597 -66513.962 132392.591 -66513.962 132000 -66494.675 131607.409 -66513.962 131607.403 -66513.962 131607.4 -66513.963 131218.593 -66571.637 130837.315 -66667.143 130467.229 -66799.561 130467.227 -66799.562 130111.899 -66967.62 129774.763 -67169.692 129459.043 -67403.846 129167.807 -67667.807 128903.846 -67959.043 128669.692 -68274.763 128467.62 -68611.899 128299.562 -68967.227 128299.561 -68967.229 128167.143 -69337.315 128071.637 -69718.593 128041.278 -69923.261 128013.962 -70107.409 127994.675 -70500 125550.5 -70500 125550.5 -65379.054 137499.498 -65379.054 137522.579 -65465.19 137540.423 -65531.785 137550.65 -65549.499 137569.358 -65581.9 137569.359 -65581.904 137569.36 -65581.904 137619.479 -65668.714 137619.481 -65668.717 137738.349 -65787.585 137738.355 -65787.59 138790.139 -66839.374 138790.16 -66839.397 138892.412 -66941.649 138922.437 -66990.326 138965.186 -67119.334 139057.288 -67268.656 139181.344 -67392.712 139330.666 -67484.814 139497.203 -67539.999 139599.991 -67550.5 141000.008 -67550.499 141102.797 -67539.999 141269.334 -67484.814 141418.656 -67392.712 141542.712 -67268.656 141634.814 -67119.334 141689.999 -66952.797 141700.5 -66850.009 141700.499 -66099.992 141690.15 -65998.686 141702.919 -65929.997 141725.824 -65898.409 141787.418 -65836.817 141848.742 -65803.333 141875.098 -65800.5 142725.5 -65800.5 142792.539 -65820.185 142838.294 -65872.989 142849.5 -65924.5 142849.5 -66665.701 142852.401 -66702.567 142852.402 -66702.573 142898.254 -66860.393 142898.255 -66860.396 142981.917 -67001.862 142981.923 -67001.87 143013.18 -67033.126 143046.666 -67094.448 143049.5 -67120.808 143049.5 -68263.33 143049.499 -68263.348 143049.499 -68429.054 143049.498 -68429.054 143090.422 -68581.783 143107.811 -68611.901 143107.813 -68611.904 143169.479 -68718.714 143169.481 -68718.717 143288.349 -68837.585 143288.355 -68837.59 145965.139 -71514.374 145965.149 -71514.385 145969.479 -71518.715 145969.48 -71518.716 146081.284 -71630.52 146168.095 -71680.639 146168.097 -71680.641 146206.151 -71702.611 146218.215 -71709.577 146370.943 -71750.501 146370.946 -71750.501 146536.653 -71750.501 146536.669 -71750.5 147475.5 -71750.5 147542.539 -71770.185 147588.294 -71822.989 147599.5 -71874.5 147599.5 -76319.902 147579.815 -76386.941 147563.181 -76407.583 147359.428 -76611.335 147298.105 -76644.82 147228.413 -76639.836 147172.48 -76597.964 147148.063 -76532.5 147148.218 -76512.857 147155.468 -76430 147135.635 -76203.308 147076.739 -75983.504 146980.568 -75777.266 146850.047 -75590.861 146850.045 -75590.858 146689.141 -75429.954 146502.734 -75299.432 146502.732 -75299.431 146296.497 -75203.261 146296.488 -75203.258 146076.697 -75144.366 146076.693 -75144.365 146076.692 -75144.365 146076.691 -75144.364 146076.686 -75144.364 145850.002 -75124.532 145849.998 -75124.532 145623.313 -75144.364 145623.302 -75144.366 145403.511 -75203.258 145403.502 -75203.261 145197.267 -75299.431 145197.265 -75299.432 145010.858 -75429.954 144849.954 -75590.858 144719.432 -75777.265 144719.431 -75777.267 144623.261 -75983.502 144623.258 -75983.511 144564.366 -76203.302 144564.364 -76203.313 144544.532 -76429.998 144544.532 -76430.001 144564.364 -76656.686 144564.366 -76656.697 144590.152 -76752.931 144588.489 -76822.781 144558.058 -76872.705 143161.286 -78269.478 143161.281 -78269.481 143161.282 -78269.482 143126.34 -78304.422 143065.016 -78337.905 143053.196 -78339.788 143052.201 -78340.001 142885.668 -78395.185 142885.663 -78395.187 142736.342 -78487.289 142612.289 -78611.342 142520.187 -78760.663 142520.186 -78760.666 142465.001 -78927.203 142465.001 -78927.204 142465 -78927.204 142454.5 -79029.983 142454.5 -80430.001 142454.501 -80430.018 142465 -80532.796 142465.001 -80532.799 142506.246 -80657.265 142520.186 -80699.334 142612.288 -80848.656 142736.344 -80972.712 142885.666 -81064.814 143052.203 -81119.999 143154.991 -81130.5 143905.008 -81130.499 143905.016 -81130.498 143905.019 -81130.498 143961.302 -81124.748 144007.797 -81119.999 144174.334 -81064.814 144323.656 -80972.712 144447.712 -80848.656 144460.097 -80828.575 144512.044 -80781.85 144556.278 -80774.65 144542.811 -80751.747 144545.373 -80682.555 144594.999 -80532.797 144605.5 -80430.009 144605.499 -79853.298 144625.183 -79786.261 144677.987 -79740.506 144747.146 -79730.562 144810.702 -79759.587 144831.074 -79782.177 144849.954 -79809.141 145010.858 -79970.045 145010.861 -79970.047 145197.266 -80100.568 145255.275 -80127.618 145307.714 -80173.791 145326.866 -80240.984 145306.65 -80307.865 145255.275 -80352.382 145197.267 -80379.431 145197.265 -80379.432 145010.858 -80509.954 144849.954 -80670.858 144764.655 -80792.68 144710.079 -80836.305 144672.978 -80840.145 144683.946 -80856.536 144685.241 -80926.394 144678.019 -80946.075 144623.262 -81063.502 144623.258 -81063.511 144564.366 -81283.302 144564.364 -81283.313 144544.532 -81509.998 144544.532 -81510.001 144564.364 -81736.686 144564.366 -81736.697 144623.258 -81956.488 144623.261 -81956.496 144719.431 -82162.732 144719.432 -82162.734 144849.954 -82349.141 145010.858 -82510.045 145010.861 -82510.047 145197.266 -82640.568 145255.275 -82667.618 145307.714 -82713.791 145326.866 -82780.984 145306.65 -82847.865 145255.275 -82892.382 145197.267 -82919.431 145197.265 -82919.432 145010.858 -83049.954 144849.954 -83210.858 144719.432 -83397.265 144719.431 -83397.267 144623.261 -83603.502 144623.258 -83603.511 144564.366 -83823.302 144564.364 -83823.313 144544.532 -84049.998 144544.532 -84050.001 144564.364 -84276.686 144564.366 -84276.697 144623.258 -84496.488 144623.261 -84496.497 144719.431 -84702.732 144719.432 -84702.734 144849.954 -84889.141 145010.858 -85050.045 145010.861 -85050.047 145197.266 -85180.568 145403.504 -85276.739 145623.308 -85335.635 145785.23 -85349.801 145849.998 -85355.468 145850 -85355.468 145850.002 -85355.468 145906.673 -85350.509 146076.692 -85335.635 146296.496 -85276.739 146502.734 -85180.568 146689.139 -85050.047 146850.047 -84889.139 146980.118 -84703.375 147034.693 -84659.752 147081.692 -84650.5 152763.331 -84650.5 152763.347 -84650.501 152770.943 -84650.501 152929.054 -84650.501 152929.057 -84650.501 153081.785 -84609.577 153131.904 -84580.639 153218.716 -84530.52 153330.52 -84418.716 153330.52 -84418.714 153340.728 -84408.507 153340.73 -84408.504 156439.236 -81309.998 157724.532 -81309.998 157724.532 -81310.001 157744.364 -81536.686 157744.366 -81536.697 157803.258 -81756.488 157803.261 -81756.497 157899.431 -81962.732 157899.432 -81962.734 158029.954 -82149.141 158190.858 -82310.045 158190.861 -82310.047 158377.266 -82440.568 158583.504 -82536.739 158803.308 -82595.635 158965.23 -82609.801 159029.998 -82615.468 159030 -82615.468 159030.002 -82615.468 159086.673 -82610.509 159256.692 -82595.635 159476.496 -82536.739 159682.734 -82440.568 159869.139 -82310.047 160030.047 -82149.139 160160.568 -81962.734 160256.739 -81756.496 160315.635 -81536.692 160335.468 -81310 160315.635 -81083.308 160256.739 -80863.504 160160.568 -80657.266 160030.047 -80470.861 160030.045 -80470.858 159869.141 -80309.954 159682.734 -80179.432 159682.732 -80179.431 159476.497 -80083.261 159476.488 -80083.258 159256.697 -80024.366 159256.693 -80024.365 159256.692 -80024.365 159256.691 -80024.364 159256.686 -80024.364 159030.002 -80004.532 159029.998 -80004.532 158803.313 -80024.364 158803.302 -80024.366 158583.511 -80083.258 158583.502 -80083.261 158377.267 -80179.431 158377.265 -80179.432 158190.858 -80309.954 158029.954 -80470.858 157899.432 -80657.265 157899.431 -80657.267 157803.261 -80863.502 157803.258 -80863.511 157744.366 -81083.302 157744.364 -81083.313 157724.532 -81309.998 156439.236 -81309.998 159388.506 -78360.728 159388.511 -78360.724 159398.714 -78350.52 159398.716 -78350.52 159510.52 -78238.716 159572.79 -78130.861 159589.577 -78101.785 159630.501 -77949.057 159630.501 -77790.943 159630.501 -77783.348 159630.5 -77783.33 159630.5 -72381.692 159650.185 -72314.653 159683.374 -72280.119 159869.139 -72150.047 160030.047 -71989.139 160160.568 -71802.734 160256.739 -71596.496 160315.635 -71376.692 160335.468 -71150 160315.635 -70923.308 160256.739 -70703.504 160160.568 -70497.266 160030.047 -70310.861 160030.045 -70310.858 159869.141 -70149.954 159682.734 -70019.432 159682.732 -70019.431 159476.497 -69923.261 159476.488 -69923.258 159256.697 -69864.366 159256.693 -69864.365 159256.692 -69864.365 159256.691 -69864.364 159256.686 -69864.364 159030.002 -69844.532 159029.998 -69844.532 158803.313 -69864.364 158803.302 -69864.366 158707.067 -69890.152 158637.217 -69888.489 158587.293 -69858.058 154517.59 -65788.355 154517.588 -65788.352 154398.717 -65669.481 154398.716 -65669.48 154311.904 -65619.36 154311.904 -65619.359 154311.9 -65619.358 154261.785 -65590.423 154109.057 -65549.499 153950.943 -65549.499 153943.347 -65549.499 153943.331 -65549.5 148652.349 -65549.5 148585.31 -65529.815 148539.555 -65477.011 148529.611 -65407.853 148558.636 -65344.297 148590.343 -65318.116 148609.504 -65307.052 148685.605 -65263.115 148688.566 -65261.522 148688.617 -65261.484 148690.25 -65259.789 148729.735 -65220.299 148729.74 -65220.296 148766.689 -65183.346 148800.52 -65149.516 148800.521 -65149.514 148807.045 -65142.99 148807.092 -65142.935 148906.685 -65043.333 149313.16 -64636.818 149754.779 -64195.157 149754.782 -64195.153 149780.841 -64169.094 149823.694 -64126.241 149826.373 -64123.735 149826.438 -64123.652 149827.627 -64121.503 149835.531 -64107.811 149858.677 -64067.716 149903.642 -63989.834 149905.698 -63986.525 149905.703 -63986.511 149906.594 -63982.701 149930.433 -63893.72 149930.434 -63893.718 149946.433 -63834.006 149946.499 -63833.762 149946.501 -63833.738 149946.505 -63833.728 149946.5 -63734.906 149946.5 -63445.943 149946.5 -56657.419 149946.504 -56567.069 149946.502 -56567.061 149946.5 -56567.046 149946.5 -56567.043 149928.549 -56500.047 149928.548 -56500.045 149928.548 -56500.044 149928.296 -56499.104 149906.591 -56418.089 149905.794 -56414.676 149905.743 -56414.55 149904.773 -56412.923 149895.688 -56397.187 149862.174 -56339.139 149826.535 -56277.405 149826.529 -56277.399 149826.528 -56277.397 149826.525 -56277.393 149826.52 -56277.384 149757.927 -56208.791 149757.725 -56208.589 149491.921 -55942.761 149458.439 -55881.437 149459.83 -55822.992 149485.635 -55726.692 149505.468 -55500 149485.635 -55273.308 149426.739 -55053.504 149330.568 -54847.266 149200.047 -54660.861 149200.045 -54660.858 149039.141 -54499.954 148852.734 -54369.432 148852.732 -54369.431 148646.497 -54273.261 148646.488 -54273.258 148426.697 -54214.366 148426.693 -54214.365 148426.692 -54214.365 148426.691 -54214.364 148426.686 -54214.364 148200.002 -54194.532 148199.998 -54194.532 147973.313 -54214.364 147973.302 -54214.366 147753.511 -54273.258 147753.502 -54273.261 147547.267 -54369.431 147547.265 -54369.432 147360.858 -54499.954 147237.681 -54623.132 147176.358 -54656.617 147106.666 -54651.633 147062.319 -54623.132 146939.141 -54499.954 146752.734 -54369.432 146752.732 -54369.431 146546.497 -54273.261 146546.488 -54273.258 146326.697 -54214.366 146326.693 -54214.365 146326.692 -54214.365 146326.691 -54214.364 146326.686 -54214.364 146100.002 -54194.532 146099.998 -54194.532 145873.313 -54214.364 145873.302 -54214.366 145653.511 -54273.258 145653.502 -54273.261 145447.267 -54369.431 145447.265 -54369.432 145260.858 -54499.954 145099.954 -54660.858 145026.074 -54766.372 144971.498 -54809.997 144901.999 -54817.191 144839.644 -54785.669 144804.23 -54725.439 144800.499 -54695.249 144800.499 -54652.129 144800.498 -54652.123 144800.445 -54651.633 144794.091 -54592.517 144776.188 -54544.517 144743.797 -54457.671 144743.793 -54457.664 144657.547 -54342.455 144657.544 -54342.452 144542.335 -54256.206 144542.328 -54256.202 144407.482 -54205.908 144407.483 -54205.908 144347.883 -54199.501 144347.881 -54199.5 144347.873 -54199.5 144347.864 -54199.5 142652.129 -54199.5 142652.123 -54199.501 142592.516 -54205.908 142457.671 -54256.202 142457.664 -54256.206 142342.455 -54342.452 142301.555 -54397.087 142245.62 -54438.958 142175.929 -54443.941 142131.166 -54424.35 142052.734 -54369.432 142052.732 -54369.431 141846.497 -54273.261 141846.488 -54273.258 141626.697 -54214.366 141626.693 -54214.365 141626.692 -54214.365 141626.691 -54214.364 141626.686 -54214.364 141400.002 -54194.532 141399.998 -54194.532 141173.313 -54214.364 141173.302 -54214.366 140953.511 -54273.258 140953.502 -54273.261 140747.267 -54369.431 140747.265 -54369.432 140560.858 -54499.954 140399.954 -54660.858 140326.074 -54766.372 140269.881 -54846.624 140215.307 -54890.248 140168.308 -54899.5 139879.057 -54899.5 139720.943 -54899.5 139568.215 -54940.423 139568.214 -54940.423 139568.212 -54940.424 139568.209 -54940.425 139518.096 -54969.359 139518.095 -54969.36 139474.689 -54994.42 139431.285 -55019.479 139431.282 -55019.481 137619.481 -56831.282 137619.479 -56831.285 137601.459 -56862.498 137582.799 -56894.819 137569.361 -56918.094 137569.359 -56918.096 137540.425 -56968.209 137540.424 -56968.21 137539.833 -56970.416 137499.499 -57120.943 137499.499 -57120.945 137499.499 -57289.046 137499.5 -57289.059 137499.5 -65213.33 137499.499 -65213.348 137499.499 -65379.054 137499.498 -65379.054 125550.5 -65379.054 125550.5 -50324.5 125570.185 -50257.461 125622.989 -50211.706 125674.5 -50200.5 137541.896 -50200.5 137608.935 -50220.185"/><path d="M 142265.139 -56570.332 142301.555 -56602.913 142342.452 -56657.544 142342.455 -56657.547 142457.664 -56743.793 142457.671 -56743.797 142502.618 -56760.561 142592.517 -56794.091 142652.127 -56800.5 142849.787 -56800.499 142916.827 -56820.183 142957.172 -56862.495 142969.36 -56883.604 143018.206 -56968.21 143019.479 -56970.414 143019.481 -56970.417 143138.349 -57089.285 143138.355 -57089.29 144913.181 -58864.116 144946.666 -58925.439 144949.5 -58951.797 144949.5 -62625.888 144929.815 -62692.927 144877.011 -62738.682 144818.152 -62749.086 144818.132 -62749.596 144815.789 -62749.504 144815.778 -62749.506 144815.717 -62749.501 144815.699 -62749.5 144815.694 -62749.5 144384.306 -62749.5 144384.298 -62749.5 144347.432 -62752.401 144347.426 -62752.402 144189.606 -62798.254 144189.605 -62798.254 144189.602 -62798.256 144188.118 -62799.133 144186.804 -62799.466 144182.446 -62801.353 144182.141 -62800.649 144120.396 -62816.315 144067.766 -62800.861 144067.554 -62801.353 144063.573 -62799.63 144061.881 -62799.133 144060.398 -62798.256 144060.394 -62798.255 144060.393 -62798.254 143902.573 -62752.402 143902.567 -62752.401 143865.701 -62749.5 143865.694 -62749.5 143450.097 -62749.5 143383.058 -62729.815 143362.416 -62713.181 142036.819 -61387.583 142003.334 -61326.26 142000.5 -61299.902 142000.5 -59531.692 142020.185 -59464.653 142053.374 -59430.119 142239.139 -59300.047 142400.047 -59139.139 142530.568 -58952.734 142626.739 -58746.496 142685.635 -58526.692 142705.468 -58300 142685.635 -58073.308 142626.739 -57853.504 142530.568 -57647.266 142400.047 -57460.861 142400.045 -57460.858 142239.141 -57299.954 142052.734 -57169.432 142052.732 -57169.431 141846.497 -57073.261 141846.488 -57073.258 141646.882 -57019.775 141587.221 -56983.41 141556.692 -56920.563 141564.987 -56851.188 141609.472 -56797.31 141646.882 -56780.225 141846.496 -56726.739 142052.734 -56630.568 142131.168 -56575.648 142197.372 -56553.322 142265.139 -56570.332"/><path d="M 140235.347 -56120.185 140269.88 -56153.374 140310.256 -56211.037 140399.954 -56339.141 140560.858 -56500.045 140560.861 -56500.047 140747.266 -56630.568 140953.504 -56726.739 140953.509 -56726.74 140953.511 -56726.741 141153.117 -56780.225 141212.778 -56816.59 141243.307 -56879.437 141235.012 -56948.812 141190.527 -57002.69 141153.117 -57019.775 140953.511 -57073.258 140953.502 -57073.261 140747.267 -57169.431 140747.265 -57169.432 140560.858 -57299.954 140399.954 -57460.858 140269.432 -57647.265 140269.431 -57647.267 140173.261 -57853.502 140173.258 -57853.511 140114.366 -58073.302 140114.364 -58073.313 140094.532 -58299.998 140094.532 -58300.001 140114.364 -58526.686 140114.366 -58526.697 140173.258 -58746.488 140173.261 -58746.497 140269.431 -58952.732 140269.432 -58952.734 140399.954 -59139.141 140560.858 -59300.045 140560.861 -59300.047 140746.624 -59430.118 140790.248 -59484.693 140799.5 -59531.692 140799.5 -61513.33 140799.499 -61513.348 140799.499 -61679.054 140799.498 -61679.054 140840.423 -61831.785 140869.358 -61881.9 140869.359 -61881.904 140869.36 -61881.904 140919.479 -61968.714 140919.481 -61968.717 141038.349 -62087.585 141038.355 -62087.59 141199.345 -62248.58 141232.83 -62309.903 141227.846 -62379.595 141185.974 -62435.528 141120.51 -62459.945 141099.062 -62459.619 141000.011 -62449.5 139599.998 -62449.5 139599.981 -62449.501 139497.203 -62460 139497.2 -62460.001 139330.668 -62515.185 139330.663 -62515.187 139181.342 -62607.289 139057.289 -62731.342 138965.187 -62880.663 138965.185 -62880.668 138942.206 -62950.016 138902.433 -63007.461 138837.917 -63034.284 138769.142 -63021.969 138717.942 -62974.426 138700.5 -62911.012 138700.5 -57500.097 138720.185 -57433.058 138736.819 -57412.416 140012.416 -56136.819 140073.739 -56103.334 140100.097 -56100.5 140168.308 -56100.5 140235.347 -56120.185"/><path d="M 145005.7 -56211.037 145026.074 -56233.629 145099.953 -56339.14 145260.858 -56500.045 145260.861 -56500.047 145447.266 -56630.568 145653.504 -56726.739 145873.308 -56785.635 146035.23 -56799.801 146099.998 -56805.468 146100 -56805.468 146100.002 -56805.468 146156.796 -56800.499 146326.692 -56785.635 146546.496 -56726.739 146752.734 -56630.568 146939.139 -56500.047 146940.082 -56499.104 147062.319 -56376.868 147123.642 -56343.383 147193.334 -56348.367 147237.681 -56376.868 147360.858 -56500.045 147360.861 -56500.047 147547.266 -56630.568 147753.504 -56726.739 147753.509 -56726.74 147753.511 -56726.741 147953.117 -56780.225 148012.778 -56816.59 148043.307 -56879.437 148035.012 -56948.812 147990.527 -57002.69 147953.117 -57019.775 147753.511 -57073.258 147753.502 -57073.261 147547.267 -57169.431 147547.265 -57169.432 147360.858 -57299.954 147199.954 -57460.858 147069.432 -57647.265 147069.431 -57647.267 146973.261 -57853.502 146973.258 -57853.511 146914.366 -58073.302 146914.364 -58073.313 146894.532 -58299.998 146894.532 -58300.001 146914.364 -58526.686 146914.366 -58526.697 146973.258 -58746.488 146973.261 -58746.497 147069.431 -58952.732 147069.432 -58952.734 147199.954 -59139.141 147360.858 -59300.045 147360.861 -59300.047 147547.266 -59430.568 147753.504 -59526.739 147973.308 -59585.635 148135.23 -59599.801 148199.998 -59605.468 148200 -59605.468 148200.002 -59605.468 148256.673 -59600.509 148426.692 -59585.635 148589.407 -59542.036 148659.257 -59543.699 148717.119 -59582.862 148744.623 -59647.09 148745.5 -59661.811 148745.5 -63454.621 148725.815 -63521.66 148709.186 -63542.298 148107.567 -64143.977 148046.245 -64177.465 148019.881 -64180.3 146474.5 -64180.3 146407.461 -64160.615 146361.706 -64107.811 146350.5 -64056.3 146350.5 -63334.313 146350.499 -63334.298 146347.598 -63297.432 146347.597 -63297.426 146304.764 -63149.998 146301.744 -63139.602 146218.081 -62998.135 146218.079 -62998.133 146218.076 -62998.129 146186.819 -62966.872 146153.334 -62905.549 146150.5 -62879.191 146150.5 -58740.76 146150.501 -58740.747 146150.501 -58572.645 146150.501 -58572.643 146109.577 -58419.915 146030.52 -58282.984 144614.352 -56866.817 144580.868 -56805.495 144585.852 -56735.803 144627.722 -56679.871 144657.546 -56657.546 144743.796 -56542.331 144794.091 -56407.483 144800.5 -56347.873 144800.499 -56304.751 144820.182 -56237.715 144872.985 -56191.959 144942.143 -56182.014 145005.7 -56211.037"/><path d="M 141884.996 -62936.855 141901.419 -62950.654 142813.181 -63862.416 142846.666 -63923.739 142849.5 -63950.097 142849.5 -64056.3 142829.815 -64123.339 142777.011 -64169.094 142725.5 -64180.3 141855.897 -64180.3 141788.858 -64160.615 141768.216 -64143.981 141725.828 -64101.593 141692.343 -64040.27 141690.151 -64001.309 141695.383 -63950.097 141700.5 -63900.009 141700.499 -63149.992 141690.38 -63050.935 141703.15 -62982.244 141751.03 -62931.36 141818.82 -62914.439 141884.996 -62936.855"/><path d="M 138905.703 -64045.275 138942.205 -64099.982 138950.076 -64123.735 138965.185 -64169.331 138965.187 -64169.336 138981.111 -64195.153 139057.288 -64318.656 139181.344 -64442.712 139330.666 -64534.814 139497.203 -64589.999 139599.991 -64600.5 140474.902 -64600.499 140541.941 -64620.183 140562.583 -64636.818 140838.083 -64912.318 140871.568 -64973.641 140866.584 -65043.333 140838.083 -65087.68 140562.583 -65363.181 140501.26 -65396.666 140474.902 -65399.5 139599.998 -65399.5 139599.98 -65399.501 139497.203 -65410 139497.2 -65410.001 139330.668 -65465.185 139330.659 -65465.19 139280.365 -65496.211 139212.972 -65514.651 139146.309 -65493.728 139127.588 -65478.353 138736.819 -65087.584 138703.334 -65026.261 138700.5 -64999.903 138700.5 -64138.988 138720.185 -64071.949 138772.989 -64026.194 138842.147 -64016.25 138905.703 -64045.275"/><path d="M 153796.942 -66770.185 153817.584 -66786.819 157738.058 -70707.293 157771.543 -70768.616 157770.152 -70827.067 157744.366 -70923.302 157744.364 -70923.313 157724.532 -71149.998 157724.532 -71150.001 157744.364 -71376.686 157744.366 -71376.697 157803.258 -71596.488 157803.261 -71596.497 157899.431 -71802.732 157899.432 -71802.734 158029.954 -71989.141 158190.858 -72150.045 158190.861 -72150.047 158376.624 -72280.118 158420.248 -72334.693 158429.5 -72381.692 158429.5 -77569.903 158409.815 -77636.942 158393.181 -77657.584 152637.584 -83413.181 152576.261 -83446.666 152549.903 -83449.5 147081.692 -83449.5 147014.653 -83429.815 146980.119 -83396.625 146850.047 -83210.861 146850.045 -83210.858 146689.141 -83049.954 146502.734 -82919.432 146502.728 -82919.429 146444.725 -82892.382 146392.285 -82846.21 146373.133 -82779.017 146393.348 -82712.135 146444.725 -82667.618 146502.734 -82640.568 146689.139 -82510.047 146850.047 -82349.139 146980.568 -82162.734 147076.739 -81956.496 147135.635 -81736.692 147155.468 -81510 147137.97 -81309.998 150724.532 -81309.998 150724.532 -81310.001 150744.364 -81536.686 150744.366 -81536.697 150803.258 -81756.488 150803.261 -81756.497 150899.431 -81962.732 150899.432 -81962.734 151029.954 -82149.141 151190.858 -82310.045 151190.861 -82310.047 151377.266 -82440.568 151583.504 -82536.739 151803.308 -82595.635 151965.23 -82609.801 152029.998 -82615.468 152030 -82615.468 152030.002 -82615.468 152086.673 -82610.509 152256.692 -82595.635 152476.496 -82536.739 152682.734 -82440.568 152869.139 -82310.047 153030.047 -82149.139 153160.568 -81962.734 153256.739 -81756.496 153315.635 -81536.692 153335.468 -81310 153315.635 -81083.308 153256.739 -80863.504 153160.568 -80657.266 153030.047 -80470.861 153030.045 -80470.858 152869.141 -80309.954 152682.734 -80179.432 152682.732 -80179.431 152476.497 -80083.261 152476.488 -80083.258 152256.697 -80024.366 152256.693 -80024.365 152256.692 -80024.365 152256.691 -80024.364 152256.686 -80024.364 152030.002 -80004.532 152029.998 -80004.532 151803.313 -80024.364 151803.302 -80024.366 151583.511 -80083.258 151583.502 -80083.261 151377.267 -80179.431 151377.265 -80179.432 151190.858 -80309.954 151029.954 -80470.858 150899.432 -80657.265 150899.431 -80657.267 150803.261 -80863.502 150803.258 -80863.511 150744.366 -81083.302 150744.364 -81083.313 150724.532 -81309.998 147137.97 -81309.998 147135.635 -81283.308 147082.047 -81083.313 147076.741 -81063.511 147076.738 -81063.502 147073.015 -81055.518 146980.568 -80857.266 146850.047 -80670.861 146850.045 -80670.858 146689.141 -80509.954 146502.734 -80379.432 146502.728 -80379.429 146444.725 -80352.382 146392.285 -80306.21 146373.133 -80239.017 146393.348 -80172.135 146444.725 -80127.618 146502.734 -80100.568 146689.139 -79970.047 146850.047 -79809.139 146980.568 -79622.734 147076.739 -79416.496 147135.635 -79196.692 147155.468 -78970 147151.723 -78927.2 147141.964 -78815.654 147135.635 -78743.308 147109.847 -78647.066 147111.51 -78577.217 147141.939 -78527.294 148558.506 -77110.728 148558.511 -77110.724 148568.714 -77100.52 148568.716 -77100.52 148680.52 -76988.716 148745.31 -76876.496 148759.577 -76851.785 148800.501 -76699.057 148800.501 -76540.943 148800.501 -76533.348 148800.5 -76533.33 148800.5 -71874.5 148820.185 -71807.461 148872.989 -71761.706 148924.5 -71750.5 150798.308 -71750.5 150865.347 -71770.185 150899.88 -71803.374 150913.615 -71822.989 151029.954 -71989.141 151190.858 -72150.045 151190.861 -72150.047 151377.266 -72280.568 151583.504 -72376.739 151803.308 -72435.635 151965.23 -72449.801 152029.998 -72455.468 152030 -72455.468 152030.002 -72455.468 152086.673 -72450.509 152256.692 -72435.635 152476.496 -72376.739 152682.734 -72280.568 152869.139 -72150.047 153030.047 -71989.139 153160.568 -71802.734 153256.739 -71596.496 153315.635 -71376.692 153335.468 -71150 153315.635 -70923.308 153256.739 -70703.504 153160.568 -70497.266 153030.047 -70310.861 153030.045 -70310.858 152869.141 -70149.954 152682.734 -70019.432 152682.732 -70019.431 152476.497 -69923.261 152476.488 -69923.258 152256.697 -69864.366 152256.693 -69864.365 152256.692 -69864.365 152256.691 -69864.364 152256.686 -69864.364 152030.002 -69844.532 152029.998 -69844.532 151803.313 -69864.364 151803.302 -69864.366 151583.511 -69923.258 151583.502 -69923.261 151377.267 -70019.431 151377.265 -70019.432 151190.858 -70149.954 151029.954 -70310.858 150953.45 -70420.118 150899.881 -70496.624 150845.307 -70540.248 150798.308 -70549.5 146750.097 -70549.5 146683.058 -70529.815 146662.416 -70513.181 144286.819 -68137.584 144253.334 -68076.261 144250.5 -68049.903 144250.5 -67374.111 144270.185 -67307.072 144322.989 -67261.317 144381.847 -67250.924 144381.868 -67250.404 144384.264 -67250.498 144384.269 -67250.497 144384.306 -67250.5 144384.314 -67250.5 144815.686 -67250.5 144815.694 -67250.5 144852.569 -67247.598 144852.571 -67247.597 144852.573 -67247.597 144949.502 -67219.436 145010.398 -67201.744 145011.874 -67200.87 145013.183 -67200.538 145017.557 -67198.646 145017.862 -67199.351 145079.597 -67183.685 145132.229 -67199.139 145132.443 -67198.646 145136.441 -67200.376 145138.125 -67200.87 145139.602 -67201.744 145181.224 -67213.836 145297.426 -67247.597 145297.429 -67247.597 145297.431 -67247.598 145334.306 -67250.5 145334.314 -67250.5 145765.686 -67250.5 145765.694 -67250.5 145802.569 -67247.598 145802.571 -67247.597 145802.573 -67247.597 145899.502 -67219.436 145960.398 -67201.744 146101.865 -67118.081 146218.081 -67001.865 146301.744 -66860.398 146307.697 -66839.906 146345.303 -66781.02 146408.775 -66751.813 146426.774 -66750.5 153729.903 -66750.5 153796.942 -66770.185"/><path d="M 139465.354 -79720.035 139500.768 -79780.264 139504.5 -79810.455 139504.5 -80430.001 139504.501 -80430.018 139515 -80532.796 139515.001 -80532.799 139556.246 -80657.265 139570.186 -80699.334 139662.288 -80848.656 139786.344 -80972.712 139920.597 -81055.519 139967.321 -81107.465 139979.5 -81161.057 139979.5 -81399.902 139959.815 -81466.941 139943.181 -81487.583 139739.428 -81691.335 139678.105 -81724.82 139608.413 -81719.836 139552.48 -81677.964 139528.063 -81612.5 139528.218 -81592.857 139535.468 -81510 139515.635 -81283.308 139462.047 -81083.313 139456.741 -81063.511 139456.738 -81063.502 139453.015 -81055.518 139360.568 -80857.266 139230.047 -80670.861 139230.045 -80670.858 139069.141 -80509.954 138882.734 -80379.432 138882.728 -80379.429 138824.725 -80352.382 138772.285 -80306.21 138753.133 -80239.017 138773.348 -80172.135 138824.725 -80127.618 138882.734 -80100.568 139069.139 -79970.047 139230.047 -79809.139 139278.926 -79739.33 139333.5 -79695.707 139402.998 -79688.513 139465.354 -79720.035"/></g><g id="AEE8EvPubfpINQJFC3vI_top_silkscreen"><path d="M 144216.666 -60422.219 144216.666 -61136.504 144169.047 -61279.361 144073.809 -61374.6 143930.952 -61422.219 143835.714 -61422.219 M 145216.666 -61422.219 144645.238 -61422.219 M 144930.952 -61422.219 144930.952 -60422.219 144835.714 -60565.076 144740.476 -60660.314 144645.238 -60707.933 M 147482.219 -65771.904 148291.742 -65771.904 148386.98 -65724.285 148434.6 -65676.666 148482.219 -65581.428 148482.219 -65390.952 148434.6 -65295.714 148386.98 -65248.095 148291.742 -65200.476 147482.219 -65200.476 M 147577.457 -64771.904 147529.838 -64724.285 147482.219 -64629.047 147482.219 -64390.952 147529.838 -64295.714 147577.457 -64248.095 147672.695 -64200.476 147767.933 -64200.476 147910.79 -64248.095 148482.219 -64819.523 148482.219 -64200.476 M 150112.219 -76396.666 149636.028 -76729.999 M 150112.219 -76968.094 149112.219 -76968.094 149112.219 -76587.142 149159.838 -76491.904 149207.457 -76444.285 149302.695 -76396.666 149445.552 -76396.666 149540.79 -76444.285 149588.409 -76491.904 149636.028 -76587.142 149636.028 -76968.094 M 150112.219 -75444.285 150112.219 -76015.713 M 150112.219 -75729.999 149112.219 -75729.999 149255.076 -75825.237 149350.314 -75920.475 149397.933 -76015.713 M 155353.333 -91586.98 155305.714 -91634.6 155162.857 -91682.219 155067.619 -91682.219 154924.762 -91634.6 154829.524 -91539.361 154781.905 -91444.123 154734.286 -91253.647 154734.286 -91110.79 154781.905 -90920.314 154829.524 -90825.076 154924.762 -90729.838 155067.619 -90682.219 155162.857 -90682.219 155305.714 -90729.838 155353.333 -90777.457 M 155734.286 -90777.457 155781.905 -90729.838 155877.143 -90682.219 156115.238 -90682.219 156210.476 -90729.838 156258.095 -90777.457 156305.714 -90872.695 156305.714 -90967.933 156258.095 -91110.79 155686.667 -91682.219 156305.714 -91682.219 M 141888.333 -78236.98 141840.714 -78284.6 141697.857 -78332.219 141602.619 -78332.219 141459.762 -78284.6 141364.524 -78189.361 141316.905 -78094.123 141269.286 -77903.647 141269.286 -77760.79 141316.905 -77570.314 141364.524 -77475.076 141459.762 -77379.838 141602.619 -77332.219 141697.857 -77332.219 141840.714 -77379.838 141888.333 -77427.457 M 142221.667 -77332.219 142840.714 -77332.219 142507.381 -77713.171 142650.238 -77713.171 142745.476 -77760.79 142793.095 -77808.409 142840.714 -77903.647 142840.714 -78141.742 142793.095 -78236.98 142745.476 -78284.6 142650.238 -78332.219 142364.524 -78332.219 142269.286 -78284.6 142221.667 -78236.98 M 136312.219 -89973.333 137026.504 -89973.333 137169.361 -90020.952 137264.6 -90116.19 137312.219 -90259.047 137312.219 -90354.285 M 136312.219 -89592.38 136312.219 -88973.333 136693.171 -89306.666 136693.171 -89163.809 136740.79 -89068.571 136788.409 -89020.952 136883.647 -88973.333 137121.742 -88973.333 137216.98 -89020.952 137264.6 -89068.571 137312.219 -89163.809 137312.219 -89449.523 137264.6 -89544.761 137216.98 -89592.38 M 157112.219 -76396.666 156636.028 -76729.999 M 157112.219 -76968.094 156112.219 -76968.094 156112.219 -76587.142 156159.838 -76491.904 156207.457 -76444.285 156302.695 -76396.666 156445.552 -76396.666 156540.79 -76444.285 156588.409 -76491.904 156636.028 -76587.142 156636.028 -76968.094 M 156207.457 -76015.713 156159.838 -75968.094 156112.219 -75872.856 156112.219 -75634.761 156159.838 -75539.523 156207.457 -75491.904 156302.695 -75444.285 156397.933 -75444.285 156540.79 -75491.904 157112.219 -76063.332 157112.219 -75444.285 M 157566.666 -98602.219 157566.666 -99316.504 157519.047 -99459.361 157423.809 -99554.6 157280.952 -99602.219 157185.714 -99602.219 M 158519.047 -98602.219 158042.857 -98602.219 157995.238 -99078.409 158042.857 -99030.79 158138.095 -98983.171 158376.19 -98983.171 158471.428 -99030.79 158519.047 -99078.409 158566.666 -99173.647 158566.666 -99411.742 158519.047 -99506.98 158471.428 -99554.6 158376.19 -99602.219 158138.095 -99602.219 158042.857 -99554.6 157995.238 -99506.98 M 138556.98 -65176.666 138604.6 -65224.285 138652.219 -65367.142 138652.219 -65462.38 138604.6 -65605.237 138509.361 -65700.475 138414.123 -65748.094 138223.647 -65795.713 138080.79 -65795.713 137890.314 -65748.094 137795.076 -65700.475 137699.838 -65605.237 137652.219 -65462.38 137652.219 -65367.142 137699.838 -65224.285 137747.457 -65176.666 M 138652.219 -64224.285 138652.219 -64795.713 M 138652.219 -64509.999 137652.219 -64509.999 137795.076 -64605.237 137890.314 -64700.475 137937.933 -64795.713 M 136112.219 -70783.333 136826.504 -70783.333 136969.361 -70830.952 137064.6 -70926.19 137112.219 -71069.047 137112.219 -71164.285 M 136207.457 -70354.761 136159.838 -70307.142 136112.219 -70211.904 136112.219 -69973.809 136159.838 -69878.571 136207.457 -69830.952 136302.695 -69783.333 136397.933 -69783.333 136540.79 -69830.952 137112.219 -70402.38 137112.219 -69783.333 M 142256.666 -98672.219 142256.666 -99386.504 142209.047 -99529.361 142113.809 -99624.6 141970.952 -99672.219 141875.714 -99672.219 M 143161.428 -99005.552 143161.428 -99672.219 M 142923.333 -98624.6 142685.238 -99338.885 143304.285 -99338.885 M 141278.095 -73552.219 141278.095 -74361.742 141325.714 -74456.98 141373.333 -74504.6 141468.571 -74552.219 141659.047 -74552.219 141754.285 -74504.6 141801.904 -74456.98 141849.523 -74361.742 141849.523 -73552.219 M 142849.523 -74552.219 142278.095 -74552.219 M 142563.809 -74552.219 142563.809 -73552.219 142468.571 -73695.076 142373.333 -73790.314 142278.095 -73837.933" fill="none" stroke-width="200"/><path d="M 136700 -59900 136700 -46900 M 152900 -46900 136700 -46900 M 152900 -59900 136700 -59900 M 152900 -59900 152900 -46900 M 142150 -63800 143150 -63800 M 142150 -66150 142150 -63800 M 143150 -66150 142150 -66150 M 146050 -66150 146650 -66150 M 146650 -63800 146050 -63800 M 146650 -66150 146650 -63800" fill="none" stroke-width="150"/><path d="M 142825 -65650 A 175 175 0 0 0 142475 -65650 175 175 0 0 0 142825 -65650" fill="none" stroke-width="350"/><path d="M 150660 -72960 150660 -79500 153400 -79500 M 152030 -72190 152030 -72960 M 152030 -80270 152030 -79500 M 153400 -72960 150660 -72960 M 153400 -79500 153400 -72960" fill="none" stroke-width="150"/><path d="M 157789.801 -88925 157389.801 -88925 M 157589.801 -89125 157589.801 -88725 M 155520 -89810 155520 -85650 M 155480 -89810 155480 -85650 M 155440 -89809 155440 -85651 M 155400 -89807 155400 -85653 M 155360 -89804 155360 -85656 M 155320 -89801 155320 -88570 M 155320 -86890 155320 -85659 M 155280 -89797 155280 -88570 M 155280 -86890 155280 -85663 M 155240 -89792 155240 -88570 M 155240 -86890 155240 -85668 M 155200 -89786 155200 -88570 M 155200 -86890 155200 -85674 M 155160 -89780 155160 -88570 M 155160 -86890 155160 -85680 M 155120 -89772 155120 -88570 M 155120 -86890 155120 -85688 M 155080 -89764 155080 -88570 M 155080 -86890 155080 -85696 M 155040 -89755 155040 -88570 M 155040 -86890 155040 -85705 M 155000 -89746 155000 -88570 M 155000 -86890 155000 -85714 M 154960 -89735 154960 -88570 M 154960 -86890 154960 -85725 M 154920 -89724 154920 -88570 M 154920 -86890 154920 -85736 M 154880 -89712 154880 -88570 M 154880 -86890 154880 -85748 M 154840 -89698 154840 -88570 M 154840 -86890 154840 -85762 M 154799 -89684 154799 -88570 M 154799 -86890 154799 -85776 M 154759 -89670 154759 -88570 M 154759 -86890 154759 -85790 M 154719 -89654 154719 -88570 M 154719 -86890 154719 -85806 M 154679 -89637 154679 -88570 M 154679 -86890 154679 -85823 M 154639 -89619 154639 -88570 M 154639 -86890 154639 -85841 M 154599 -89600 154599 -88570 M 154599 -86890 154599 -85860 M 154559 -89581 154559 -88570 M 154559 -86890 154559 -85879 M 154519 -89560 154519 -88570 M 154519 -86890 154519 -85900 M 154479 -89538 154479 -88570 M 154479 -86890 154479 -85922 M 154439 -89515 154439 -88570 M 154439 -86890 154439 -85945 M 154399 -89490 154399 -88570 M 154399 -86890 154399 -85970 M 154359 -89465 154359 -88570 M 154359 -86890 154359 -85995 M 154319 -89438 154319 -88570 M 154319 -86890 154319 -86022 M 154279 -89410 154279 -88570 M 154279 -86890 154279 -86050 M 154239 -89380 154239 -88570 M 154239 -86890 154239 -86080 M 154199 -89349 154199 -88570 M 154199 -86890 154199 -86111 M 154159 -89317 154159 -88570 M 154159 -86890 154159 -86143 M 154119 -89282 154119 -88570 M 154119 -86890 154119 -86178 M 154079 -89246 154079 -88570 M 154079 -86890 154079 -86214 M 154039 -89208 154039 -88570 M 154039 -86890 154039 -86252 M 153999 -89168 153999 -88570 M 153999 -86890 153999 -86292 M 153959 -89126 153959 -88570 M 153959 -86890 153959 -86334 M 153919 -89081 153919 -88570 M 153919 -86890 153919 -86379 M 153879 -89034 153879 -88570 M 153879 -86890 153879 -86426 M 153839 -88984 153839 -88570 M 153839 -86890 153839 -86476 M 153799 -88930 153799 -88570 M 153799 -86890 153799 -86530 M 153759 -88872 153759 -88570 M 153759 -86890 153759 -86588 M 153719 -88810 153719 -88570 M 153719 -86890 153719 -86650 M 153679 -88743 153679 -86717 M 153639 -88670 153639 -86790 M 153599 -88589 153599 -86871 M 153559 -88498 153559 -86962 M 153519 -88394 153519 -87066 M 153479 -88267 153479 -87193 M 153439 -88100 153439 -87360 M 157640 -87730 A 2120 2120 0 0 0 153400 -87730 2120 2120 0 0 0 157640 -87730" fill="none" stroke-width="120"/><path d="M 141343.748 -78820 142766.252 -78820 M 141343.748 -80640 142766.252 -80640 M 157660 -72960 157660 -79500 160400 -79500 M 159030 -72190 159030 -72960 M 159030 -80270 159030 -79500 M 160400 -72960 157660 -72960 M 160400 -79500 160400 -72960 M 139390 -64288.748 139390 -65711.252 M 141210 -64288.748 141210 -65711.252 M 139390 -75100 139390 -85380 144690 -85380 M 141040 -75100 139390 -75100 M 144690 -75100 143040 -75100 M 144690 -85380 144690 -75100 M 143040 -75100 A 1000 1000 0 0 0 141040 -75100" fill="none" stroke-width="150"/></g><g id="AEE8EvPubfpINQJFC3vI_top_soldermask"><use xlink:href="#jD6bsVAydyKk89lmsqtW_pad-10" x="143500" y="-55500"/><use xlink:href="#jD6bsVAydyKk89lmsqtW_pad-11" x="146100" y="-55500"/><use xlink:href="#jD6bsVAydyKk89lmsqtW_pad-11" x="141400" y="-55500"/><use xlink:href="#jD6bsVAydyKk89lmsqtW_pad-11" x="148200" y="-55500"/><use xlink:href="#jD6bsVAydyKk89lmsqtW_pad-11" x="141400" y="-58300"/><use xlink:href="#jD6bsVAydyKk89lmsqtW_pad-11" x="148200" y="-58300"/><use xlink:href="#jD6bsVAydyKk89lmsqtW_pad-12" x="151650" y="-52650"/><use xlink:href="#jD6bsVAydyKk89lmsqtW_pad-13" x="144800" y="-51850"/><use xlink:href="#jD6bsVAydyKk89lmsqtW_pad-12" x="137950" y="-52650"/><use xlink:href="#jD6bsVAydyKk89lmsqtW_pad-14" x="143650" y="-66150"/><use xlink:href="#jD6bsVAydyKk89lmsqtW_pad-14" x="144600" y="-66150"/><use xlink:href="#jD6bsVAydyKk89lmsqtW_pad-14" x="145550" y="-66150"/><use xlink:href="#jD6bsVAydyKk89lmsqtW_pad-14" x="145550" y="-63850"/><use xlink:href="#jD6bsVAydyKk89lmsqtW_pad-14" x="144600" y="-63850"/><use xlink:href="#jD6bsVAydyKk89lmsqtW_pad-14" x="143650" y="-63850"/><use xlink:href="#jD6bsVAydyKk89lmsqtW_pad-11" x="152030" y="-81310"/><use xlink:href="#jD6bsVAydyKk89lmsqtW_pad-15" x="152030" y="-71150"/><use xlink:href="#jD6bsVAydyKk89lmsqtW_pad-16" x="156520" y="-87730"/><use xlink:href="#jD6bsVAydyKk89lmsqtW_pad-17" x="154520" y="-87730"/><use xlink:href="#jD6bsVAydyKk89lmsqtW_pad-18" x="140580" y="-79730"/><use xlink:href="#jD6bsVAydyKk89lmsqtW_pad-18" x="143530" y="-79730"/><use xlink:href="#jD6bsVAydyKk89lmsqtW_pad-19" x="132000" y="-89500"/><use xlink:href="#jD6bsVAydyKk89lmsqtW_pad-11" x="159030" y="-81310"/><use xlink:href="#jD6bsVAydyKk89lmsqtW_pad-15" x="159030" y="-71150"/><use xlink:href="#jD6bsVAydyKk89lmsqtW_pad-19" x="158200" y="-103900"/><use xlink:href="#jD6bsVAydyKk89lmsqtW_pad-20" x="140300" y="-63525"/><use xlink:href="#jD6bsVAydyKk89lmsqtW_pad-20" x="140300" y="-66475"/><use xlink:href="#jD6bsVAydyKk89lmsqtW_pad-19" x="132000" y="-70500"/><use xlink:href="#jD6bsVAydyKk89lmsqtW_pad-19" x="142570" y="-104050"/><use xlink:href="#jD6bsVAydyKk89lmsqtW_pad-10" x="138230" y="-76430"/><use xlink:href="#jD6bsVAydyKk89lmsqtW_pad-15" x="138230" y="-78970"/><use xlink:href="#jD6bsVAydyKk89lmsqtW_pad-15" x="138230" y="-81510"/><use xlink:href="#jD6bsVAydyKk89lmsqtW_pad-15" x="138230" y="-84050"/><use xlink:href="#jD6bsVAydyKk89lmsqtW_pad-15" x="145850" y="-84050"/><use xlink:href="#jD6bsVAydyKk89lmsqtW_pad-15" x="145850" y="-81510"/><use xlink:href="#jD6bsVAydyKk89lmsqtW_pad-15" x="145850" y="-78970"/><use xlink:href="#jD6bsVAydyKk89lmsqtW_pad-15" x="145850" y="-76430"/></g><g id="AEE8EvPubfpINQJFC3vI_top_drill1" transform="scale(25.4,25.4)"><use xlink:href="#dPTx0awAV240buicQJ0x_pad-1" x="6083.5" y="-3453.9"/><use xlink:href="#dPTx0awAV240buicQJ0x_pad-1" x="6162.2" y="-3453.9"/><use xlink:href="#dPTx0awAV240buicQJ0x_pad-2" x="5442.1" y="-3009.1"/><use xlink:href="#dPTx0awAV240buicQJ0x_pad-2" x="5442.1" y="-3109.1"/><use xlink:href="#dPTx0awAV240buicQJ0x_pad-2" x="5442.1" y="-3209.1"/><use xlink:href="#dPTx0awAV240buicQJ0x_pad-2" x="5442.1" y="-3309.1"/><use xlink:href="#dPTx0awAV240buicQJ0x_pad-2" x="5566.9" y="-2185"/><use xlink:href="#dPTx0awAV240buicQJ0x_pad-2" x="5566.9" y="-2295.3"/><use xlink:href="#dPTx0awAV240buicQJ0x_pad-2" x="5649.6" y="-2185"/><use xlink:href="#dPTx0awAV240buicQJ0x_pad-2" x="5742.1" y="-3009.1"/><use xlink:href="#dPTx0awAV240buicQJ0x_pad-2" x="5742.1" y="-3109.1"/><use xlink:href="#dPTx0awAV240buicQJ0x_pad-2" x="5742.1" y="-3209.1"/><use xlink:href="#dPTx0awAV240buicQJ0x_pad-2" x="5742.1" y="-3309.1"/><use xlink:href="#dPTx0awAV240buicQJ0x_pad-2" x="5752" y="-2185"/><use xlink:href="#dPTx0awAV240buicQJ0x_pad-2" x="5834.6" y="-2185"/><use xlink:href="#dPTx0awAV240buicQJ0x_pad-2" x="5834.6" y="-2295.3"/><use xlink:href="#dPTx0awAV240buicQJ0x_pad-2" x="5985.4" y="-2801.2"/><use xlink:href="#dPTx0awAV240buicQJ0x_pad-2" x="5985.4" y="-3201.2"/><use xlink:href="#dPTx0awAV240buicQJ0x_pad-2" x="6261" y="-2801.2"/><use xlink:href="#dPTx0awAV240buicQJ0x_pad-2" x="6261" y="-3201.2"/><use xlink:href="#dPTx0awAV240buicQJ0x_pad-4" x="5196.9" y="-2775.6"/><use xlink:href="#dPTx0awAV240buicQJ0x_pad-4" x="5196.9" y="-3523.6"/><use xlink:href="#dPTx0awAV240buicQJ0x_pad-4" x="5613" y="-4096.5"/><use xlink:href="#dPTx0awAV240buicQJ0x_pad-4" x="6228.3" y="-4090.6"/><path d="M 5431.1 -2102.4 5431.1 -2043.3 M 5740.2 -2041.3 5661.4 -2041.3 M 5970.5 -2102.4 5970.5 -2043.3" fill="none" stroke-width="39.4"/></g><clipPath id="AEE8EvPubfpINQJFC3vI_top_outline"><path d="M 125050 -49700 165050 -49700 165050 -109700 125050 -109700 125050 -49700" fill="none" stroke-width="50"/></clipPath><mask id="AEE8EvPubfpINQJFC3vI_top_mech-mask"><g fill="#000" stroke="#000"><rect x="125050" y="-109700" width="40000" height="60000" fill="#fff"/><use xlink:href="#AEE8EvPubfpINQJFC3vI_top_drill1"/></g></mask><mask id="AEE8EvPubfpINQJFC3vI_top_cf-mask"><g fill="#fff" stroke="#fff"><use xlink:href="#AEE8EvPubfpINQJFC3vI_top_soldermask"/></g></mask><mask id="AEE8EvPubfpINQJFC3vI_top_sm-mask"><g fill="#000" stroke="#000"><rect x="125050" y="-109700" width="40000" height="60000" fill="#fff"/><use xlink:href="#AEE8EvPubfpINQJFC3vI_top_soldermask"/></g></mask></defs><g transform="translate(0,-159400) scale(1,-1)"><g mask="url(#AEE8EvPubfpINQJFC3vI_top_mech-mask)" clip-path="url(#AEE8EvPubfpINQJFC3vI_top_outline)"><rect x="125050" y="-109700" width="40000" height="60000" fill="currentColor" class="AEE8EvPubfpINQJFC3vI_fr4"/><use xlink:href="#AEE8EvPubfpINQJFC3vI_top_copper" fill="currentColor" stroke="currentColor" class="AEE8EvPubfpINQJFC3vI_cu"/><use xlink:href="#AEE8EvPubfpINQJFC3vI_top_copper" fill="currentColor" stroke="currentColor" class="AEE8EvPubfpINQJFC3vI_cf" mask="url(#AEE8EvPubfpINQJFC3vI_top_cf-mask)"/><g mask="url(#AEE8EvPubfpINQJFC3vI_top_sm-mask)"><rect x="125050" y="-109700" width="40000" height="60000" fill="currentColor" class="AEE8EvPubfpINQJFC3vI_sm"/><use xlink:href="#AEE8EvPubfpINQJFC3vI_top_silkscreen" fill="currentColor" stroke="currentColor" class="AEE8EvPubfpINQJFC3vI_ss"/></g></g></g></svg>